0
SECTION
2
HEADER
9
$INSUNITS
70
4
9
$ACADVER
1
AC1014
9
$HANDSEED
5
FFFF
0
ENDSEC
0
SECTION
2
TABLES
0
TABLE
2
VPORT
5
8
100
AcDbSymbolTable
0
ENDTAB
0
TABLE
2
LTYPE
5
5
100
AcDbSymbolTable
0
LTYPE
5
14
100
AcDbSymbolTableRecord
100
AcDbLinetypeTableRecord
2
BYBLOCK
70
0
0
LTYPE
5
15
100
AcDbSymbolTableRecord
100
AcDbLinetypeTableRecord
2
BYLAYER
70
0
0
ENDTAB
0
TABLE
2
LAYER
5
2
100
AcDbSymbolTable
70
2
0
LAYER
5
50
100
AcDbSymbolTableRecord
100
AcDbLayerTableRecord
2
0
70
0
6
CONTINUOUS
0
ENDTAB
0
TABLE
2
STYLE
5
3
100
AcDbSymbolTable
70
1
0
STYLE
5
11
100
AcDbSymbolTableRecord
100
AcDbTextStyleTableRecord
2
STANDARD
70
0
0
ENDTAB
0
TABLE
2
VIEW
5
6
100
AcDbSymbolTable
70
0
0
ENDTAB
0
TABLE
2
UCS
5
7
100
AcDbSymbolTable
70
0
0
ENDTAB
0
TABLE
2
APPID
5
9
100
AcDbSymbolTable
70
2
0
APPID
5
12
100
AcDbSymbolTableRecord
100
AcDbRegAppTableRecord
2
ACAD
70
0
0
ENDTAB
0
TABLE
2
DIMSTYLE
5
A
100
AcDbSymbolTable
70
1
0
ENDTAB
0
TABLE
2
BLOCK_RECORD
5
1
100
AcDbSymbolTable
70
1
0
BLOCK_RECORD
5
1F
100
AcDbSymbolTableRecord
100
AcDbBlockTableRecord
2
*MODEL_SPACE
0
BLOCK_RECORD
5
1B
100
AcDbSymbolTableRecord
100
AcDbBlockTableRecord
2
*PAPER_SPACE
0
ENDTAB
0
ENDSEC
0
SECTION
2
BLOCKS
0
BLOCK
5
20
100
AcDbEntity
100
AcDbBlockBegin
2
*MODEL_SPACE
0
ENDBLK
5
21
100
AcDbEntity
100
AcDbBlockEnd
0
BLOCK
5
1C
100
AcDbEntity
100
AcDbBlockBegin
2
*PAPER_SPACE
0
ENDBLK
5
1D
100
AcDbEntity
100
AcDbBlockEnd
0
ENDSEC
0
SECTION
2
ENTITIES
0
LWPOLYLINE
5
100
100
AcDbEntity
8
0
100
AcDbPolyline
90
44
70
1
43
0.0
10
-316.82158236924278
20
734.92841747332534
10
-316.82158351706556
20
730.11409976819596
42
-0.19891242964600822
10
-317.40737063069366
20
728.69988600665988
10
-321.59308000600987
20
724.51418063291908
42
-0.19891230511321922
10
-323.00729336921893
20
723.92839487129299
10
-344.90739183979804
20
723.92840009268627
10
-347.3216059777655
20
721.5141871059061
10
-347.32161119915901
20
699.61408863532779
42
-0.19891230511329103
10
-347.90739763513506
20
698.19987555144269
10
-352.67890196910753
20
693.4283712063326
10
-358.32103442062191
20
693.42837255152301
10
-358.32106982577
20
396.42847668137551
10
-352.67893737425538
20
396.42847668137654
10
-347.90743417789855
20
391.65697119865126
42
-0.19891230511333557
10
-347.32164807909703
20
390.24275797510359
10
-347.32164807909413
20
368.34265950452448
10
-344.90743451672012
20
365.92844594215143
10
-323.00733604614067
20
365.92844594215444
42
-0.19891230511323771
10
-321.59312282259361
20
365.34265984335354
10
-317.40741444522735
20
361.15695347166144
42
-0.19891242964606351
10
-316.8216276687744
20
359.74273957046239
10
-316.82162766877434
20
354.92842186533403
10
-19.820615265829169
20
354.92838646005276
10
-19.820614118006361
20
359.74270416518101
42
-0.19891242964600453
10
-19.234827004379035
20
361.15691792671731
10
-15.049117629062952
20
365.34262330045817
42
-0.1989123051133784
10
-13.634904265852811
20
365.92840906208494
10
8.2651942047258959
20
365.92840384069115
10
10.679408342693355
20
368.34261682747098
10
10.679413564086673
20
390.24271529804992
42
-0.19891230511331237
10
11.26520000006327
20
391.6569283819349
10
16.036704334035342
20
396.42843272704505
10
21.678836785549827
20
396.42843138185498
10
21.678872190697973
20
693.4283272520014
10
16.036739739183233
20
693.4283272520006
10
11.26523654282666
20
698.19983273472633
42
-0.19891230511326852
10
10.679450444024814
20
699.61404595827332
10
10.679450444022144
20
721.51414442885221
10
8.265236881647839
20
723.92835799122622
10
-13.63486158893144
20
723.92835799122349
42
-0.19891230511329344
10
-15.049074812478869
20
724.5141440900245
10
-19.234783189844958
20
728.69985046171655
42
-0.19891242964589892
10
-19.820569966297679
20
730.11406436291441
10
-19.820569966297668
20
734.92838206804379
0
ELLIPSE
5
101
100
AcDbEntity
8
0
100
AcDbEllipse
10
-22.570402043932415
20
544.97640669021621
30
-2.765716544672614e-09
11
11.948028449863655
21
-1.1156615990842946
31
0.0
40
0.99999970610283007
41
0
42
6.2831853071795862
0
CIRCLE
5
102
100
AcDbEntity
8
0
100
AcDbCircle
10
-7.0978323184655432
20
560.58630112842434
30
-2.7651481104840059e-09
40
1.5500004555407401
210
5.3615555382696268e-15
220
-4.5797158354717956e-16
230
1
0
CIRCLE
5
103
100
AcDbEntity
8
0
100
AcDbCircle
10
-38.097192886480514
20
560.38585585483042
30
-2.7655744361254619e-09
40
1.55000045554081
210
5.3615555382696268e-15
220
-4.5797158354717956e-16
230
1
0
CIRCLE
5
104
100
AcDbEntity
8
0
100
AcDbCircle
10
-6.897385302660723
20
529.58694921593519
30
-2.7675639557855902e-09
40
1.5500004555407401
210
5.3615555382696268e-15
220
-4.5797158354717956e-16
230
1
0
CIRCLE
5
105
100
AcDbEntity
8
0
100
AcDbCircle
10
-37.896745870675609
20
529.38650394234151
30
-2.7678481728798943e-09
40
1.55000045554081
210
5.3615555382696268e-15
220
-4.5797158354717956e-16
230
1
0
CIRCLE
5
106
100
AcDbEntity
8
0
100
AcDbCircle
10
336.7070753794996
20
713.91859679390495
30
2.7641673737290961e-09
40
1.5500004555408102
210
-5.3615554853300416e-15
220
6.6474561644828631e-15
230
-1
0
CIRCLE
5
107
100
AcDbEntity
8
0
100
AcDbCircle
10
305.70771485927582
20
713.71814412948675
30
2.7691157441267376e-09
40
1.5500004555407401
210
-5.361555458860262e-15
220
6.6474561644828631e-15
230
-1
0
CIRCLE
5
108
100
AcDbEntity
8
0
100
AcDbCircle
10
336.90752978612642
20
682.9192449292068
30
2.7740520884916646e-09
40
1.5500004555408102
210
-5.3615554853300416e-15
220
6.6474561644828631e-15
230
-1
0
ELLIPSE
5
109
100
AcDbEntity
8
0
100
AcDbEllipse
10
-321.38073908035699
20
698.32869124770002
30
-2.7641533506539417e-09
11
11.948028715858106
21
1.1156587504487328
31
0.0
40
0.99999970610282962
41
0
42
6.2831853071795862
0
CIRCLE
5
110
100
AcDbEntity
8
0
100
AcDbCircle
10
305.9081692659027
20
682.7187922647887
30
2.7689107520415082e-09
40
1.5500004555407401
210
-5.361555458860262e-15
220
6.6474561644828631e-15
230
-1
0
CIRCLE
5
111
100
AcDbEntity
8
0
100
AcDbCircle
10
-336.90756268570368
20
406.93759919831348
30
-2.7625901566352695e-09
40
1.55000045554081
210
5.3615555117998472e-15
220
-4.5797157692973466e-16
230
1
0
CIRCLE
5
112
100
AcDbEntity
8
0
100
AcDbCircle
10
-336.70711566989951
20
375.93824728582456
30
-2.7651481104840059e-09
40
1.55000045554081
210
5.3615555117998472e-15
220
-4.5797157692973466e-16
230
1
0
CIRCLE
5
113
100
AcDbEntity
8
0
100
AcDbCircle
10
-305.90820211768886
20
407.13804447190739
30
-2.7623059395409655e-09
40
1.5500004555407401
210
5.361555564739408e-15
220
-4.5797159016462456e-16
230
1
0
CIRCLE
5
114
100
AcDbEntity
8
0
100
AcDbCircle
10
-305.70775510188378
20
376.13869255941836
30
-2.7645796762953978e-09
40
1.5500004555407401
210
5.361555564739408e-15
220
-4.5797159016462456e-16
230
1
0
ELLIPSE
5
115
100
AcDbEntity
8
0
100
AcDbEllipse
10
-321.38077565383355
20
391.52814917794552
30
-2.7642954592010938e-09
11
11.94802844986398
21
-1.1156615990808563
31
0.0
40
0.99999970610282984
41
0
42
6.2831853071795862
0
CIRCLE
5
116
100
AcDbEntity
8
0
100
AcDbCircle
10
-136.22050337437105
20
359.92869365985456
30
-2.7573321403906448e-09
40
2.1000000000000103
210
5.3615555117998488e-15
220
-4.5797157692973476e-16
230
1
0
CIRCLE
5
117
100
AcDbEntity
8
0
100
AcDbCircle
10
16.679739226665113
20
462.02837543590408
30
-2.7486635190143716e-09
40
2.0999999999999903
210
5.3615555117998488e-15
220
-4.5797157692973476e-16
230
1
0
CIRCLE
5
118
100
AcDbEntity
8
0
100
AcDbCircle
10
16.672282655343839
20
674.42832725200333
30
-2.7461055651656352e-09
40
2.1000000000000005
210
5.3615554853300692e-15
220
-4.5797157692973476e-16
230
1
0
CIRCLE
5
119
100
AcDbEntity
8
0
100
AcDbCircle
10
-200.42047669380989
20
729.92119490353934
30
-2.7635849164653337e-09
40
2.1000000000000103
210
5.3615555117998488e-15
220
-4.5797157692973476e-16
230
1
0
CIRCLE
5
120
100
AcDbEntity
8
0
100
AcDbCircle
10
-353.32080702684925
20
626.82828185222786
30
-2.7772273369919276e-09
40
2.1000000000000103
210
5.3615555117998488e-15
220
-4.5797157692973476e-16
230
1
0
CIRCLE
5
121
100
AcDbEntity
8
0
100
AcDbCircle
10
-353.31335045550162
20
414.42833003612759
30
-2.7797852908406639e-09
40
2.1000000000000103
210
5.3615555117998488e-15
220
-4.5797157692973476e-16
230
1
0
CIRCLE
5
122
100
AcDbEntity
8
0
100
AcDbCircle
10
-353.32080702686773
20
461.92838576477163
30
-2.7840485472552245e-09
40
2.1000000000000103
210
5.3615555117998488e-15
220
-4.5797157692973476e-16
230
1
0
CIRCLE
5
123
100
AcDbEntity
8
0
100
AcDbCircle
10
-353.31335045547246
20
674.3283375808719
30
-2.7770852284447756e-09
40
2.1000000000000103
210
5.3615555117998488e-15
220
-4.5797157692973476e-16
230
1
0
CIRCLE
5
124
100
AcDbEntity
8
0
100
AcDbCircle
10
-135.32048003168217
20
729.921194903534
30
-2.7594637685979251e-09
40
2.0999999999999903
210
5.3615555117998488e-15
220
-4.5797157692973476e-16
230
1
0
CIRCLE
5
125
100
AcDbEntity
8
0
100
AcDbCircle
10
16.679739226704186
20
626.92827152335917
30
-2.75207412414602e-09
40
2.0999999999999903
210
5.3615555117998488e-15
220
-4.5797157692973476e-16
230
1
0
CIRCLE
5
126
100
AcDbEntity
8
0
100
AcDbCircle
10
16.672282655282363
20
414.52831970725993
30
-2.7489477361086756e-09
40
2.1000000000000005
210
5.3615554853300692e-15
220
-4.5797157692973476e-16
230
1
0
CIRCLE
5
127
100
AcDbEntity
8
0
100
AcDbCircle
10
-201.32050003649877
20
359.92869365986189
30
-2.7714008865586948e-09
40
2.1000000000000103
210
5.3615555117998488e-15
220
-4.5797157692973476e-16
230
1
0
CIRCLE
5
128
100
AcDbEntity
8
0
100
AcDbCircle
10
-86.320548220385234
20
359.92124178950633
30
-2.7596058771450771e-09
40
2.0999999999999903
210
5.3615555117998488e-15
220
-4.5797157692973476e-16
230
1
0
CIRCLE
5
129
100
AcDbEntity
8
0
100
AcDbCircle
10
16.672287356347553
20
511.92831970724916
30
-2.7468161079013953e-09
40
2.1000000000000005
210
5.3615554853300692e-15
220
-4.5797157692973476e-16
230
1
0
CIRCLE
5
130
100
AcDbEntity
8
0
100
AcDbCircle
10
-250.3204318477957
20
729.92864677388548
30
-2.7714008865586948e-09
40
2.0999999999999703
210
5.3615555117998488e-15
220
-4.5797157692973476e-16
230
1
0
CIRCLE
5
131
100
AcDbEntity
8
0
100
AcDbCircle
10
-353.31335515652512
20
576.92833758088295
30
-2.7790747481049038e-09
40
2.1000000000000103
210
5.3615555117998488e-15
220
-4.5797157692973476e-16
230
1
0
CIRCLE
5
132
100
AcDbEntity
8
0
100
AcDbCircle
10
-298.72050003649031
20
359.9286983609253
30
-2.7759483600675594e-09
40
2.1000000000000103
210
5.3615555117998488e-15
220
-4.5797157692973476e-16
230
1
0
CIRCLE
5
133
100
AcDbEntity
8
0
100
AcDbCircle
10
-353.31335515652489
20
511.82834091875679
30
-2.7847590899909846e-09
40
2.1000000000000103
210
5.3615555117998488e-15
220
-4.5797157692973476e-16
230
1
0
CIRCLE
5
134
100
AcDbEntity
8
0
100
AcDbCircle
10
-297.82048757644043
20
729.92119020252278
30
-2.7756641429732554e-09
40
2.1000000000000103
210
5.3615555117998488e-15
220
-4.5797157692973476e-16
230
1
0
CIRCLE
5
135
100
AcDbEntity
8
0
100
AcDbCircle
10
16.672287356355447
20
577.02831636937515
30
-2.7510793643159559e-09
40
2.1000000000000103
210
5.3615555117998488e-15
220
-4.5797157692973476e-16
230
1
0
CIRCLE
5
136
100
AcDbEntity
8
0
100
AcDbCircle
10
-38.820492491740119
20
359.92869836086709
30
-2.7553426207305165e-09
40
2.1000000000000005
210
5.3615554853300692e-15
220
-4.5797157692973476e-16
230
1
0
CIRCLE
5
137
100
AcDbEntity
8
0
100
AcDbCircle
10
-251.22044430784558
20
359.92124178954316
30
-2.7679902814270463e-09
40
2.0999999999999703
210
5.3615555117998488e-15
220
-4.5797157692973476e-16
230
1
0
CIRCLE
5
138
100
AcDbEntity
8
0
100
AcDbCircle
10
-85.420535760335326
20
729.92864677385478
30
-2.7532109925232362e-09
40
2.0999999999999903
210
5.3615555117998488e-15
220
-4.5797157692973476e-16
230
1
0
CIRCLE
5
139
100
AcDbEntity
8
0
100
AcDbCircle
10
-37.920480031690246
20
729.92119020247458
30
-2.7550584036362125e-09
40
2.1000000000000005
210
5.3615554853300692e-15
220
-4.5797157692973476e-16
230
1
0
ENDSEC
0
SECTION
2
OBJECTS
0
DICTIONARY
5
C
100
AcDbDictionary
3
ACAD_GROUP
350
D
3
ACAD_MLINESTYLE
350
17
0
DICTIONARY
5
D
100
AcDbDictionary
0
DICTIONARY
5
1A
330
C
100
AcDbDictionary
0
DICTIONARY
5
17
100
AcDbDictionary
0
ENDSEC
0
EOF
