0
SECTION
2
HEADER
9
$INSUNITS
70
4
9
$ACADVER
1
AC1014
9
$HANDSEED
5
FFFF
0
ENDSEC
0
SECTION
2
TABLES
0
TABLE
2
VPORT
5
8
100
AcDbSymbolTable
0
ENDTAB
0
TABLE
2
LTYPE
5
5
100
AcDbSymbolTable
0
LTYPE
5
14
100
AcDbSymbolTableRecord
100
AcDbLinetypeTableRecord
2
BYBLOCK
70
0
0
LTYPE
5
15
100
AcDbSymbolTableRecord
100
AcDbLinetypeTableRecord
2
BYLAYER
70
0
0
ENDTAB
0
TABLE
2
LAYER
5
2
100
AcDbSymbolTable
70
2
0
LAYER
5
50
100
AcDbSymbolTableRecord
100
AcDbLayerTableRecord
2
0
70
0
6
CONTINUOUS
0
ENDTAB
0
TABLE
2
STYLE
5
3
100
AcDbSymbolTable
70
1
0
STYLE
5
11
100
AcDbSymbolTableRecord
100
AcDbTextStyleTableRecord
2
STANDARD
70
0
0
ENDTAB
0
TABLE
2
VIEW
5
6
100
AcDbSymbolTable
70
0
0
ENDTAB
0
TABLE
2
UCS
5
7
100
AcDbSymbolTable
70
0
0
ENDTAB
0
TABLE
2
APPID
5
9
100
AcDbSymbolTable
70
2
0
APPID
5
12
100
AcDbSymbolTableRecord
100
AcDbRegAppTableRecord
2
ACAD
70
0
0
ENDTAB
0
TABLE
2
DIMSTYLE
5
A
100
AcDbSymbolTable
70
1
0
ENDTAB
0
TABLE
2
BLOCK_RECORD
5
1
100
AcDbSymbolTable
70
1
0
BLOCK_RECORD
5
1F
100
AcDbSymbolTableRecord
100
AcDbBlockTableRecord
2
*MODEL_SPACE
0
BLOCK_RECORD
5
1B
100
AcDbSymbolTableRecord
100
AcDbBlockTableRecord
2
*PAPER_SPACE
0
ENDTAB
0
ENDSEC
0
SECTION
2
BLOCKS
0
BLOCK
5
20
100
AcDbEntity
100
AcDbBlockBegin
2
*MODEL_SPACE
0
ENDBLK
5
21
100
AcDbEntity
100
AcDbBlockEnd
0
BLOCK
5
1C
100
AcDbEntity
100
AcDbBlockBegin
2
*PAPER_SPACE
0
ENDBLK
5
1D
100
AcDbEntity
100
AcDbBlockEnd
0
ENDSEC
0
SECTION
2
ENTITIES
0
CIRCLE
5
100
100
AcDbEntity
8
0
100
AcDbCircle
10
-419.67072954936771
20
-214.75892843083844
30
0
40
1.6000000000000374
210
1.8932661725304292e-29
220
-2.4032451507213821e-23
230
1
0
CIRCLE
5
101
100
AcDbEntity
8
0
100
AcDbCircle
10
-466.33863086489907
20
-299.60057916572447
30
0
40
1.5999999999999668
210
1.2621774483536194e-29
220
-2.4032451507213821e-23
230
1
0
CIRCLE
5
102
100
AcDbEntity
8
0
100
AcDbCircle
10
-707.7957997001663
20
-299.60062551799518
30
0
40
1.5999999999999668
210
1.2621774483536194e-29
220
-2.4032451507213821e-23
230
1
0
CIRCLE
5
103
100
AcDbEntity
8
0
100
AcDbCircle
10
-695.98115330294729
20
-214.75898147385186
30
0
40
1.5999999999999668
210
1.2621774483536194e-29
220
-2.4032451507213821e-23
230
1
0
CIRCLE
5
104
100
AcDbEntity
8
0
100
AcDbCircle
10
-439.36181773603312
20
-299.60057398701406
30
0
40
1.5999999999999668
210
1.2621774483536194e-29
220
-2.4032451507213821e-23
230
1
0
CIRCLE
5
105
100
AcDbEntity
8
0
100
AcDbCircle
10
-393.87538268891882
20
-214.75892347893281
30
-1.4210854715202004e-13
40
1.6000000000000374
210
1.8932661725304292e-29
220
-2.4032451507213821e-23
230
1
0
CIRCLE
5
106
100
AcDbEntity
8
0
100
AcDbCircle
10
-623.51787255305089
20
-299.60060933925524
30
0
40
1.5999999999999668
210
1.2621774483536194e-29
220
-2.4032451507213821e-23
230
1
0
CIRCLE
5
107
100
AcDbEntity
8
0
100
AcDbCircle
10
-650.49468568191674
20
-299.60061451796423
30
0
40
1.5999999999999668
210
1.2621774483536194e-29
220
-2.4032451507213821e-23
230
1
0
CIRCLE
5
108
100
AcDbEntity
8
0
100
AcDbCircle
10
-670.18580644249823
20
-214.75897652194791
30
0
40
1.5999999999999668
210
1.2621774483536194e-29
220
-2.4032451507213821e-23
230
1
0
CIRCLE
5
109
100
AcDbEntity
8
0
100
AcDbCircle
10
-382.06070371778361
20
-299.60056298697941
30
0
40
1.5999999999999668
210
1.2621774483536194e-29
220
-2.4032451507213821e-23
230
1
0
LWPOLYLINE
5
110
100
AcDbEntity
8
0
100
AcDbPolyline
90
40
70
1
43
0.0
10
-349.92847538061875
20
4.6794221799539182
42
0.41421344071789051
10
-350.92847557258744
20
5.6794215726281241
10
-369.92857067707126
20
5.6794179252003429
42
-0.41421356237308821
10
-370.92857086904019
20
6.6794177332314399
10
-370.92857451638559
20
25.679084618520484
42
0.4142135623730443
10
-371.92857470835452
20
26.679084426551572
10
-507.7725747083515
20
26.679058348725881
42
0.4142135623730937
10
-508.7725745163828
20
25.679058156757002
10
-508.77257086903728
20
6.6793912714679742
42
-0.41421356237311191
10
-509.77257067706836
20
5.679391079499041
10
-578.92857067706711
20
5.6793778036965135
42
-0.41421356237308821
10
-579.92857086903598
20
6.6793776117276105
10
-579.92857453705642
20
25.786744497016659
42
0.41421356237307683
10
-580.9285747290254
20
26.786744305047719
10
-615.79092490807238
20
26.786737612560103
42
0.41421356237306123
10
-616.79092471610352
20
25.786737420591216
10
-616.79092130155811
20
7.9997690374260948
42
-0.41421356237310836
10
-617.79092110958925
20
6.999768845457174
10
-646.9278592101017
20
6.9997632520707356
42
-0.41421356237313017
10
-647.92785940207068
20
7.9997630601017624
10
-647.92786281661552
20
25.786731443266863
42
0.41421356237312235
10
-648.92786300858472
20
26.786731251298008
10
-717.92857472902324
20
26.786718005306
42
0.41421356237312362
10
-718.92857453705437
20
25.786717813337102
10
-718.92857086903405
20
6.6793509280480716
42
-0.41421356237311419
10
-719.92857067706507
20
5.6793507360791304
10
-738.92832373409601
20
5.6793470887171038
42
0.41421356237312545
10
-739.92832354212715
20
4.6793468967481662
10
-739.92825712088143
20
-341.32065310324526
42
0.41421356237303258
10
-738.92825692891267
20
-342.3206529112764
10
-719.9285038718815
20
-342.32064926391433
42
-0.41421356237309503
10
-718.92850367991275
20
-343.32064907194535
10
-718.92850003245542
20
-362.32089790892019
42
0.41421356237315748
10
-717.92849984048644
20
-363.32089771695115
10
-371.9284998404928
20
-363.32083129570555
42
0.41421356237301177
10
-370.92850003246167
20
-362.32083110373674
10
-370.92850367991895
20
-343.3205822667619
42
-0.41421356237311585
10
-369.92850387188781
20
-342.32058207479292
10
-350.92826505393691
20
-342.32057842733764
42
0.41421368402836778
10
-349.928265245906
20
-341.32057782001198
0
CIRCLE
5
111
100
AcDbEntity
8
0
100
AcDbCircle
10
-688.62057259809842
20
15.686356746241772
30
0
40
1.5999999999999701
210
1.7385273580918479e-29
220
-2.4813908155876113e-23
230
1
0
CIRCLE
5
112
100
AcDbEntity
8
0
100
AcDbCircle
10
-609.62057259809944
20
15.686371911786292
30
0
40
2.1000000000000094
210
1.6155761286156587e-29
220
-5.1283687757572972e-23
230
1
0
CIRCLE
5
113
100
AcDbEntity
8
0
100
AcDbCircle
10
-400.62057259810376
20
15.686412033290155
30
1.4210854715202004e-13
40
1.5999999999999701
210
1.7385273580918479e-29
220
-2.4813908155876113e-23
230
1
0
CIRCLE
5
114
100
AcDbEntity
8
0
100
AcDbCircle
10
-479.62057259810183
20
15.686396867745637
30
0
40
2.1000000000000094
210
1.6155761286156587e-29
220
-5.1283687757572972e-23
230
1
0
CIRCLE
5
115
100
AcDbEntity
8
0
100
AcDbCircle
10
-360.12056482336322
20
-24.813580191967873
30
0
40
2.1000000000000094
210
1.6155761286156587e-29
220
-5.1283687757572972e-23
230
1
0
CIRCLE
5
116
100
AcDbEntity
8
0
100
AcDbCircle
10
-360.12053717983906
20
-168.81358019196563
30
0
40
2.1000000000000298
210
9.8448740443886035e-30
220
-5.1283687757574183e-23
230
1
0
CIRCLE
5
117
100
AcDbEntity
8
0
100
AcDbCircle
10
-360.12050953631496
20
-312.81358019196239
30
0
40
2.1000000000000094
210
1.6155761286156587e-29
220
-5.1283687757572972e-23
230
1
0
CIRCLE
5
118
100
AcDbEntity
8
0
100
AcDbCircle
10
-688.62050176156777
20
-353.31364325375102
30
0
40
2.1000000000000094
210
1.6155761286156587e-29
220
-5.1283687757572972e-23
230
1
0
CIRCLE
5
119
100
AcDbEntity
8
0
100
AcDbCircle
10
-400.620501761573
20
-353.3135879667027
30
0
40
2.1000000000000094
210
1.6155761286156587e-29
220
-5.1283687757572972e-23
230
1
0
CIRCLE
5
120
100
AcDbEntity
8
0
100
AcDbCircle
10
-544.62050176157004
20
-353.31361561022686
30
0
40
2.1000000000000094
210
1.6155761286156587e-29
220
-5.1283687757572972e-23
230
1
0
CIRCLE
5
121
100
AcDbEntity
8
0
100
AcDbCircle
10
-729.12050953630808
20
-312.81365102849315
30
0
40
2.1000000000000094
210
1.6155761286156587e-29
220
-5.1283687757572972e-23
230
1
0
CIRCLE
5
122
100
AcDbEntity
8
0
100
AcDbCircle
10
-729.12053717983224
20
-168.81365102849628
30
-1.4210854715202004e-13
40
2.1000000000000298
210
9.8448740443886035e-30
220
-5.1283687757574183e-23
230
1
0
CIRCLE
5
123
100
AcDbEntity
8
0
100
AcDbCircle
10
-729.1205648233564
20
-24.81365102849859
30
-1.4210854715202004e-13
40
2.1000000000000094
210
1.6155761286156587e-29
220
-5.1283687757572972e-23
230
1
0
LWPOLYLINE
5
124
100
AcDbEntity
8
0
100
AcDbPolyline
90
4
70
1
43
0.0
10
-614.14016107417467
20
-203.77773786261972
10
-629.14016124503109
20
-203.77774074215364
42
-0.99999999999999989
10
-629.14016316472021
20
-193.77774074215384
10
-614.14016299386378
20
-193.77773786261994
42
-0.99999999999999989
0
LWPOLYLINE
5
125
100
AcDbEntity
8
0
100
AcDbPolyline
90
4
70
1
43
0.0
10
-460.10089969059544
20
-203.77770829186949
10
-475.10089986145175
20
-203.77771117140321
42
-0.99999999999999989
10
-475.10090178114069
20
-193.77771117140341
10
-460.10090161028467
20
-193.77770829186971
42
-0.99999999999999989
0
CIRCLE
5
126
100
AcDbEntity
8
0
100
AcDbCircle
10
-543.02098628504166
20
-44.447561702081479
30
0
40
1.5500000000000025
210
-1.8634131172906384e-24
220
-2.5913275465629714e-23
230
1
0
CIRCLE
5
127
100
AcDbEntity
8
0
100
AcDbCircle
10
-627.29891343215616
20
-44.447577880814528
30
0
40
1.5500000000000045
210
1.5619275678087568e-24
220
-1.312932330851053e-23
230
1
0
CIRCLE
5
128
100
AcDbEntity
8
0
100
AcDbCircle
10
-554.83563268226828
20
-129.28920574622271
30
0
40
1.5500000000000116
210
-1.8634123006259754e-24
220
-2.5913272417698735e-23
230
1
0
CIRCLE
5
129
100
AcDbEntity
8
0
100
AcDbCircle
10
-600.32210030329065
20
-44.447572702107891
30
0
40
1.5500000000000045
210
1.5619275678087568e-24
220
-1.312932330851053e-23
230
1
0
CIRCLE
5
130
100
AcDbEntity
8
0
100
AcDbCircle
10
-580.63097954271666
20
-129.28921069812463
30
0
40
1.5500000000000134
210
-1.8634062047640126e-24
220
-2.5913274051028061e-23
230
1
0
LWPOLYLINE
5
131
100
AcDbEntity
8
0
100
AcDbPolyline
90
4
70
1
43
0.0
10
-629.6590179617441
20
-133.51304793550153
10
-614.65901793663431
20
-133.51304505596769
42
-0.99999999999999989
10
-614.6590160169452
20
-143.51304505596755
10
-629.65901604205499
20
-143.51304793550139
42
-0.99999999999999989
0
ENDSEC
0
SECTION
2
OBJECTS
0
DICTIONARY
5
C
100
AcDbDictionary
3
ACAD_GROUP
350
D
3
ACAD_MLINESTYLE
350
17
0
DICTIONARY
5
D
100
AcDbDictionary
0
DICTIONARY
5
1A
330
C
100
AcDbDictionary
0
DICTIONARY
5
17
100
AcDbDictionary
0
ENDSEC
0
EOF
