0
SECTION
2
HEADER
9
$INSUNITS
70
4
9
$ACADVER
1
AC1014
9
$HANDSEED
5
FFFF
0
ENDSEC
0
SECTION
2
TABLES
0
TABLE
2
VPORT
5
8
100
AcDbSymbolTable
0
ENDTAB
0
TABLE
2
LTYPE
5
5
100
AcDbSymbolTable
0
LTYPE
5
14
100
AcDbSymbolTableRecord
100
AcDbLinetypeTableRecord
2
BYBLOCK
70
0
0
LTYPE
5
15
100
AcDbSymbolTableRecord
100
AcDbLinetypeTableRecord
2
BYLAYER
70
0
0
ENDTAB
0
TABLE
2
LAYER
5
2
100
AcDbSymbolTable
70
2
0
LAYER
5
50
100
AcDbSymbolTableRecord
100
AcDbLayerTableRecord
2
0
70
0
6
CONTINUOUS
0
ENDTAB
0
TABLE
2
STYLE
5
3
100
AcDbSymbolTable
70
1
0
STYLE
5
11
100
AcDbSymbolTableRecord
100
AcDbTextStyleTableRecord
2
STANDARD
70
0
0
ENDTAB
0
TABLE
2
VIEW
5
6
100
AcDbSymbolTable
70
0
0
ENDTAB
0
TABLE
2
UCS
5
7
100
AcDbSymbolTable
70
0
0
ENDTAB
0
TABLE
2
APPID
5
9
100
AcDbSymbolTable
70
2
0
APPID
5
12
100
AcDbSymbolTableRecord
100
AcDbRegAppTableRecord
2
ACAD
70
0
0
ENDTAB
0
TABLE
2
DIMSTYLE
5
A
100
AcDbSymbolTable
70
1
0
ENDTAB
0
TABLE
2
BLOCK_RECORD
5
1
100
AcDbSymbolTable
70
1
0
BLOCK_RECORD
5
1F
100
AcDbSymbolTableRecord
100
AcDbBlockTableRecord
2
*MODEL_SPACE
0
BLOCK_RECORD
5
1B
100
AcDbSymbolTableRecord
100
AcDbBlockTableRecord
2
*PAPER_SPACE
0
ENDTAB
0
ENDSEC
0
SECTION
2
BLOCKS
0
BLOCK
5
20
100
AcDbEntity
100
AcDbBlockBegin
2
*MODEL_SPACE
0
ENDBLK
5
21
100
AcDbEntity
100
AcDbBlockEnd
0
BLOCK
5
1C
100
AcDbEntity
100
AcDbBlockBegin
2
*PAPER_SPACE
0
ENDBLK
5
1D
100
AcDbEntity
100
AcDbBlockEnd
0
ENDSEC
0
SECTION
2
ENTITIES
0
ARC
5
100
100
AcDbEntity
8
0
100
AcDbCircle
10
-350.92847583060404
20
4.6793878276717749
30
-4.1604456342270169e-05
40
0.99999999999990641
210
0
220
-0
230
1
100
AcDbArc
50
4.0299563151072041e-05
51
90.000016508520375
0
LINE
5
101
100
AcDbEntity
8
0
100
AcDbLine
10
-350.92847611873208
20
5.6793878276717535
30
-4.1604456413324442e-05
11
-369.92857122321539
21
5.6793823532125387
31
-4.1604455489618886e-05
0
ARC
5
102
100
AcDbEntity
8
0
100
AcDbCircle
10
-369.92857151134336
20
6.6793823532124819
30
-4.1604455560673159e-05
40
1.000000000000056
210
0
220
0
230
1
100
AcDbArc
50
180.00001651119649
51
270.00001650851709
0
LINE
5
103
100
AcDbEntity
8
0
100
AcDbLine
10
-370.92857151134342
20
6.6793820650844893
30
-4.1604455560673159e-05
11
-370.92857698567911
21
25.679048950373016
31
-4.1604456342270169e-05
0
ARC
5
104
100
AcDbEntity
8
0
100
AcDbCircle
10
-371.92857698567911
20
25.679048662245059
30
-4.1604456342270169e-05
40
1.000000000000056
210
0
220
-0
230
1
100
AcDbArc
50
1.6511196510205472e-05
51
90.000016508520375
0
LINE
5
105
100
AcDbEntity
8
0
100
AcDbLine
10
-371.92857727380715
20
26.679048662245037
30
-4.1604456342270169e-05
11
-507.77257727380209
21
26.679009521786377
31
-4.1604456342270169e-05
0
ARC
5
106
100
AcDbEntity
8
0
100
AcDbCircle
10
-507.77257698567411
20
25.679009521786398
30
-4.1604456342270169e-05
40
1.0000000000000202
210
0
220
0
230
1
100
AcDbArc
50
90.00001650851712
51
180.00001651119649
0
LINE
5
107
100
AcDbEntity
8
0
100
AcDbLine
10
-508.77257698567405
20
25.679009233658405
30
-4.1604456342270169e-05
11
-508.77257151133819
21
6.6793423483698788
31
-4.1604455489618886e-05
0
ARC
5
108
100
AcDbEntity
8
0
100
AcDbCircle
10
-509.77257151133819
20
6.6793420602418863
30
-4.1604455489618886e-05
40
1.0000000000000202
210
0
220
0
230
1
100
AcDbArc
50
-89.99998349148288
51
1.6511196510205472e-05
0
LINE
5
109
100
AcDbEntity
8
0
100
AcDbLine
10
-509.77257122321021
20
5.6793420602419076
30
-4.1604455489618886e-05
11
-578.92857122320788
21
5.6793221344626588
31
-4.1604455489618886e-05
0
ARC
5
110
100
AcDbEntity
8
0
100
AcDbCircle
10
-578.9285715113358
20
6.6793221344626019
30
-4.1604455489618886e-05
40
0.99999999999998479
210
0
220
0
230
1
100
AcDbArc
50
180.00001651119649
51
270.00001650851385
0
LINE
5
111
100
AcDbEntity
8
0
100
AcDbLine
10
-579.9285715113358
20
6.6793218463346093
30
-4.1604455489618886e-05
11
-579.928577016703
21
25.786688731623144
31
-4.1604456342270169e-05
0
ARC
5
112
100
AcDbEntity
8
0
100
AcDbCircle
10
-580.928577016703
20
25.786688443495187
30
-4.1604456342270169e-05
40
1.000000000000056
210
0
220
-0
230
1
100
AcDbArc
50
1.6511196510205472e-05
51
90.000016508513866
0
LINE
5
113
100
AcDbEntity
8
0
100
AcDbLine
10
-580.92857730483092
20
26.786688443495166
30
-4.1604456342270169e-05
11
-615.79092748387734
21
26.786678398676251
31
-4.1604456342270169e-05
0
ARC
5
114
100
AcDbEntity
8
0
100
AcDbCircle
10
-615.79092719574942
20
25.786678398676308
30
-4.1604456342270169e-05
40
0.99999999999998479
210
0
220
0
230
1
100
AcDbArc
50
90.000016508513866
51
180.00001651119649
0
LINE
5
115
100
AcDbEntity
8
0
100
AcDbLine
10
-616.7909271957493
20
25.786678110548316
30
-4.1604456342270169e-05
11
-616.79092207082579
21
7.9997097273837525
31
-4.1604455560673159e-05
0
ARC
5
116
100
AcDbEntity
8
0
100
AcDbCircle
10
-617.79092207082567
20
7.9997094392557599
30
-4.1604455560673159e-05
40
1.0000000000000202
210
0
220
0
230
1
100
AcDbArc
50
-89.999983491486134
51
1.6511196510205472e-05
0
LINE
5
117
100
AcDbEntity
8
0
100
AcDbLine
10
-617.79092178269775
20
6.9997094392557813
30
-4.1604455560673159e-05
11
-646.92785988320963
21
6.9997010440883756
31
-4.1604455560673159e-05
0
ARC
5
118
100
AcDbEntity
8
0
100
AcDbCircle
10
-646.92786017133767
20
7.9997010440883543
30
-4.1604455560673159e-05
40
0.99999999999998479
210
0
220
0
230
1
100
AcDbArc
50
180.00001651119649
51
270.00001650852039
0
LINE
5
119
100
AcDbEntity
8
0
100
AcDbLine
10
-647.92786017133767
20
7.9997007559603617
30
-4.1604455560673159e-05
11
-647.92786529626119
21
25.786669139124925
31
-4.1604456342270169e-05
0
ARC
5
120
100
AcDbEntity
8
0
100
AcDbCircle
10
-648.92786529626107
20
25.786668850996932
30
-4.1604456342270169e-05
40
0.99999999999998479
210
0
220
-0
230
1
100
AcDbArc
50
1.6511196510205472e-05
51
90.000016508513866
0
LINE
5
121
100
AcDbEntity
8
0
100
AcDbLine
10
-648.927865584389
20
26.786668850996911
30
-4.1604456342270169e-05
11
-717.9285773048266
21
26.786648969960503
31
-4.1604456342270169e-05
0
ARC
5
122
100
AcDbEntity
8
0
100
AcDbCircle
10
-717.92857701669857
20
25.786648969960559
30
-4.1604456271215895e-05
40
0.99999999999998479
210
-2.0472730258107648e-20
220
7.1054273576008151e-14
230
1
100
AcDbArc
50
90.000016508520375
51
180.00001651119649
0
LINE
5
123
100
AcDbEntity
8
0
100
AcDbLine
10
-718.92857701669868
20
25.786648681832567
30
-4.1604456271215895e-05
11
-718.92857151133148
21
6.6792817965440321
31
-4.1604455489618886e-05
0
ARC
5
124
100
AcDbEntity
8
0
100
AcDbCircle
10
-719.92857151133137
20
6.6792815084160395
30
-4.1604455489618886e-05
40
1.0000000000000202
210
0
220
0
230
1
100
AcDbArc
50
-89.999983491479625
51
1.6511196510205472e-05
0
LINE
5
125
100
AcDbEntity
8
0
100
AcDbLine
10
-719.92857122320333
20
5.6792815084160608
30
-4.1604455489618886e-05
11
-738.92832428023371
21
5.6792760340554338
31
-4.1604455489618886e-05
0
ARC
5
126
100
AcDbEntity
8
0
100
AcDbCircle
10
-738.92832399210579
20
4.6792760340554551
30
-4.1604455418564612e-05
40
1.0000000000000202
210
-2.0472720160686607e-20
220
7.1054273576005626e-14
230
1
100
AcDbArc
50
90.000016508513866
51
180.00001651119649
0
LINE
5
127
100
AcDbEntity
8
0
100
AcDbLine
10
-739.92832399210567
20
4.6792757459274625
30
-4.1604455418564612e-05
11
-739.9282242998213
21
-341.32072425406307
31
-4.1604441136655623e-05
0
ARC
5
128
100
AcDbEntity
8
0
100
AcDbCircle
10
-738.92822429982118
20
-341.32072396593509
30
-4.1604441136655623e-05
40
1.0000000000001268
210
0
220
0
230
1
100
AcDbArc
50
180.00001651119649
51
270.00001650851385
0
LINE
5
129
100
AcDbEntity
8
0
100
AcDbLine
10
-738.92822401169326
20
-342.32072396593509
30
-4.160444106560135e-05
11
-719.92847095466288
21
-342.32071849157433
31
-4.160444106560135e-05
0
ARC
5
130
100
AcDbEntity
8
0
100
AcDbCircle
10
-719.92847066653496
20
-343.32071849157438
30
-4.160444106560135e-05
40
1.0000000000001268
210
0
220
-0
230
1
100
AcDbArc
50
1.6511196510205472e-05
51
90.000016508513866
0
LINE
5
131
100
AcDbEntity
8
0
100
AcDbLine
10
-718.92847066653485
20
-343.3207182034464
30
-4.160444106560135e-05
11
-718.92846519203147
21
-362.32096704042084
31
-4.160444028400434e-05
0
ARC
5
132
100
AcDbEntity
8
0
100
AcDbCircle
10
-717.92846519203158
20
-362.32096675229286
30
-4.160444028400434e-05
40
0.99999999999998479
210
0
220
0
230
1
100
AcDbArc
50
180.00001651119649
51
270.00001650852687
0
LINE
5
133
100
AcDbEntity
8
0
100
AcDbLine
10
-717.92846490390343
20
-363.3209667522928
30
-4.1604440212950067e-05
11
-371.92846490391531
21
-363.32086706000831
31
-4.1604440212950067e-05
0
ARC
5
134
100
AcDbEntity
8
0
100
AcDbCircle
10
-371.9284651920434
20
-362.32086706000837
30
-4.160444028400434e-05
40
0.99999999999998479
210
-2.0472730258107648e-20
220
7.1054273576008151e-14
230
1
100
AcDbArc
50
-89.999983491476371
51
1.6511196510205472e-05
0
LINE
5
135
100
AcDbEntity
8
0
100
AcDbLine
10
-370.92846519204335
20
-362.32086677188033
30
-4.160444028400434e-05
11
-370.92847066654684
21
-343.32061793490595
31
-4.160444106560135e-05
0
ARC
5
136
100
AcDbEntity
8
0
100
AcDbCircle
10
-369.9284706665469
20
-343.32061764677792
30
-4.160444106560135e-05
40
0.99999999999998479
210
-2.0472730258107648e-20
220
7.1054273576008151e-14
230
1
100
AcDbArc
50
90.000016508520375
51
180.00001651119649
0
LINE
5
137
100
AcDbEntity
8
0
100
AcDbLine
10
-369.92847095467494
20
-342.32061764677792
30
-4.1604441136655623e-05
11
-350.9282321367246
21
-342.32061217227727
31
-4.1604441136655623e-05
0
ARC
5
138
100
AcDbEntity
8
0
100
AcDbCircle
10
-350.92823242485258
20
-341.32061217227727
30
-4.160444206036118e-05
40
0.99999999999998479
210
-2.6614542772217211e-19
220
9.2370555648810601e-13
230
1
100
AcDbArc
50
-89.99998349148288
51
4.0299563151072041e-05
0
LINE
5
139
100
AcDbEntity
8
0
100
AcDbLine
10
-349.92823242485287
20
-341.32061146879238
30
-4.160444206036118e-05
11
-349.92847583060438
21
4.6793885311567607
31
-4.1604456342270169e-05
0
CIRCLE
5
140
100
AcDbEntity
8
0
100
AcDbCircle
10
400.62057410651312
20
15.686373509987988
30
4.1604455895257218e-05
40
2.1000000000000103
210
5.3719355262191617e-22
220
-1.3187938417165465e-15
230
-1
0
CIRCLE
5
141
100
AcDbEntity
8
0
100
AcDbCircle
10
688.62057410650527
20
15.686290529126907
30
4.160445589525717e-05
40
2.1000000000000103
210
5.3719355262191617e-22
220
-1.3187938417165465e-15
230
-1
0
CIRCLE
5
142
100
AcDbEntity
8
0
100
AcDbCircle
10
438.79273954616076
20
-294.76100545421059
30
4.1604443443849773e-05
40
2.6000000000000503
210
5.3719355262191617e-22
220
-1.3187938417165465e-15
230
-1
0
CIRCLE
5
143
100
AcDbEntity
8
0
100
AcDbCircle
10
650.83035786043195
20
-294.76124168420432
30
4.1604444367555526e-05
40
2.6000000000000503
210
5.3719355262191617e-22
220
-1.3187938417165465e-15
230
-1
0
CIRCLE
5
144
100
AcDbEntity
8
0
100
AcDbCircle
10
650.83063614410764
20
-44.976666349736583
30
4.1604453417305279e-05
40
2.5999999999999805
210
5.3719355262191617e-22
220
-1.3187938417165465e-15
230
-1
0
CIRCLE
5
145
100
AcDbEntity
8
0
100
AcDbCircle
10
438.79301782983828
20
-44.976430119742844
30
4.1604453488359356e-05
40
2.5999999999999805
210
5.3719355262191617e-22
220
-1.3187938417165465e-15
230
-1
0
CIRCLE
5
146
100
AcDbEntity
8
0
100
AcDbCircle
10
376.64046458368773
20
-336.93400999585685
30
4.160444440927221e-05
40
1.5500000000000203
210
-4.4907574293180251e-15
220
-1.3187960670819074e-15
230
-1
0
CIRCLE
5
147
100
AcDbEntity
8
0
100
AcDbCircle
10
407.64046122078764
20
-336.91957047371955
30
4.1604444548466632e-05
40
1.5500000000000203
210
-4.4907574293180251e-15
220
-1.3187960670819074e-15
230
-1
0
CIRCLE
5
148
100
AcDbEntity
8
0
100
AcDbCircle
10
407.62602169865136
20
-305.91957383661941
30
4.1604445786496039e-05
40
1.5500000000000602
210
-4.4907574293180243e-15
220
-1.3187960670819072e-15
230
-1
0
CIRCLE
5
149
100
AcDbEntity
8
0
100
AcDbCircle
10
392.1332431468
20
-321.42679191623813
30
4.1604445097884131e-05
40
11.500000000000101
210
-4.4907574293180243e-15
220
-1.3187960670819072e-15
230
-1
0
CIRCLE
5
150
100
AcDbEntity
8
0
100
AcDbCircle
10
376.62602506155139
20
-305.93401335875569
30
4.1604445647301624e-05
40
1.5500000000000203
210
-4.4907574293180251e-15
220
-1.3187960670819074e-15
230
-1
0
CIRCLE
5
151
100
AcDbEntity
8
0
100
AcDbCircle
10
698.21718788016619
20
-321.42694359410882
30
4.1604442413202403e-05
40
11.500000000000101
210
5.3719355262191617e-22
220
-1.3187938417165465e-15
230
-1
0
CIRCLE
5
152
100
AcDbEntity
8
0
100
AcDbCircle
10
529.15228121022506
20
-37.122845023145636
30
4.1604453762219141e-05
40
1.55000000000001
210
5.3719356524360339e-22
220
-1.3187938417162436e-15
230
-1
0
CIRCLE
5
153
100
AcDbEntity
8
0
100
AcDbCircle
10
560.13782539935698
20
-6.1083960702904605
30
4.1604455000294383e-05
40
1.55000000000005
210
5.3719356524360348e-22
220
-1.3187938417162438e-15
230
-1
0
CIRCLE
5
154
100
AcDbEntity
8
0
100
AcDbCircle
10
560.15227778121834
20
-37.108392641284311
30
4.1604453762200059e-05
40
1.55000000000005
210
5.3719356524360348e-22
220
-1.3187938417162438e-15
230
-1
0
CIRCLE
5
155
100
AcDbEntity
8
0
100
AcDbCircle
10
682.70995445149879
20
-336.91970678258474
30
4.1604441794145711e-05
40
1.55000000000002
210
5.3719355262191617e-22
220
-1.3187938417165465e-15
230
-1
0
CIRCLE
5
156
100
AcDbEntity
8
0
100
AcDbCircle
10
713.72442132009564
20
-305.93418040563301
30
4.1604443032259103e-05
40
1.55000000000002
210
5.3719355262191617e-22
220
-1.3187938417165465e-15
230
-1
0
CIRCLE
5
157
100
AcDbEntity
8
0
100
AcDbCircle
10
529.13782882836358
20
-6.1228484521517501
30
4.1604455000313465e-05
40
1.55000000000001
210
5.3719356524360339e-22
220
-1.3187938417162436e-15
230
-1
0
CIRCLE
5
158
100
AcDbEntity
8
0
100
AcDbCircle
10
544.64505330479096
20
-21.615620546718048
30
4.1604454381256765e-05
40
11.500000000000101
210
5.3719356524360339e-22
220
-1.3187938417162436e-15
230
-1
0
CIRCLE
5
159
100
AcDbEntity
8
0
100
AcDbCircle
10
682.72442469732141
20
-305.91971015981028
30
4.1604443032240034e-05
40
1.55000000000006
210
5.3719355262191617e-22
220
-1.3187938417165465e-15
230
-1
0
CIRCLE
5
160
100
AcDbEntity
8
0
100
AcDbCircle
10
713.70995107427291
20
-336.93417702840748
30
4.1604441794164779e-05
40
1.55000000000002
210
5.3719355262191617e-22
220
-1.3187938417165465e-15
230
-1
0
CIRCLE
5
161
100
AcDbEntity
8
0
100
AcDbCircle
10
609.62057410650357
20
15.686313291238108
30
4.1604455895257191e-05
40
2.1000000000000099
210
5.3719355262191627e-22
220
-1.3187938417165467e-15
230
-1
0
CIRCLE
5
162
100
AcDbEntity
8
0
100
AcDbCircle
10
479.620574106508
20
15.686350747876787
30
4.1604455895257204e-05
40
2.1000000000000099
210
5.3719355262191627e-22
220
-1.3187938417165467e-15
230
-1
0
CIRCLE
5
163
100
AcDbEntity
8
0
100
AcDbCircle
10
360.120562437329
20
-24.81361482082729
30
4.1604454243365812e-05
40
2.1000000000000099
210
5.3719355262191627e-22
220
-1.3187938417165467e-15
230
-1
0
CIRCLE
5
164
100
AcDbEntity
8
0
100
AcDbCircle
10
360.12052094689841
20
-168.81361482082377
30
4.160444853576741e-05
40
2.1000000000000298
210
5.3719355262191627e-22
220
-1.3187938417165467e-15
230
-1
0
CIRCLE
5
165
100
AcDbEntity
8
0
100
AcDbCircle
10
360.12047945646782
20
-312.8136148208194
30
4.1604442757114754e-05
40
2.1000000000000099
210
5.3719355262191627e-22
220
-1.3187938417165467e-15
230
-1
0
CIRCLE
5
166
100
AcDbEntity
8
0
100
AcDbCircle
10
688.6204677872729
20
-353.31370947086299
30
4.1604441105223281e-05
40
2.1000000000000099
210
5.3719355262191627e-22
220
-1.3187938417165467e-15
230
-1
0
CIRCLE
5
167
100
AcDbEntity
8
0
100
AcDbCircle
10
400.62046778728291
20
-353.31362649000187
30
4.1604441105223328e-05
40
2.1000000000000099
210
5.3719355262191627e-22
220
-1.3187938417165467e-15
230
-1
0
CIRCLE
5
168
100
AcDbEntity
8
0
100
AcDbCircle
10
544.62046778727756
20
-353.3136679804324
30
4.1604441105223308e-05
40
2.1000000000000099
210
5.3719355262191627e-22
220
-1.3187938417165467e-15
230
-1
0
CIRCLE
5
169
100
AcDbEntity
8
0
100
AcDbCircle
10
729.12047945645509
20
-312.81372114004768
30
4.1604442757114693e-05
40
2.1000000000000099
210
5.3719355262191627e-22
220
-1.3187938417165467e-15
230
-1
0
CIRCLE
5
170
100
AcDbEntity
8
0
100
AcDbCircle
10
729.12052094688556
20
-168.81372114005202
30
4.1604448464713089e-05
40
2.1000000000000298
210
5.3719355262191627e-22
220
-1.3187938417165467e-15
230
-1
0
CIRCLE
5
171
100
AcDbEntity
8
0
100
AcDbCircle
10
729.12056243731627
20
-24.813721140055556
30
4.1604454243365751e-05
40
2.1000000000000099
210
5.3719355262191627e-22
220
-1.3187938417165467e-15
230
-1
0
ENDSEC
0
SECTION
2
OBJECTS
0
DICTIONARY
5
C
100
AcDbDictionary
3
ACAD_GROUP
350
D
3
ACAD_MLINESTYLE
350
17
0
DICTIONARY
5
D
100
AcDbDictionary
0
DICTIONARY
5
1A
330
C
100
AcDbDictionary
0
DICTIONARY
5
17
100
AcDbDictionary
0
ENDSEC
0
EOF
