0
SECTION
2
HEADER
9
$INSUNITS
70
4
9
$ACADVER
1
AC1014
9
$HANDSEED
5
FFFF
0
ENDSEC
0
SECTION
2
TABLES
0
TABLE
2
VPORT
5
8
100
AcDbSymbolTable
0
ENDTAB
0
TABLE
2
LTYPE
5
5
100
AcDbSymbolTable
0
LTYPE
5
14
100
AcDbSymbolTableRecord
100
AcDbLinetypeTableRecord
2
BYBLOCK
70
0
0
LTYPE
5
15
100
AcDbSymbolTableRecord
100
AcDbLinetypeTableRecord
2
BYLAYER
70
0
0
LTYPE
5
16
100
AcDbSymbolTableRecord
100
AcDbLinetypeTableRecord
2
DASHED
70
0
3
Dashed __ __ __ __ __ __ __ __ __ __ __ __ __ _
72
65
73
2
40
0.75
49
0.5
74
0
49
-0.25
74
0
0
ENDTAB
0
TABLE
2
LAYER
5
2
100
AcDbSymbolTable
70
2
0
LAYER
5
50
100
AcDbSymbolTableRecord
100
AcDbLayerTableRecord
2
0
70
0
62
7
6
CONTINUOUS
0
ENDTAB
0
TABLE
2
STYLE
5
3
100
AcDbSymbolTable
70
1
0
STYLE
5
11
100
AcDbSymbolTableRecord
100
AcDbTextStyleTableRecord
2
STANDARD
70
0
0
ENDTAB
0
TABLE
2
VIEW
5
6
100
AcDbSymbolTable
70
0
0
ENDTAB
0
TABLE
2
UCS
5
7
100
AcDbSymbolTable
70
0
0
ENDTAB
0
TABLE
2
APPID
5
9
100
AcDbSymbolTable
70
2
0
APPID
5
12
100
AcDbSymbolTableRecord
100
AcDbRegAppTableRecord
2
ACAD
70
0
0
ENDTAB
0
TABLE
2
DIMSTYLE
5
A
100
AcDbSymbolTable
70
1
0
ENDTAB
0
TABLE
2
BLOCK_RECORD
5
1
100
AcDbSymbolTable
70
1
0
BLOCK_RECORD
5
1F
100
AcDbSymbolTableRecord
100
AcDbBlockTableRecord
2
*MODEL_SPACE
0
BLOCK_RECORD
5
1B
100
AcDbSymbolTableRecord
100
AcDbBlockTableRecord
2
*PAPER_SPACE
0
ENDTAB
0
ENDSEC
0
SECTION
2
BLOCKS
0
BLOCK
5
20
100
AcDbEntity
100
AcDbBlockBegin
2
*MODEL_SPACE
0
ENDBLK
5
21
100
AcDbEntity
100
AcDbBlockEnd
0
BLOCK
5
1C
100
AcDbEntity
100
AcDbBlockBegin
2
*PAPER_SPACE
0
ENDBLK
5
1D
100
AcDbEntity
100
AcDbBlockEnd
0
ENDSEC
0
SECTION
2
ENTITIES
0
CIRCLE
5
100
100
AcDbEntity
8
0
100
AcDbCircle
10
195.10511124247421
20
-438.73632220341023
30
-1.4210854715202004e-13
40
1.9999999999999938
210
3.5992416621613173e-23
220
6.6174449004242214e-24
230
1
0
CIRCLE
5
101
100
AcDbEntity
8
0
100
AcDbCircle
10
120.09926593491024
20
-650.83632220340917
30
0
40
1.999999999999976
210
3.5992416621613173e-23
220
2.8393010357217559e-53
230
1
0
CIRCLE
5
102
100
AcDbEntity
8
0
100
AcDbCircle
10
120.10511124247641
20
-438.73632220340937
30
-1.4210854715202004e-13
40
1.9999999999999938
210
3.5992416621613173e-23
220
6.6174449004242214e-24
230
1
0
CIRCLE
5
103
100
AcDbEntity
8
0
100
AcDbCircle
10
195.10511124247174
20
-650.83632220340996
30
0
40
1.9999999999999938
210
3.5992416621613173e-23
220
6.6174449004242214e-24
230
1
0
LWPOLYLINE
5
104
100
AcDbEntity
8
0
100
AcDbPolyline
90
44
70
1
43
0.0
10
316.82158236923311
20
-734.92841747332523
10
316.8215835170559
20
-730.11409976819573
42
-0.1989124296460148
10
317.407370630684
20
-728.69988600665977
10
321.59308000600004
20
-724.51418063291908
42
-0.19891230511321265
10
323.00729336920909
20
-723.92839487129299
10
344.90739183978758
20
-723.92840009268627
10
347.32160597775498
20
-721.51418710590588
10
347.32161119914861
20
-699.61408863532779
42
-0.19891230511330291
10
347.90739763512465
20
-698.19987555144269
10
352.67890196909684
20
-693.42837120633249
10
358.32103442061106
20
-693.4283725515229
10
358.3210698257592
20
-396.42847668137563
10
352.6789373742447
20
-396.42847668137676
10
347.90743417788804
20
-391.65697119865138
42
-0.198912305113329
10
347.32164807908657
20
-390.2427579751037
10
347.32164807908367
20
-368.3426595045247
10
344.90743451670971
20
-365.92844594215165
10
323.00733604613077
20
-365.92844594215467
42
-0.19891230511322847
10
321.59312282258384
20
-365.34265984335372
10
317.40741444521768
20
-361.15695347166167
42
-0.19891242964607009
10
316.82162766876473
20
-359.74273957046256
10
316.82162766876473
20
-354.92842186533414
10
19.820615265828039
20
-354.92838646005282
10
19.820614118005146
20
-359.74270416518118
42
-0.19891242964601089
10
19.234827004377856
20
-361.15691792671748
10
15.049117629061916
20
-365.3426233004584
42
-0.19891230511337482
10
13.634904265851793
20
-365.92840906208517
10
-8.265194204726285
20
-365.92840384069132
10
-10.67940834269368
20
-368.34261682747115
10
-10.679413564086977
20
-390.24271529805003
42
-0.19891230511331712
10
-11.26520000006359
20
-391.65692838193507
10
-16.036704334035512
20
-396.42843272704516
10
-21.678836785549834
20
-396.42843138185515
10
-21.67887219069798
20
-693.4283272520014
10
-16.036739739183407
20
-693.4283272520006
10
-11.265236542826944
20
-698.19983273472633
42
-0.19891230511328953
10
-10.679450444025138
20
-699.61404595827332
10
-10.67945044402247
20
-721.51414442885221
10
-8.2652368816482316
20
-723.92835799122611
10
13.634861588930418
20
-723.92835799122349
42
-0.1989123051133021
10
15.049074812477812
20
-724.5141440900245
10
19.234783189843817
20
-728.69985046171632
42
-0.19891242964595249
10
19.820569966296485
20
-730.11406436291441
10
19.820569966296475
20
-734.92838206804379
0
LINE
5
105
100
AcDbEntity
8
0
100
AcDbLine
10
205.77744036734484
20
-460.10095657572407
30
0
11
205.7774385792049
21
-475.1009567465801
31
-6.6174449004242214e-23
0
SPLINE
5
106
100
AcDbEntity
8
0
100
AcDbSpline
70
0
71
3
72
14
73
10
74
0
42
0.000000001
43
0.0000000001
44
0.0000000001
40
-6.2831853071795898
40
-6.2831853071795898
40
-6.2831853071795898
40
-6.2831853071795898
40
-5.6224409213448601
40
-5.6224409213448601
40
-4.7943988755201401
40
-4.7943988755201401
40
-3.97095661470606
40
-3.97095661470606
40
-3.14159265358979
40
-3.14159265358979
40
-3.14159265358979
40
-3.14159265358979
10
205.77743857920493
20
-475.1009567465801
30
0
10
205.77743839541591
20
-476.64269364686106
30
-1.4210854715202004e-13
10
205.25035877757588
20
-478.17963367622315
30
0
10
203.11844943697184
20
-480.92234988843506
30
0
10
201.27646821914777
20
-481.9191561111021
30
0
10
197.43595600895668
20
-482.23482365931909
30
-1.4210854715202004e-13
10
195.46703365757665
20
-481.56105372683407
30
0
10
192.62282231248457
20
-478.95655316956311
30
0
10
191.7774383485135
20
-477.03613765358801
30
0
10
191.77743857920447
20
-475.10095507765004
30
-1.4210854715202004e-13
0
LINE
5
107
100
AcDbEntity
8
0
100
AcDbLine
10
191.77743857920447
20
-475.10095507765004
30
-1.4210854715202004e-13
11
191.77744036734447
21
-460.10095490679407
31
-1.4210854708584559e-13
0
SPLINE
5
108
100
AcDbEntity
8
0
100
AcDbSpline
70
0
71
3
72
14
73
10
74
0
42
0.000000001
43
0.0000000001
44
0.0000000001
40
-6.2831853071795898
40
-6.2831853071795898
40
-6.2831853071795898
40
-6.2831853071795898
40
-5.6224409213448503
40
-5.6224409213448503
40
-4.7943988755201401
40
-4.7943988755201401
40
-3.9709566147060502
40
-3.9709566147060502
40
-3.14159265358979
40
-3.14159265358979
40
-3.14159265358979
40
-3.14159265358979
10
191.77744036734441
20
-460.10095490679407
30
0
10
191.77744055113348
20
-458.55921800651299
30
0
10
192.30452016897345
20
-457.02227797715102
30
-1.4210854715202004e-13
10
194.43642950957749
20
-454.2795617649391
30
1.4210854715202004e-13
10
196.27841072740154
20
-453.28275554227105
30
0
10
200.11892293759263
20
-452.96708799405508
30
0
10
202.08784528897272
20
-453.64085792654009
30
0
10
204.93205663406479
20
-456.24535848381106
30
0
10
205.77744059803683
20
-458.1657739997861
30
-1.4210854715202004e-13
10
205.77744036734484
20
-460.10095657572407
30
0
0
LINE
5
109
100
AcDbEntity
8
0
100
AcDbLine
10
205.77742155719449
20
-614.1402174824691
30
-1.4210854715202004e-13
11
205.77742081234067
21
-629.1402179650147
31
-1.4210854721819449e-13
0
SPLINE
5
110
100
AcDbEntity
8
0
100
AcDbSpline
70
0
71
3
72
14
73
10
74
0
42
0.000000001
43
0.0000000001
44
0.0000000001
40
-6.2831853071795898
40
-6.2831853071795898
40
-6.2831853071795898
40
-6.2831853071795898
40
-5.6224409213448601
40
-5.6224409213448601
40
-4.7943988755201401
40
-4.7943988755201401
40
-3.97095661470606
40
-3.97095661470606
40
-3.14159265358979
40
-3.14159265358979
40
-3.14159265358979
40
-3.14159265358979
10
205.77742021629439
20
-629.14021813016211
30
0
10
205.77742003250438
20
-630.68195503044319
30
0
10
205.25034041466537
20
-632.21889505980516
30
0
10
203.11843107406037
20
-634.96161127201708
30
-1.4210854715202004e-13
10
201.27644985623726
20
-635.95841749468514
30
-1.4210854715202004e-13
10
197.43593764604512
20
-636.27408504290111
30
0
10
195.46701529466614
20
-635.6003151104162
30
-1.4210854715202004e-13
10
192.62280394957401
20
-632.99581455314615
30
-1.4210854715202004e-13
10
191.77741998560202
20
-631.07539903717009
30
0
10
191.77742021629396
20
-629.14021646123217
30
0
0
LINE
5
111
100
AcDbEntity
8
0
100
AcDbLine
10
191.77742021629396
20
-629.14021646123217
30
3.6274810259306371e-30
11
191.77742140838689
21
-614.14021645552305
31
6.6174449004242214e-23
0
SPLINE
5
112
100
AcDbEntity
8
0
100
AcDbSpline
70
0
71
3
72
14
73
10
74
0
42
0.000000001
43
0.0000000001
44
0.0000000001
40
-6.2831853071795898
40
-6.2831853071795898
40
-6.2831853071795898
40
-6.2831853071795898
40
-5.6224409213448503
40
-5.6224409213448503
40
-4.7943988755201401
40
-4.7943988755201401
40
-3.9709566147060502
40
-3.9709566147060502
40
-3.1415927217094399
40
-3.1415927217094399
40
-3.1415927217094399
40
-3.1415927217094399
10
191.77742200443291
20
-614.14021629037518
30
-1.4210854715202004e-13
10
191.77742218822291
20
-612.5984793900941
30
-1.4210854715202004e-13
10
192.30450180606294
20
-611.06153936073201
30
0
10
194.43641114666701
20
-608.31882314851998
30
0
10
196.27839236449105
20
-607.32201692585318
30
0
10
200.11890457468212
20
-607.00634937763709
30
-1.4210854715202004e-13
10
202.08782692606221
20
-607.68011931012211
30
0
10
204.93203815393127
20
-610.28461976005019
30
-1.4210854715202004e-13
10
205.7774220962543
20
-612.20503506790214
30
0
10
205.77742200443336
20
-614.1402174824691
30
-1.4210854715202004e-13
0
LINE
5
113
100
AcDbEntity
8
0
100
AcDbLine
10
131.51272724818529
20
-629.65905250519791
30
-1.4210854715202004e-13
11
131.51272903632423
21
-614.65905248008789
31
-1.4210854715202004e-13
0
SPLINE
5
114
100
AcDbEntity
8
0
100
AcDbSpline
70
0
71
3
72
14
73
10
74
0
42
0.000000001
43
0.0000000001
44
0.0000000001
40
-6.2831853071795898
40
-6.2831853071795898
40
-6.2831853071795898
40
-6.2831853071795898
40
-5.6224409213448396
40
-5.6224409213448396
40
-4.7943988755201303
40
-4.7943988755201303
40
-3.9709566147060502
40
-3.9709566147060502
40
-3.14159265358979
40
-3.14159265358979
40
-3.14159265358979
40
-3.14159265358979
10
131.51272903632423
20
-614.65905248008789
30
-1.4210854715202004e-13
10
131.51272922011421
20
-613.1173155798059
30
0
10
132.03980883795322
20
-611.58037555044393
30
0
10
134.17171817855828
20
-608.83765933823179
30
0
10
136.01369939638133
20
-607.84085311556487
30
0
10
139.85421160657341
20
-607.5251855673489
30
-1.4210854715202004e-13
10
141.8231339579535
20
-608.1989554998338
30
0
10
144.66734530304456
20
-610.80345605710386
30
0
10
145.51272926701662
20
-612.7238715730789
30
-1.4210854715202004e-13
10
145.5127290363246
20
-614.65905414901692
30
-1.4210854715202004e-13
0
LINE
5
115
100
AcDbEntity
8
0
100
AcDbLine
10
145.5127290363246
20
-614.65905414901692
30
-1.4210854715202001e-13
11
145.51272724818566
21
-629.65905417412694
31
-1.4210854715202004e-13
0
SPLINE
5
116
100
AcDbEntity
8
0
100
AcDbSpline
70
0
71
3
72
14
73
10
74
0
42
0.000000001
43
0.0000000001
44
0.0000000001
40
-6.2831853071795898
40
-6.2831853071795898
40
-6.2831853071795898
40
-6.2831853071795898
40
-5.6224409213448503
40
-5.6224409213448503
40
-4.7943988755201401
40
-4.7943988755201401
40
-3.9709566147060502
40
-3.9709566147060502
40
-3.14159265358979
40
-3.14159265358979
40
-3.14159265358979
40
-3.14159265358979
10
145.51272724818568
20
-629.65905417412705
30
0
10
145.51272706439667
20
-631.2007910744079
30
0
10
144.98564744655667
20
-632.73773110376987
30
-1.4210854715202004e-13
10
142.85373810595263
20
-635.48044731598202
30
-1.4210854715202004e-13
10
141.01175688812856
20
-636.47725353864996
30
-1.4210854715202004e-13
10
137.17124467793644
20
-636.79292108686593
30
-1.4210854715202004e-13
10
135.20232232655741
20
-636.11915115438092
30
0
10
132.3581109814653
20
-633.51465059711086
30
0
10
131.51272701749329
20
-631.59423508113491
30
-1.4210854715202004e-13
10
131.51272724818529
20
-629.65905250519791
30
-1.4210854715202004e-13
0
CIRCLE
5
117
100
AcDbEntity
8
0
100
AcDbCircle
10
44.447267614893121
20
-543.02099325528945
30
1.4210854715202004e-13
40
1.5500000000000203
210
2.0861575408952231e-23
220
-6.6174533835496714e-24
230
1
0
CIRCLE
5
118
100
AcDbEntity
8
0
100
AcDbCircle
10
299.60031898811519
20
-382.06079008646952
30
-1.4210854715202004e-13
40
2.2500000000000302
210
2.0861575408952231e-23
220
-6.6174533835496699e-24
230
1
0
CIRCLE
5
119
100
AcDbEntity
8
0
100
AcDbCircle
10
214.75863979049788
20
-695.98121327030026
30
0
40
2.24999999999996
210
2.086157809986174e-23
220
-8.4831259947231215e-30
230
1
0
CIRCLE
5
120
100
AcDbEntity
8
0
100
AcDbCircle
10
299.60028015818028
20
-707.79588606838865
30
-1.4210854715202004e-13
40
2.24999999999996
210
2.086157809986174e-23
220
-8.4831259947231215e-30
230
1
0
CIRCLE
5
121
100
AcDbEntity
8
0
100
AcDbCircle
10
214.75864286554378
20
-670.18586640985041
30
-1.4210854715202004e-13
40
2.2500000000000999
210
2.086157809986174e-23
220
-8.4831259947231215e-30
230
1
0
CIRCLE
5
122
100
AcDbEntity
8
0
100
AcDbCircle
10
214.7586758036019
20
-393.87544265673421
30
0
40
2.2500000000000302
210
2.0861575408952231e-23
220
-6.6174533835496699e-24
230
1
0
CIRCLE
5
123
100
AcDbEntity
8
0
100
AcDbCircle
10
44.447260784061207
20
-600.32210727353947
30
0
40
1.5500000000000203
210
2.0861575408952231e-23
220
-6.6174533835496714e-24
230
1
0
CIRCLE
5
124
100
AcDbEntity
8
0
100
AcDbCircle
10
129.28890798257197
20
-554.83566605338592
30
0
40
1.5500000000000203
210
2.0861575408952231e-23
220
-6.6174533835496714e-24
230
1
0
CIRCLE
5
125
100
AcDbEntity
8
0
100
AcDbCircle
10
299.60031215729242
20
-439.3619041047196
30
1.4210854715202004e-13
40
2.2500000000000302
210
2.0861575408952231e-23
220
-6.6174533835496699e-24
230
1
0
CIRCLE
5
126
100
AcDbEntity
8
0
100
AcDbCircle
10
299.60029020489401
20
-623.51795892127257
30
0
40
2.2500000000000302
210
2.0861575408952231e-23
220
-6.6174533835496699e-24
230
1
0
CIRCLE
5
127
100
AcDbEntity
8
0
100
AcDbCircle
10
299.60028698900709
20
-650.49477205013864
30
-1.4210854715202004e-13
40
2.2500000000000999
210
2.086157809986174e-23
220
-8.4831259947231215e-30
230
1
0
CIRCLE
5
128
100
AcDbEntity
8
0
100
AcDbCircle
10
299.60030894140652
20
-466.3387172335855
30
-1.4210854715202004e-13
40
2.2500000000000302
210
2.0861575408952231e-23
220
-6.6174533835496699e-24
230
1
0
CIRCLE
5
129
100
AcDbEntity
8
0
100
AcDbCircle
10
214.758672728558
20
-419.67078951718321
30
0
40
2.2500000000000302
210
2.0861575408952231e-23
220
-6.6174533835496699e-24
230
1
0
CIRCLE
5
130
100
AcDbEntity
8
0
100
AcDbCircle
10
129.28890490752406
20
-580.63101291383475
30
0
40
1.5500000000000203
210
2.0861575408952231e-23
220
-6.6174533835496714e-24
230
1
0
CIRCLE
5
131
100
AcDbEntity
8
0
100
AcDbCircle
10
44.447257568171594
20
-627.29892040240543
30
0
40
1.5500000000000203
210
2.0861575408952231e-23
220
-6.6174533835496714e-24
230
1
0
CIRCLE
5
132
100
AcDbEntity
8
0
100
AcDbCircle
10
136.22050337436656
20
-359.92869365985473
30
0
40
2.1000000000000103
210
9.8185109116851625e-24
220
9.0947301976528852e-41
230
1
0
CIRCLE
5
133
100
AcDbEntity
8
0
100
AcDbCircle
10
-16.679739226665266
20
-462.02837543590414
30
0
40
2.0999999999999903
210
9.8185109116845983e-24
220
9.094730197635323e-41
230
1
0
CIRCLE
5
134
100
AcDbEntity
8
0
100
AcDbCircle
10
-16.672282655343992
20
-674.42832725200333
30
0
40
2.1000000000000005
210
9.8185109116845277e-24
220
9.0947301976352577e-41
230
1
0
CIRCLE
5
135
100
AcDbEntity
8
0
100
AcDbCircle
10
200.42047669380355
20
-729.92119490353934
30
0
40
2.1000000000000103
210
9.8185109116851625e-24
220
9.0947301976528852e-41
230
1
0
CIRCLE
5
136
100
AcDbEntity
8
0
100
AcDbCircle
10
353.32080702683857
20
-626.82828185222786
30
-1.4210854715202004e-13
40
2.1000000000000103
210
9.8185109116851625e-24
220
9.0947301976528852e-41
230
1
0
CIRCLE
5
137
100
AcDbEntity
8
0
100
AcDbCircle
10
353.31335045549088
20
-414.42833003612782
30
0
40
2.1000000000000103
210
9.8185109116851625e-24
220
9.0947301976528852e-41
230
1
0
CIRCLE
5
138
100
AcDbEntity
8
0
100
AcDbCircle
10
353.32080702685698
20
-461.92838576477175
30
-1.4210854715202004e-13
40
2.1000000000000103
210
9.8185109116851625e-24
220
9.0947301976528852e-41
230
1
0
CIRCLE
5
139
100
AcDbEntity
8
0
100
AcDbCircle
10
353.31335045546177
20
-674.3283375808719
30
0
40
2.1000000000000103
210
9.8185109116851625e-24
220
9.0947301976528852e-41
230
1
0
CIRCLE
5
140
100
AcDbEntity
8
0
100
AcDbCircle
10
135.32048003167768
20
-729.921194903534
30
0
40
2.0999999999999903
210
9.818510911685186e-24
220
9.0947301976544564e-41
230
1
0
CIRCLE
5
141
100
AcDbEntity
8
0
100
AcDbCircle
10
-16.679739226704339
20
-626.92827152335906
30
0
40
2.0999999999999903
210
9.8185109116845983e-24
220
9.094730197635323e-41
230
1
0
CIRCLE
5
142
100
AcDbEntity
8
0
100
AcDbCircle
10
-16.672282655282519
20
-414.5283197072601
30
1.4210854715202004e-13
40
2.1000000000000005
210
9.8185109116845277e-24
220
9.0947301976352577e-41
230
1
0
CIRCLE
5
143
100
AcDbEntity
8
0
100
AcDbCircle
10
201.32050003649238
20
-359.92869365986201
30
-1.4210854715202004e-13
40
2.1000000000000103
210
9.8185109116851625e-24
220
9.0947301976528852e-41
230
1
0
CIRCLE
5
144
100
AcDbEntity
8
0
100
AcDbCircle
10
86.320548220382136
20
-359.92124178950644
30
0
40
2.0999999999999903
210
9.818510911685186e-24
220
9.0947301976544564e-41
230
1
0
CIRCLE
5
145
100
AcDbEntity
8
0
100
AcDbCircle
10
-16.672287356347709
20
-511.92831970724916
30
1.4210854715202004e-13
40
2.1000000000000005
210
9.8185109116845277e-24
220
9.0947301976352577e-41
230
1
0
CIRCLE
5
146
100
AcDbEntity
8
0
100
AcDbCircle
10
250.32043184778797
20
-729.92864677388536
30
0
40
2.0999999999999703
210
9.818510911685186e-24
220
9.0947301976536815e-41
230
1
0
CIRCLE
5
147
100
AcDbEntity
8
0
100
AcDbCircle
10
353.31335515651449
20
-576.92833758088284
30
0
40
2.1000000000000103
210
9.8185109116851625e-24
220
9.0947301976528852e-41
230
1
0
CIRCLE
5
148
100
AcDbEntity
8
0
100
AcDbCircle
10
298.72050003648116
20
-359.92869836092547
30
-1.4210854715202004e-13
40
2.1000000000000103
210
9.8185109116855152e-24
220
9.0947301976648296e-41
230
1
0
CIRCLE
5
149
100
AcDbEntity
8
0
100
AcDbCircle
10
353.31335515651426
20
-511.82834091875679
30
0
40
2.1000000000000103
210
9.8185109116851625e-24
220
9.0947301976528852e-41
230
1
0
CIRCLE
5
150
100
AcDbEntity
8
0
100
AcDbCircle
10
297.82048757643133
20
-729.92119020252278
30
0
40
2.1000000000000103
210
9.8185109116851625e-24
220
9.0947301976528852e-41
230
1
0
CIRCLE
5
151
100
AcDbEntity
8
0
100
AcDbCircle
10
-16.6722873563556
20
-577.02831636937515
30
0
40
2.1000000000000103
210
9.8185109116845748e-24
220
9.0947301976345267e-41
230
1
0
CIRCLE
5
152
100
AcDbEntity
8
0
100
AcDbCircle
10
38.820492491738385
20
-359.92869836086726
30
-1.4210854715202004e-13
40
2.1000000000000005
210
9.8185109116845277e-24
220
9.0947301976352577e-41
230
1
0
CIRCLE
5
153
100
AcDbEntity
8
0
100
AcDbCircle
10
251.22044430783779
20
-359.92124178954327
30
0
40
2.0999999999999703
210
9.818510911685186e-24
220
9.0947301976536815e-41
230
1
0
CIRCLE
5
154
100
AcDbEntity
8
0
100
AcDbCircle
10
85.420535760332271
20
-729.92864677385467
30
0
40
2.0999999999999903
210
9.818510911685186e-24
220
9.0947301976544564e-41
230
1
0
CIRCLE
5
155
100
AcDbEntity
8
0
100
AcDbCircle
10
37.920480031688527
20
-729.92119020247458
30
0
40
2.1000000000000005
210
9.8185109116845277e-24
220
9.0947301976352577e-41
230
1
0
ENDSEC
0
SECTION
2
OBJECTS
0
DICTIONARY
5
C
100
AcDbDictionary
3
ACAD_GROUP
350
D
3
ACAD_MLINESTYLE
350
17
0
DICTIONARY
5
D
100
AcDbDictionary
0
DICTIONARY
5
1A
330
C
100
AcDbDictionary
0
DICTIONARY
5
17
100
AcDbDictionary
0
ENDSEC
0
EOF
