0
SECTION
2
HEADER
9
$INSUNITS
70
4
9
$ACADVER
1
AC1014
9
$HANDSEED
5
FFFF
0
ENDSEC
0
SECTION
2
TABLES
0
TABLE
2
VPORT
5
8
100
AcDbSymbolTable
0
ENDTAB
0
TABLE
2
LTYPE
5
5
100
AcDbSymbolTable
0
LTYPE
5
14
100
AcDbSymbolTableRecord
100
AcDbLinetypeTableRecord
2
BYBLOCK
70
0
0
LTYPE
5
15
100
AcDbSymbolTableRecord
100
AcDbLinetypeTableRecord
2
BYLAYER
70
0
0
ENDTAB
0
TABLE
2
LAYER
5
2
100
AcDbSymbolTable
70
2
0
LAYER
5
50
100
AcDbSymbolTableRecord
100
AcDbLayerTableRecord
2
0
70
0
6
CONTINUOUS
0
ENDTAB
0
TABLE
2
STYLE
5
3
100
AcDbSymbolTable
70
1
0
STYLE
5
11
100
AcDbSymbolTableRecord
100
AcDbTextStyleTableRecord
2
STANDARD
70
0
0
ENDTAB
0
TABLE
2
VIEW
5
6
100
AcDbSymbolTable
70
0
0
ENDTAB
0
TABLE
2
UCS
5
7
100
AcDbSymbolTable
70
0
0
ENDTAB
0
TABLE
2
APPID
5
9
100
AcDbSymbolTable
70
2
0
APPID
5
12
100
AcDbSymbolTableRecord
100
AcDbRegAppTableRecord
2
ACAD
70
0
0
ENDTAB
0
TABLE
2
DIMSTYLE
5
A
100
AcDbSymbolTable
70
1
0
ENDTAB
0
TABLE
2
BLOCK_RECORD
5
1
100
AcDbSymbolTable
70
1
0
BLOCK_RECORD
5
1F
100
AcDbSymbolTableRecord
100
AcDbBlockTableRecord
2
*MODEL_SPACE
0
BLOCK_RECORD
5
1B
100
AcDbSymbolTableRecord
100
AcDbBlockTableRecord
2
*PAPER_SPACE
0
ENDTAB
0
ENDSEC
0
SECTION
2
BLOCKS
0
BLOCK
5
20
100
AcDbEntity
100
AcDbBlockBegin
2
*MODEL_SPACE
0
ENDBLK
5
21
100
AcDbEntity
100
AcDbBlockEnd
0
BLOCK
5
1C
100
AcDbEntity
100
AcDbBlockBegin
2
*PAPER_SPACE
0
ENDBLK
5
1D
100
AcDbEntity
100
AcDbBlockEnd
0
ENDSEC
0
SECTION
2
ENTITIES
0
LWPOLYLINE
5
100
100
AcDbEntity
8
0
100
AcDbPolyline
90
44
70
1
43
0.0
10
-316.82158236924278
20
734.92841747332534
10
-316.82158351706556
20
730.11409976819596
42
-0.19891242964600822
10
-317.40737063069366
20
728.69988600665988
10
-321.59308000600987
20
724.51418063291908
42
-0.19891230511321922
10
-323.00729336921893
20
723.92839487129299
10
-344.90739183979804
20
723.92840009268627
10
-347.3216059777655
20
721.5141871059061
10
-347.32161119915901
20
699.61408863532779
42
-0.19891230511329103
10
-347.90739763513506
20
698.19987555144269
10
-352.67890196910753
20
693.4283712063326
10
-358.32103442062191
20
693.42837255152301
10
-358.32106982577
20
396.42847668137551
10
-352.67893737425538
20
396.42847668137654
10
-347.90743417789855
20
391.65697119865126
42
-0.19891230511333557
10
-347.32164807909703
20
390.24275797510359
10
-347.32164807909413
20
368.34265950452448
10
-344.90743451672012
20
365.92844594215143
10
-323.00733604614067
20
365.92844594215444
42
-0.19891230511323771
10
-321.59312282259361
20
365.34265984335354
10
-317.40741444522735
20
361.15695347166144
42
-0.19891242964606351
10
-316.8216276687744
20
359.74273957046239
10
-316.82162766877434
20
354.92842186533403
10
-19.820615265829169
20
354.92838646005276
10
-19.820614118006361
20
359.74270416518101
42
-0.19891242964600453
10
-19.234827004379035
20
361.15691792671731
10
-15.049117629062952
20
365.34262330045817
42
-0.1989123051133784
10
-13.634904265852811
20
365.92840906208494
10
8.2651942047258959
20
365.92840384069115
10
10.679408342693355
20
368.34261682747098
10
10.679413564086673
20
390.24271529804992
42
-0.19891230511331237
10
11.26520000006327
20
391.6569283819349
10
16.036704334035342
20
396.42843272704505
10
21.678836785549827
20
396.42843138185498
10
21.678872190697973
20
693.4283272520014
10
16.036739739183233
20
693.4283272520006
10
11.26523654282666
20
698.19983273472633
42
-0.19891230511326852
10
10.679450444024814
20
699.61404595827332
10
10.679450444022144
20
721.51414442885221
10
8.265236881647839
20
723.92835799122622
10
-13.63486158893144
20
723.92835799122349
42
-0.19891230511329344
10
-15.049074812478869
20
724.5141440900245
10
-19.234783189844958
20
728.69985046171655
42
-0.19891242964589892
10
-19.820569966297679
20
730.11406436291441
10
-19.820569966297668
20
734.92838206804379
0
LINE
5
101
100
AcDbEntity
8
0
100
AcDbLine
10
-205.77744036735129
20
460.10095657572401
30
-2.7593216600507731e-09
11
-205.77743857921138
21
475.10095674658004
31
-2.7594637685979251e-09
0
SPLINE
5
102
100
AcDbEntity
8
0
100
AcDbSpline
70
0
71
3
72
14
73
10
74
0
42
0.000000001
43
0.0000000001
44
0.0000000001
40
-6.2831853071795898
40
-6.2831853071795898
40
-6.2831853071795898
40
-6.2831853071795898
40
-5.6224409213448601
40
-5.6224409213448601
40
-4.7943988755201401
40
-4.7943988755201401
40
-3.97095661470606
40
-3.97095661470606
40
-3.14159265358979
40
-3.14159265358979
40
-3.14159265358979
40
-3.14159265358979
10
-205.77743857921138
20
475.10095674658004
30
-2.7594637685979251e-09
10
-205.77743839542239
20
476.64269364686101
30
-2.7630164822767256e-09
10
-205.25035877758233
20
478.17963367622303
30
-2.765716544672614e-09
10
-203.11844943697824
20
480.92234988843506
30
-2.7644375677482458e-09
10
-201.27646821915417
20
481.9191561111021
30
-2.7569058147491887e-09
10
-197.43595600896296
20
482.23482365931898
30
-2.7633006993710296e-09
10
-195.46703365758282
20
481.56105372683396
30
-2.7625901566352695e-09
10
-192.62282231249065
20
478.95655316956299
30
-2.7580426831264049e-09
10
-191.77743834851955
20
477.03613765358796
30
-2.7651481104840059e-09
10
-191.77743857921058
20
475.10095507764993
30
-2.758753225862165e-09
0
LINE
5
103
100
AcDbEntity
8
0
100
AcDbLine
10
-191.77743857921058
20
475.10095507764993
30
-2.758753225862165e-09
11
-191.77744036735052
21
460.10095490679396
31
-2.758895334409317e-09
0
SPLINE
5
104
100
AcDbEntity
8
0
100
AcDbSpline
70
0
71
3
72
14
73
10
74
0
42
0.000000001
43
0.0000000001
44
0.0000000001
40
-6.2831853071795898
40
-6.2831853071795898
40
-6.2831853071795898
40
-6.2831853071795898
40
-5.6224409213448503
40
-5.6224409213448503
40
-4.7943988755201401
40
-4.7943988755201401
40
-3.9709566147060502
40
-3.9709566147060502
40
-3.14159265358979
40
-3.14159265358979
40
-3.14159265358979
40
-3.14159265358979
10
-191.77744036735052
20
460.10095490679396
30
-2.758895334409317e-09
10
-191.77744055113953
20
458.55921800651294
30
-2.7648638933897018e-09
10
-192.30452016897956
20
457.02227797715096
30
-2.7624480480881175e-09
10
-194.43642950958366
20
454.27956176493899
30
-2.7635849164653337e-09
10
-196.27841072740779
20
453.28275554227099
30
-2.7610269626165973e-09
10
-200.118922937599
20
452.96708799405496
30
-2.7648638933897018e-09
10
-202.08784528897911
20
453.64085792653998
30
-2.765716544672614e-09
10
-204.93205663407127
20
456.245358483811
30
-2.7600322027865332e-09
10
-205.77744059804334
20
458.16577399978604
30
-2.7627322651824215e-09
10
-205.77744036735129
20
460.10095657572401
30
-2.7593216600507731e-09
0
LINE
5
105
100
AcDbEntity
8
0
100
AcDbLine
10
-205.77742155720097
20
614.14021748246921
30
-2.7642954592010938e-09
11
-205.77742081234715
21
629.1402179650147
31
-2.7607427455222933e-09
0
SPLINE
5
106
100
AcDbEntity
8
0
100
AcDbSpline
70
0
71
3
72
14
73
10
74
0
42
0.000000001
43
0.0000000001
44
0.0000000001
40
-6.2831853071795898
40
-6.2831853071795898
40
-6.2831853071795898
40
-6.2831853071795898
40
-5.6224409213448601
40
-5.6224409213448601
40
-4.7943988755201401
40
-4.7943988755201401
40
-3.97095661470606
40
-3.97095661470606
40
-3.14159265358979
40
-3.14159265358979
40
-3.14159265358979
40
-3.14159265358979
10
-205.77742021630087
20
629.14021813016222
30
-2.7574742489377968e-09
10
-205.77742003251089
20
630.68195503044331
30
-2.7615953968052054e-09
10
-205.25034041467183
20
632.21889505980528
30
-2.7638691335596377e-09
10
-203.11843107406676
20
634.96161127201719
30
-2.7627322651824215e-09
10
-201.27644985624363
20
635.95841749468525
30
-2.7652902190311579e-09
10
-197.4359376460514
20
636.27408504290122
30
-2.7614532882580534e-09
10
-195.46701529467231
20
635.6003151104162
30
-2.7606006369751412e-09
10
-192.62280394958012
20
632.99581455314615
30
-2.7563373805605806e-09
10
-191.77741998560808
20
631.07539903717009
30
-2.7637270250124857e-09
10
-191.77742021630007
20
629.14021646123217
30
-2.7570479232963407e-09
0
LINE
5
107
100
AcDbEntity
8
0
100
AcDbLine
10
-191.77742021630007
20
629.14021646123217
30
-2.7570479232963407e-09
11
-191.777421408393
21
614.14021645552305
31
-2.7623059395409655e-09
0
SPLINE
5
108
100
AcDbEntity
8
0
100
AcDbSpline
70
0
71
3
72
14
73
10
74
0
42
0.000000001
43
0.0000000001
44
0.0000000001
40
-6.2831853071795898
40
-6.2831853071795898
40
-6.2831853071795898
40
-6.2831853071795898
40
-5.6224409213448503
40
-5.6224409213448503
40
-4.7943988755201401
40
-4.7943988755201401
40
-3.9709566147060502
40
-3.9709566147060502
40
-3.1415927217094399
40
-3.1415927217094399
40
-3.1415927217094399
40
-3.1415927217094399
10
-191.77742200443902
20
614.14021629037518
30
-2.7570479232963407e-09
10
-191.77742218822902
20
612.5984793900941
30
-2.7633006993710296e-09
10
-192.30450180606906
20
611.06153936073213
30
-2.7607427455222933e-09
10
-194.43641114667318
20
608.3188231485201
30
-2.7618796138995094e-09
10
-196.27839236449731
20
607.32201692585318
30
-2.7593216600507731e-09
10
-200.11890457468849
20
607.00634937763709
30
-2.7631585908238776e-09
10
-202.0878269260686
20
607.68011931012222
30
-2.7640112421067897e-09
10
-204.93203815393775
20
610.2846197600503
30
-2.7583269002207089e-09
10
-205.77742209626081
20
612.20503506790226
30
-2.7611690711637493e-09
10
-205.77742200443981
20
614.14021748246921
30
-2.7576163574849488e-09
0
LINE
5
109
100
AcDbEntity
8
0
100
AcDbLine
10
-131.51272724818966
20
629.65905250519791
30
-2.7644375677482458e-09
11
-131.51272903632861
21
614.65905248008789
31
-2.7642954592010938e-09
0
SPLINE
5
110
100
AcDbEntity
8
0
100
AcDbSpline
70
0
71
3
72
14
73
10
74
0
42
0.000000001
43
0.0000000001
44
0.0000000001
40
-6.2831853071795898
40
-6.2831853071795898
40
-6.2831853071795898
40
-6.2831853071795898
40
-5.6224409213448396
40
-5.6224409213448396
40
-4.7943988755201303
40
-4.7943988755201303
40
-3.9709566147060502
40
-3.9709566147060502
40
-3.14159265358979
40
-3.14159265358979
40
-3.14159265358979
40
-3.14159265358979
10
-131.51272903632861
20
614.65905248008789
30
-2.7642954592010938e-09
10
-131.51272922011859
20
613.1173155798059
30
-2.7603164198808372e-09
10
-132.03980883795762
20
611.58037555044393
30
-2.7579005745792529e-09
10
-134.17171817856274
20
608.83765933823179
30
-2.759037442956469e-09
10
-136.01369939638585
20
607.84085311556487
30
-2.7566215976548847e-09
10
-139.85421160657805
20
607.5251855673489
30
-2.7604585284279892e-09
10
-141.82313395795816
20
608.19895549983391
30
-2.7613111797109013e-09
10
-144.66734530304933
20
610.80345605710386
30
-2.7655744361254619e-09
10
-145.5127292670214
20
612.72387157307901
30
-2.7583269002207089e-09
10
-145.5127290363294
20
614.65905414901704
30
-2.7648638933897018e-09
0
LINE
5
111
100
AcDbEntity
8
0
100
AcDbLine
10
-145.5127290363294
20
614.65905414901704
30
-2.7648638933897018e-09
11
-145.51272724819046
21
629.65905417412705
31
-2.7647217848425498e-09
0
SPLINE
5
112
100
AcDbEntity
8
0
100
AcDbSpline
70
0
71
3
72
14
73
10
74
0
42
0.000000001
43
0.0000000001
44
0.0000000001
40
-6.2831853071795898
40
-6.2831853071795898
40
-6.2831853071795898
40
-6.2831853071795898
40
-5.6224409213448503
40
-5.6224409213448503
40
-4.7943988755201401
40
-4.7943988755201401
40
-3.9709566147060502
40
-3.9709566147060502
40
-3.14159265358979
40
-3.14159265358979
40
-3.14159265358979
40
-3.14159265358979
10
-145.51272724819046
20
629.65905417412705
30
-2.7647217848425498e-09
10
-145.51272706440145
20
631.2007910744079
30
-2.758611117315013e-09
10
-144.98564744656142
20
632.73773110376987
30
-2.7611690711637493e-09
10
-142.85373810595732
20
635.48044731598202
30
-2.7600322027865332e-09
10
-141.01175688813322
20
636.47725353864996
30
-2.7625901566352695e-09
10
-137.17124467794099
20
636.79292108686593
30
-2.758753225862165e-09
10
-135.2023223265619
20
636.11915115438092
30
-2.7579005745792529e-09
10
-132.35811098146971
20
633.51465059711086
30
-2.7635849164653337e-09
10
-131.51272701749767
20
631.59423508113491
30
-2.7607427455222933e-09
10
-131.51272724818966
20
629.65905250519791
30
-2.7644375677482458e-09
0
CIRCLE
5
113
100
AcDbEntity
8
0
100
AcDbCircle
10
-44.447267614895011
20
543.02099325528945
30
-2.7691271498042624e-09
40
1.5500000000000203
210
5.3615554853300692e-15
220
-4.5797157031228986e-16
230
1
0
CIRCLE
5
114
100
AcDbEntity
8
0
100
AcDbCircle
10
-299.6003189881244
20
382.0607900864693
30
-2.7667113045026781e-09
40
2.2500000000000302
210
5.3615555117998488e-15
220
-4.5797157692973476e-16
230
1
0
CIRCLE
5
115
100
AcDbEntity
8
0
100
AcDbCircle
10
-214.75863979050462
20
695.98121327030026
30
-2.7614532882580534e-09
40
2.24999999999996
210
5.3615554588602896e-15
220
-4.5797157692973476e-16
230
1
0
CIRCLE
5
116
100
AcDbEntity
8
0
100
AcDbCircle
10
-299.60028015818943
20
707.79588606838865
30
-2.7671376301441342e-09
40
2.24999999999996
210
5.3615554588602896e-15
220
-4.5797157692973476e-16
230
1
0
CIRCLE
5
117
100
AcDbEntity
8
0
100
AcDbCircle
10
-214.75864286555051
20
670.18586640985041
30
-2.7665691959555261e-09
40
2.2500000000000999
210
5.3615555117998488e-15
220
-4.5797157692973476e-16
230
1
0
CIRCLE
5
118
100
AcDbEntity
8
0
100
AcDbCircle
10
-214.75867580360864
20
393.87544265673398
30
-2.7633006993710296e-09
40
2.2500000000000302
210
5.3615555117998488e-15
220
-4.5797157692973476e-16
230
1
0
CIRCLE
5
119
100
AcDbEntity
8
0
100
AcDbCircle
10
-44.447260784063111
20
600.32210727353959
30
-2.7668534130498301e-09
40
1.5500000000000203
210
5.3615554853300692e-15
220
-4.5797157031228986e-16
230
1
0
CIRCLE
5
120
100
AcDbEntity
8
0
100
AcDbCircle
10
-129.28890798257629
20
554.83566605338581
30
-2.7648638933897018e-09
40
1.5500000000000203
210
5.3615554853300692e-15
220
-4.5797157031228986e-16
230
1
0
CIRCLE
5
121
100
AcDbEntity
8
0
100
AcDbCircle
10
-299.60031215730163
20
439.36190410471937
30
-2.7648638933897018e-09
40
2.2500000000000302
210
5.3615555117998488e-15
220
-4.5797157692973476e-16
230
1
0
CIRCLE
5
122
100
AcDbEntity
8
0
100
AcDbCircle
10
-299.60029020490316
20
623.51795892127268
30
-2.7625901566352695e-09
40
2.2500000000000302
210
5.3615555117998488e-15
220
-4.5797157692973476e-16
230
1
0
CIRCLE
5
123
100
AcDbEntity
8
0
100
AcDbCircle
10
-299.6002869890163
20
650.49477205013875
30
-2.7593216600507731e-09
40
2.2500000000000999
210
5.3615555117998488e-15
220
-4.5797157692973476e-16
230
1
0
CIRCLE
5
124
100
AcDbEntity
8
0
100
AcDbCircle
10
-299.60030894141573
20
466.33871723358544
30
-2.7615953968052054e-09
40
2.2500000000000302
210
5.3615555117998488e-15
220
-4.5797157692973476e-16
230
1
0
CIRCLE
5
125
100
AcDbEntity
8
0
100
AcDbCircle
10
-214.75867272856476
20
419.67078951718304
30
-2.7684166070685023e-09
40
2.2500000000000302
210
5.3615555117998488e-15
220
-4.5797157692973476e-16
230
1
0
CIRCLE
5
126
100
AcDbEntity
8
0
100
AcDbCircle
10
-129.28890490752838
20
580.63101291383487
30
-2.7597479856922291e-09
40
1.5500000000000203
210
5.3615554853300692e-15
220
-4.5797157031228986e-16
230
1
0
CIRCLE
5
127
100
AcDbEntity
8
0
100
AcDbCircle
10
-44.447257568173491
20
627.29892040240554
30
-2.7635849164653337e-09
40
1.5500000000000203
210
5.3615554853300692e-15
220
-4.5797157031228986e-16
230
1
0
CIRCLE
5
128
100
AcDbEntity
8
0
100
AcDbCircle
10
-136.22050337437105
20
359.92869365985456
30
-2.7573321403906448e-09
40
2.1000000000000103
210
5.3615555117998488e-15
220
-4.5797157692973476e-16
230
1
0
CIRCLE
5
129
100
AcDbEntity
8
0
100
AcDbCircle
10
16.679739226665113
20
462.02837543590408
30
-2.7486635190143716e-09
40
2.0999999999999903
210
5.3615555117998488e-15
220
-4.5797157692973476e-16
230
1
0
CIRCLE
5
130
100
AcDbEntity
8
0
100
AcDbCircle
10
16.672282655343839
20
674.42832725200333
30
-2.7461055651656352e-09
40
2.1000000000000005
210
5.3615554853300692e-15
220
-4.5797157692973476e-16
230
1
0
CIRCLE
5
131
100
AcDbEntity
8
0
100
AcDbCircle
10
-200.42047669380989
20
729.92119490353934
30
-2.7635849164653337e-09
40
2.1000000000000103
210
5.3615555117998488e-15
220
-4.5797157692973476e-16
230
1
0
CIRCLE
5
132
100
AcDbEntity
8
0
100
AcDbCircle
10
-353.32080702684925
20
626.82828185222786
30
-2.7772273369919276e-09
40
2.1000000000000103
210
5.3615555117998488e-15
220
-4.5797157692973476e-16
230
1
0
CIRCLE
5
133
100
AcDbEntity
8
0
100
AcDbCircle
10
-353.31335045550162
20
414.42833003612759
30
-2.7797852908406639e-09
40
2.1000000000000103
210
5.3615555117998488e-15
220
-4.5797157692973476e-16
230
1
0
CIRCLE
5
134
100
AcDbEntity
8
0
100
AcDbCircle
10
-353.32080702686773
20
461.92838576477163
30
-2.7840485472552245e-09
40
2.1000000000000103
210
5.3615555117998488e-15
220
-4.5797157692973476e-16
230
1
0
CIRCLE
5
135
100
AcDbEntity
8
0
100
AcDbCircle
10
-353.31335045547246
20
674.3283375808719
30
-2.7770852284447756e-09
40
2.1000000000000103
210
5.3615555117998488e-15
220
-4.5797157692973476e-16
230
1
0
CIRCLE
5
136
100
AcDbEntity
8
0
100
AcDbCircle
10
-135.32048003168217
20
729.921194903534
30
-2.7594637685979251e-09
40
2.0999999999999903
210
5.3615555117998488e-15
220
-4.5797157692973476e-16
230
1
0
CIRCLE
5
137
100
AcDbEntity
8
0
100
AcDbCircle
10
16.679739226704186
20
626.92827152335917
30
-2.75207412414602e-09
40
2.0999999999999903
210
5.3615555117998488e-15
220
-4.5797157692973476e-16
230
1
0
CIRCLE
5
138
100
AcDbEntity
8
0
100
AcDbCircle
10
16.672282655282363
20
414.52831970725993
30
-2.7489477361086756e-09
40
2.1000000000000005
210
5.3615554853300692e-15
220
-4.5797157692973476e-16
230
1
0
CIRCLE
5
139
100
AcDbEntity
8
0
100
AcDbCircle
10
-201.32050003649877
20
359.92869365986189
30
-2.7714008865586948e-09
40
2.1000000000000103
210
5.3615555117998488e-15
220
-4.5797157692973476e-16
230
1
0
CIRCLE
5
140
100
AcDbEntity
8
0
100
AcDbCircle
10
-86.320548220385234
20
359.92124178950633
30
-2.7596058771450771e-09
40
2.0999999999999903
210
5.3615555117998488e-15
220
-4.5797157692973476e-16
230
1
0
CIRCLE
5
141
100
AcDbEntity
8
0
100
AcDbCircle
10
16.672287356347553
20
511.92831970724916
30
-2.7468161079013953e-09
40
2.1000000000000005
210
5.3615554853300692e-15
220
-4.5797157692973476e-16
230
1
0
CIRCLE
5
142
100
AcDbEntity
8
0
100
AcDbCircle
10
-250.3204318477957
20
729.92864677388548
30
-2.7714008865586948e-09
40
2.0999999999999703
210
5.3615555117998488e-15
220
-4.5797157692973476e-16
230
1
0
CIRCLE
5
143
100
AcDbEntity
8
0
100
AcDbCircle
10
-353.31335515652512
20
576.92833758088295
30
-2.7790747481049038e-09
40
2.1000000000000103
210
5.3615555117998488e-15
220
-4.5797157692973476e-16
230
1
0
CIRCLE
5
144
100
AcDbEntity
8
0
100
AcDbCircle
10
-298.72050003649031
20
359.9286983609253
30
-2.7759483600675594e-09
40
2.1000000000000103
210
5.3615555117998488e-15
220
-4.5797157692973476e-16
230
1
0
CIRCLE
5
145
100
AcDbEntity
8
0
100
AcDbCircle
10
-353.31335515652489
20
511.82834091875679
30
-2.7847590899909846e-09
40
2.1000000000000103
210
5.3615555117998488e-15
220
-4.5797157692973476e-16
230
1
0
CIRCLE
5
146
100
AcDbEntity
8
0
100
AcDbCircle
10
-297.82048757644043
20
729.92119020252278
30
-2.7756641429732554e-09
40
2.1000000000000103
210
5.3615555117998488e-15
220
-4.5797157692973476e-16
230
1
0
CIRCLE
5
147
100
AcDbEntity
8
0
100
AcDbCircle
10
16.672287356355447
20
577.02831636937515
30
-2.7510793643159559e-09
40
2.1000000000000103
210
5.3615555117998488e-15
220
-4.5797157692973476e-16
230
1
0
CIRCLE
5
148
100
AcDbEntity
8
0
100
AcDbCircle
10
-38.820492491740119
20
359.92869836086709
30
-2.7553426207305165e-09
40
2.1000000000000005
210
5.3615554853300692e-15
220
-4.5797157692973476e-16
230
1
0
CIRCLE
5
149
100
AcDbEntity
8
0
100
AcDbCircle
10
-251.22044430784558
20
359.92124178954316
30
-2.7679902814270463e-09
40
2.0999999999999703
210
5.3615555117998488e-15
220
-4.5797157692973476e-16
230
1
0
CIRCLE
5
150
100
AcDbEntity
8
0
100
AcDbCircle
10
-85.420535760335326
20
729.92864677385478
30
-2.7532109925232362e-09
40
2.0999999999999903
210
5.3615555117998488e-15
220
-4.5797157692973476e-16
230
1
0
CIRCLE
5
151
100
AcDbEntity
8
0
100
AcDbCircle
10
-37.920480031690246
20
729.92119020247458
30
-2.7550584036362125e-09
40
2.1000000000000005
210
5.3615554853300692e-15
220
-4.5797157692973476e-16
230
1
0
ENDSEC
0
SECTION
2
OBJECTS
0
DICTIONARY
5
C
100
AcDbDictionary
3
ACAD_GROUP
350
D
3
ACAD_MLINESTYLE
350
17
0
DICTIONARY
5
D
100
AcDbDictionary
0
DICTIONARY
5
1A
330
C
100
AcDbDictionary
0
DICTIONARY
5
17
100
AcDbDictionary
0
ENDSEC
0
EOF
