0
SECTION
2
HEADER
9
$INSUNITS
70
4
9
$ACADVER
1
AC1014
9
$HANDSEED
5
FFFF
0
ENDSEC
0
SECTION
2
TABLES
0
TABLE
2
VPORT
5
8
100
AcDbSymbolTable
0
ENDTAB
0
TABLE
2
LTYPE
5
5
100
AcDbSymbolTable
0
LTYPE
5
14
100
AcDbSymbolTableRecord
100
AcDbLinetypeTableRecord
2
BYBLOCK
70
0
0
LTYPE
5
15
100
AcDbSymbolTableRecord
100
AcDbLinetypeTableRecord
2
BYLAYER
70
0
0
LTYPE
5
16
100
AcDbSymbolTableRecord
100
AcDbLinetypeTableRecord
2
DASHED
70
0
3
Dashed __ __ __ __ __ __ __ __ __ __ __ __ __ _
72
65
73
2
40
0.75
49
0.5
74
0
49
-0.25
74
0
0
ENDTAB
0
TABLE
2
LAYER
5
2
100
AcDbSymbolTable
70
2
0
LAYER
5
50
100
AcDbSymbolTableRecord
100
AcDbLayerTableRecord
2
0
70
0
62
7
6
CONTINUOUS
0
ENDTAB
0
TABLE
2
STYLE
5
3
100
AcDbSymbolTable
70
1
0
STYLE
5
11
100
AcDbSymbolTableRecord
100
AcDbTextStyleTableRecord
2
STANDARD
70
0
0
ENDTAB
0
TABLE
2
VIEW
5
6
100
AcDbSymbolTable
70
0
0
ENDTAB
0
TABLE
2
UCS
5
7
100
AcDbSymbolTable
70
0
0
ENDTAB
0
TABLE
2
APPID
5
9
100
AcDbSymbolTable
70
2
0
APPID
5
12
100
AcDbSymbolTableRecord
100
AcDbRegAppTableRecord
2
ACAD
70
0
0
ENDTAB
0
TABLE
2
DIMSTYLE
5
A
100
AcDbSymbolTable
70
1
0
ENDTAB
0
TABLE
2
BLOCK_RECORD
5
1
100
AcDbSymbolTable
70
1
0
BLOCK_RECORD
5
1F
100
AcDbSymbolTableRecord
100
AcDbBlockTableRecord
2
*MODEL_SPACE
0
BLOCK_RECORD
5
1B
100
AcDbSymbolTableRecord
100
AcDbBlockTableRecord
2
*PAPER_SPACE
0
ENDTAB
0
ENDSEC
0
SECTION
2
BLOCKS
0
BLOCK
5
20
100
AcDbEntity
100
AcDbBlockBegin
2
*MODEL_SPACE
0
ENDBLK
5
21
100
AcDbEntity
100
AcDbBlockEnd
0
BLOCK
5
1C
100
AcDbEntity
100
AcDbBlockBegin
2
*PAPER_SPACE
0
ENDBLK
5
1D
100
AcDbEntity
100
AcDbBlockEnd
0
ENDSEC
0
SECTION
2
ENTITIES
0
CIRCLE
5
100
100
AcDbEntity
8
0
100
AcDbCircle
10
120.10511124247641
20
-438.73632220340937
30
-1.4210854715202004e-13
40
1.9999999999999938
210
3.5992416621613173e-23
220
6.6174449004242214e-24
230
1
0
CIRCLE
5
101
100
AcDbEntity
8
0
100
AcDbCircle
10
120.09926593491024
20
-650.83632220340917
30
0
40
1.999999999999976
210
3.5992416621613173e-23
220
2.8393010357217559e-53
230
1
0
CIRCLE
5
102
100
AcDbEntity
8
0
100
AcDbCircle
10
195.10511124247421
20
-438.73632220341023
30
-1.4210854715202004e-13
40
1.9999999999999938
210
3.5992416621613173e-23
220
6.6174449004242214e-24
230
1
0
CIRCLE
5
103
100
AcDbEntity
8
0
100
AcDbCircle
10
195.10511124247174
20
-650.83632220340996
30
0
40
1.9999999999999938
210
3.5992416621613173e-23
220
6.6174449004242214e-24
230
1
0
LWPOLYLINE
5
104
100
AcDbEntity
8
0
100
AcDbPolyline
90
44
70
1
43
0.0
10
316.82158236923311
20
-734.92841747332523
10
316.8215835170559
20
-730.11409976819573
42
-0.1989124296460148
10
317.407370630684
20
-728.69988600665977
10
321.59308000600004
20
-724.51418063291908
42
-0.19891230511321265
10
323.00729336920909
20
-723.92839487129299
10
344.90739183978758
20
-723.92840009268627
10
347.32160597775498
20
-721.51418710590588
10
347.32161119914861
20
-699.61408863532779
42
-0.19891230511330291
10
347.90739763512465
20
-698.19987555144269
10
352.67890196909684
20
-693.42837120633249
10
358.32103442061106
20
-693.4283725515229
10
358.3210698257592
20
-396.42847668137563
10
352.6789373742447
20
-396.42847668137676
10
347.90743417788804
20
-391.65697119865138
42
-0.198912305113329
10
347.32164807908657
20
-390.2427579751037
10
347.32164807908367
20
-368.3426595045247
10
344.90743451670971
20
-365.92844594215165
10
323.00733604613077
20
-365.92844594215467
42
-0.19891230511322847
10
321.59312282258384
20
-365.34265984335372
10
317.40741444521768
20
-361.15695347166167
42
-0.19891242964607009
10
316.82162766876473
20
-359.74273957046256
10
316.82162766876473
20
-354.92842186533414
10
19.820615265828039
20
-354.92838646005282
10
19.820614118005146
20
-359.74270416518118
42
-0.19891242964601089
10
19.234827004377856
20
-361.15691792671748
10
15.049117629061916
20
-365.3426233004584
42
-0.19891230511337482
10
13.634904265851793
20
-365.92840906208517
10
-8.265194204726285
20
-365.92840384069132
10
-10.67940834269368
20
-368.34261682747115
10
-10.679413564086977
20
-390.24271529805003
42
-0.19891230511331712
10
-11.26520000006359
20
-391.65692838193507
10
-16.036704334035512
20
-396.42843272704516
10
-21.678836785549834
20
-396.42843138185515
10
-21.67887219069798
20
-693.4283272520014
10
-16.036739739183407
20
-693.4283272520006
10
-11.265236542826944
20
-698.19983273472633
42
-0.19891230511328953
10
-10.679450444025138
20
-699.61404595827332
10
-10.67945044402247
20
-721.51414442885221
10
-8.2652368816482316
20
-723.92835799122611
10
13.634861588930418
20
-723.92835799122349
42
-0.1989123051133021
10
15.049074812477812
20
-724.5141440900245
10
19.234783189843817
20
-728.69985046171632
42
-0.19891242964595249
10
19.820569966296485
20
-730.11406436291441
10
19.820569966296475
20
-734.92838206804379
0
ELLIPSE
5
105
100
AcDbEntity
8
0
100
AcDbEllipse
10
22.570402043931143
20
-544.97640669021632
30
0
11
-11.948028449863315
21
1.1156615990842933
31
0.0
40
0.99999970610285704
41
0
42
6.2831853071795862
0
CIRCLE
5
106
100
AcDbEntity
8
0
100
AcDbCircle
10
7.0978323184647127
20
-560.58630112842434
30
0
40
1.5500004555407401
210
6.0742806647147613e-23
220
-1.2318164419986837e-23
230
1
0
CIRCLE
5
107
100
AcDbEntity
8
0
100
AcDbCircle
10
38.097192886478801
20
-560.38585585483042
30
0
40
1.55000045554081
210
6.135804222961983e-23
220
-5.7293813617726251e-24
230
1
0
CIRCLE
5
108
100
AcDbEntity
8
0
100
AcDbCircle
10
6.8973853026598988
20
-529.58694921593531
30
0
40
1.5500004555407401
210
6.0742806647147613e-23
220
-1.2318164419986837e-23
230
1
0
CIRCLE
5
109
100
AcDbEntity
8
0
100
AcDbCircle
10
37.896745870673897
20
-529.38650394234151
30
0
40
1.55000045554081
210
6.135804222961983e-23
220
-5.7293813617726251e-24
230
1
0
CIRCLE
5
110
100
AcDbEntity
8
0
100
AcDbCircle
10
336.70707537948937
20
-713.91859679390495
30
-1.4210854715202004e-13
40
1.5500004555408102
210
-1.1738734497601424e-23
220
-7.7423469766139597e-24
230
1
0
CIRCLE
5
111
100
AcDbEntity
8
0
100
AcDbCircle
10
305.70771485926645
20
-713.71814412948675
30
0
40
1.5500004555407401
210
1.5236561161326164e-23
220
1.4227286517832624e-24
230
1
0
CIRCLE
5
112
100
AcDbEntity
8
0
100
AcDbCircle
10
336.90752978611624
20
-682.9192449292068
30
-1.4210854715202004e-13
40
1.5500004555408102
210
-1.1738734497601424e-23
220
-7.7423469766139597e-24
230
1
0
ELLIPSE
5
113
100
AcDbEntity
8
0
100
AcDbEllipse
10
321.38073908034721
20
-698.32869124769991
30
0
11
-11.948028715857761
21
-1.1156587504487314
31
0.0
40
0.99999970610285682
41
0
42
6.2831853071795862
0
CIRCLE
5
114
100
AcDbEntity
8
0
100
AcDbCircle
10
305.90816926589332
20
-682.7187922647887
30
0
40
1.5500004555407401
210
1.5236561161326164e-23
220
1.4227286517832624e-24
230
1
0
CIRCLE
5
115
100
AcDbEntity
8
0
100
AcDbCircle
10
336.90756268569345
20
-406.93759919831365
30
0
40
1.55000045554081
210
2.8825925879687947e-23
220
-2.6916556733077027e-24
230
1
0
CIRCLE
5
116
100
AcDbEntity
8
0
100
AcDbCircle
10
336.70711566988933
20
-375.93824728582467
30
0
40
1.55000045554081
210
2.8825925879687947e-23
220
-2.6916556733077027e-24
230
1
0
CIRCLE
5
117
100
AcDbEntity
8
0
100
AcDbCircle
10
305.90820211767948
20
-407.13804447190751
30
0
40
1.5500004555407398
210
3.2943915291071941e-24
220
-3.076177912351661e-25
230
1
0
CIRCLE
5
118
100
AcDbEntity
8
0
100
AcDbCircle
10
305.7077551018744
20
-376.13869255941847
30
-1.4210854715202004e-13
40
1.5500004555407398
210
3.2943915291071941e-24
220
-3.076177912351661e-25
230
1
0
ELLIPSE
5
119
100
AcDbEntity
8
0
100
AcDbEllipse
10
321.38077565382378
20
-391.52814917794564
30
0
11
-11.948028449863637
21
1.1156615990808554
31
0.0
40
0.99999970610285704
41
0
42
6.2831853071795862
0
CIRCLE
5
120
100
AcDbEntity
8
0
100
AcDbCircle
10
136.22050337436656
20
-359.92869365985473
30
0
40
2.1000000000000103
210
9.8185109116851625e-24
220
9.0947301976528852e-41
230
1
0
CIRCLE
5
121
100
AcDbEntity
8
0
100
AcDbCircle
10
-16.679739226665266
20
-462.02837543590414
30
0
40
2.0999999999999903
210
9.8185109116845983e-24
220
9.094730197635323e-41
230
1
0
CIRCLE
5
122
100
AcDbEntity
8
0
100
AcDbCircle
10
-16.672282655343992
20
-674.42832725200333
30
0
40
2.1000000000000005
210
9.8185109116845277e-24
220
9.0947301976352577e-41
230
1
0
CIRCLE
5
123
100
AcDbEntity
8
0
100
AcDbCircle
10
200.42047669380355
20
-729.92119490353934
30
0
40
2.1000000000000103
210
9.8185109116851625e-24
220
9.0947301976528852e-41
230
1
0
CIRCLE
5
124
100
AcDbEntity
8
0
100
AcDbCircle
10
353.32080702683857
20
-626.82828185222786
30
-1.4210854715202004e-13
40
2.1000000000000103
210
9.8185109116851625e-24
220
9.0947301976528852e-41
230
1
0
CIRCLE
5
125
100
AcDbEntity
8
0
100
AcDbCircle
10
353.31335045549088
20
-414.42833003612782
30
0
40
2.1000000000000103
210
9.8185109116851625e-24
220
9.0947301976528852e-41
230
1
0
CIRCLE
5
126
100
AcDbEntity
8
0
100
AcDbCircle
10
353.32080702685698
20
-461.92838576477175
30
-1.4210854715202004e-13
40
2.1000000000000103
210
9.8185109116851625e-24
220
9.0947301976528852e-41
230
1
0
CIRCLE
5
127
100
AcDbEntity
8
0
100
AcDbCircle
10
353.31335045546177
20
-674.3283375808719
30
0
40
2.1000000000000103
210
9.8185109116851625e-24
220
9.0947301976528852e-41
230
1
0
CIRCLE
5
128
100
AcDbEntity
8
0
100
AcDbCircle
10
135.32048003167768
20
-729.921194903534
30
0
40
2.0999999999999903
210
9.818510911685186e-24
220
9.0947301976544564e-41
230
1
0
CIRCLE
5
129
100
AcDbEntity
8
0
100
AcDbCircle
10
-16.679739226704339
20
-626.92827152335906
30
0
40
2.0999999999999903
210
9.8185109116845983e-24
220
9.094730197635323e-41
230
1
0
CIRCLE
5
130
100
AcDbEntity
8
0
100
AcDbCircle
10
-16.672282655282519
20
-414.5283197072601
30
1.4210854715202004e-13
40
2.1000000000000005
210
9.8185109116845277e-24
220
9.0947301976352577e-41
230
1
0
CIRCLE
5
131
100
AcDbEntity
8
0
100
AcDbCircle
10
201.32050003649238
20
-359.92869365986201
30
-1.4210854715202004e-13
40
2.1000000000000103
210
9.8185109116851625e-24
220
9.0947301976528852e-41
230
1
0
CIRCLE
5
132
100
AcDbEntity
8
0
100
AcDbCircle
10
86.320548220382136
20
-359.92124178950644
30
0
40
2.0999999999999903
210
9.818510911685186e-24
220
9.0947301976544564e-41
230
1
0
CIRCLE
5
133
100
AcDbEntity
8
0
100
AcDbCircle
10
-16.672287356347709
20
-511.92831970724916
30
1.4210854715202004e-13
40
2.1000000000000005
210
9.8185109116845277e-24
220
9.0947301976352577e-41
230
1
0
CIRCLE
5
134
100
AcDbEntity
8
0
100
AcDbCircle
10
250.32043184778797
20
-729.92864677388536
30
0
40
2.0999999999999703
210
9.818510911685186e-24
220
9.0947301976536815e-41
230
1
0
CIRCLE
5
135
100
AcDbEntity
8
0
100
AcDbCircle
10
353.31335515651449
20
-576.92833758088284
30
0
40
2.1000000000000103
210
9.8185109116851625e-24
220
9.0947301976528852e-41
230
1
0
CIRCLE
5
136
100
AcDbEntity
8
0
100
AcDbCircle
10
298.72050003648116
20
-359.92869836092547
30
-1.4210854715202004e-13
40
2.1000000000000103
210
9.8185109116855152e-24
220
9.0947301976648296e-41
230
1
0
CIRCLE
5
137
100
AcDbEntity
8
0
100
AcDbCircle
10
353.31335515651426
20
-511.82834091875679
30
0
40
2.1000000000000103
210
9.8185109116851625e-24
220
9.0947301976528852e-41
230
1
0
CIRCLE
5
138
100
AcDbEntity
8
0
100
AcDbCircle
10
297.82048757643133
20
-729.92119020252278
30
0
40
2.1000000000000103
210
9.8185109116851625e-24
220
9.0947301976528852e-41
230
1
0
CIRCLE
5
139
100
AcDbEntity
8
0
100
AcDbCircle
10
-16.6722873563556
20
-577.02831636937515
30
0
40
2.1000000000000103
210
9.8185109116845748e-24
220
9.0947301976345267e-41
230
1
0
CIRCLE
5
140
100
AcDbEntity
8
0
100
AcDbCircle
10
38.820492491738385
20
-359.92869836086726
30
-1.4210854715202004e-13
40
2.1000000000000005
210
9.8185109116845277e-24
220
9.0947301976352577e-41
230
1
0
CIRCLE
5
141
100
AcDbEntity
8
0
100
AcDbCircle
10
251.22044430783779
20
-359.92124178954327
30
0
40
2.0999999999999703
210
9.818510911685186e-24
220
9.0947301976536815e-41
230
1
0
CIRCLE
5
142
100
AcDbEntity
8
0
100
AcDbCircle
10
85.420535760332271
20
-729.92864677385467
30
0
40
2.0999999999999903
210
9.818510911685186e-24
220
9.0947301976544564e-41
230
1
0
CIRCLE
5
143
100
AcDbEntity
8
0
100
AcDbCircle
10
37.920480031688527
20
-729.92119020247458
30
0
40
2.1000000000000005
210
9.8185109116845277e-24
220
9.0947301976352577e-41
230
1
0
ENDSEC
0
SECTION
2
OBJECTS
0
DICTIONARY
5
C
100
AcDbDictionary
3
ACAD_GROUP
350
D
3
ACAD_MLINESTYLE
350
17
0
DICTIONARY
5
D
100
AcDbDictionary
0
DICTIONARY
5
1A
330
C
100
AcDbDictionary
0
DICTIONARY
5
17
100
AcDbDictionary
0
ENDSEC
0
EOF
