0
SECTION
2
HEADER
9
$INSUNITS
70
4
9
$ACADVER
1
AC1014
9
$HANDSEED
5
FFFF
0
ENDSEC
0
SECTION
2
TABLES
0
TABLE
2
VPORT
5
8
100
AcDbSymbolTable
0
ENDTAB
0
TABLE
2
LTYPE
5
5
100
AcDbSymbolTable
0
LTYPE
5
14
100
AcDbSymbolTableRecord
100
AcDbLinetypeTableRecord
2
BYBLOCK
70
0
0
LTYPE
5
15
100
AcDbSymbolTableRecord
100
AcDbLinetypeTableRecord
2
BYLAYER
70
0
0
ENDTAB
0
TABLE
2
LAYER
5
2
100
AcDbSymbolTable
70
2
0
LAYER
5
50
100
AcDbSymbolTableRecord
100
AcDbLayerTableRecord
2
0
70
0
6
CONTINUOUS
0
ENDTAB
0
TABLE
2
STYLE
5
3
100
AcDbSymbolTable
70
1
0
STYLE
5
11
100
AcDbSymbolTableRecord
100
AcDbTextStyleTableRecord
2
STANDARD
70
0
0
ENDTAB
0
TABLE
2
VIEW
5
6
100
AcDbSymbolTable
70
0
0
ENDTAB
0
TABLE
2
UCS
5
7
100
AcDbSymbolTable
70
0
0
ENDTAB
0
TABLE
2
APPID
5
9
100
AcDbSymbolTable
70
2
0
APPID
5
12
100
AcDbSymbolTableRecord
100
AcDbRegAppTableRecord
2
ACAD
70
0
0
ENDTAB
0
TABLE
2
DIMSTYLE
5
A
100
AcDbSymbolTable
70
1
0
ENDTAB
0
TABLE
2
BLOCK_RECORD
5
1
100
AcDbSymbolTable
70
1
0
BLOCK_RECORD
5
1F
100
AcDbSymbolTableRecord
100
AcDbBlockTableRecord
2
*MODEL_SPACE
0
BLOCK_RECORD
5
1B
100
AcDbSymbolTableRecord
100
AcDbBlockTableRecord
2
*PAPER_SPACE
0
ENDTAB
0
ENDSEC
0
SECTION
2
BLOCKS
0
BLOCK
5
20
100
AcDbEntity
100
AcDbBlockBegin
2
*MODEL_SPACE
0
ENDBLK
5
21
100
AcDbEntity
100
AcDbBlockEnd
0
BLOCK
5
1C
100
AcDbEntity
100
AcDbBlockBegin
2
*PAPER_SPACE
0
ENDBLK
5
1D
100
AcDbEntity
100
AcDbBlockEnd
0
ENDSEC
0
SECTION
2
ENTITIES
0
LWPOLYLINE
5
100
100
AcDbEntity
8
0
100
AcDbPolyline
90
8
70
1
43
0.0
10
257.81302686600372
20
755.7671932393838
42
0.41421356237306384
10
256.81302686600372
20
754.7671932393838
10
256.8130268659894
20
227.28383546178952
42
0.4142135623730846
10
257.81302686598934
20
226.28383546178952
10
646.81349637530411
20
226.283835461781
42
0.41421356237313667
10
647.81349637530423
20
227.283835461781
10
647.81349637531571
20
754.76719323937527
42
0.41421356237309503
10
646.81349637531582
20
755.76719323937527
0
LWPOLYLINE
5
101
100
AcDbEntity
8
0
100
AcDbPolyline
90
8
70
1
43
0.0
10
459.90859369393087
20
673.04224239709117
42
2.6949367333763674
10
460.19800518270017
20
712.18007784484166
42
-0.21648145948965286
10
457.18559056320112
20
710.81168536881046
10
448.39663909474541
20
710.81168536880341
42
-0.21648145949015227
10
445.38422447523919
20
712.18007784483564
42
2.6949367333769469
10
445.67363596400128
20
673.04224239709129
42
-0.2203551162454182
10
448.72463878200585
20
674.45547186135991
10
456.85759087592612
20
674.4554718613598
42
-0.22035511624542203
0
LWPOLYLINE
5
102
100
AcDbEntity
8
0
100
AcDbPolyline
90
4
70
1
43
0.0
10
315.9799348369861
20
259.88090011172324
42
0.99999999999999989
10
315.97993483698633
20
269.88090011172324
10
285.97993483698633
20
269.88090011172392
42
0.99999999999999989
10
285.9799348369861
20
259.88090011172392
0
LWPOLYLINE
5
103
100
AcDbEntity
8
0
100
AcDbPolyline
90
4
70
1
43
0.0
10
619.66018808463696
20
259.88090011171664
10
589.66018808463696
20
259.88090011171732
42
-0.99999999999999989
10
589.66018808463718
20
269.88090011171732
10
619.66018808463718
20
269.88090011171664
42
-0.99999999999999989
0
LWPOLYLINE
5
104
100
AcDbEntity
8
0
100
AcDbPolyline
90
6
70
1
43
0.0
10
459.04847073434036
20
587.56168355047544
10
446.54810214163496
20
587.56168355047578
42
-0.99999999999999989
10
446.54810214163524
20
600.06168355047578
10
452.75028916333827
20
600.06168355047566
42
-0.0038397253604172971
10
452.84628371264347
20
600.06168355047555
10
459.04847073434064
20
600.06168355047544
42
-0.99999999999999989
0
LWPOLYLINE
5
105
100
AcDbEntity
8
0
100
AcDbPolyline
90
6
70
1
43
0.0
10
362.7982864379897
20
681.65442361105318
10
362.79828643798965
20
679.73069676025625
42
-0.99999999999999989
10
342.79828643798965
20
679.73069676025693
10
342.7982864379897
20
681.35135218696905
42
0.18527184843182762
10
341.5148798506782
20
684.69603952732859
42
-2.215079543101949
10
364.0148798506782
20
684.9233430953916
42
0.1800522904570426
0
LWPOLYLINE
5
106
100
AcDbEntity
8
0
100
AcDbPolyline
90
4
70
1
43
0.0
10
491.5426445007231
20
269.88090011172017
42
0.99999999999999989
10
491.54264450072282
20
259.88090011171994
10
511.54264450072282
20
259.88090011171926
42
0.99999999999999989
10
511.5426445007231
20
269.88090011171954
0
CIRCLE
5
107
100
AcDbEntity
8
0
100
AcDbCircle
10
267.81349637531554
20
491.02551435058643
30
-1.0627818625152941e-08
40
2.1000000000000085
210
-3.8163919303142689e-15
220
1.2748897446260292e-24
230
1
0
CIRCLE
5
108
100
AcDbEntity
8
0
100
AcDbCircle
10
637.81349637531548
20
491.02551435057831
30
-1.0626570734473262e-08
40
2.1000000000000085
210
-3.8163919303142689e-15
220
1.2748897446260292e-24
230
1
0
CIRCLE
5
109
100
AcDbEntity
8
0
100
AcDbCircle
10
537.26444887457114
20
338.15009611070025
30
-1.0624159330063776e-08
40
2.5500000000000078
210
2.585332854743211e-14
220
1.2741901099610915e-24
230
1
0
CIRCLE
5
110
100
AcDbEntity
8
0
100
AcDbCircle
10
363.79422128663515
20
338.15009611070491
30
-1.0619722878857374e-08
40
2.5500000000000256
210
2.4417032517019225e-14
220
1.2742289785535881e-24
230
1
0
CIRCLE
5
111
100
AcDbEntity
8
0
100
AcDbCircle
10
422.05749351555716
20
338.15009611070337
30
-1.0621152846113091e-08
40
2.5499999999999998
210
2.4955643528424057e-14
220
1.2742144028314018e-24
230
1
0
CIRCLE
5
112
100
AcDbEntity
8
0
100
AcDbCircle
10
479.2879862510768
20
338.1500961107019
30
-1.0622596136045104e-08
40
2.5500000000000167
210
2.4417032517019222e-14
220
1.2742289785535881e-24
230
1
0
CIRCLE
5
113
100
AcDbEntity
8
0
100
AcDbCircle
10
607.81349637531025
20
502.67701340041083
30
-1.0627263513640628e-08
40
2.0499999999999829
210
9.9518055651861346e-29
220
1.2748897446260292e-24
230
1
0
CIRCLE
5
114
100
AcDbEntity
8
0
100
AcDbCircle
10
607.81349637530707
20
352.67701340041083
30
-1.0627267954532726e-08
40
2.0499999999999829
210
9.9518055651861346e-29
220
1.2748897446260292e-24
230
1
0
CIRCLE
5
115
100
AcDbEntity
8
0
100
AcDbCircle
10
296.81348502263717
20
502.6770134004193
30
-1.0623892876537866e-08
40
2.0547499999999985
210
-4.2140650949769214e-15
220
1.275003784333724e-24
230
1
0
CIRCLE
5
116
100
AcDbEntity
8
0
100
AcDbCircle
10
296.81348502262671
20
352.6770134004193
30
-1.05986153187132e-08
40
2.0547499999999985
210
-4.2140650949769214e-15
220
1.275003784333724e-24
230
1
0
CIRCLE
5
117
100
AcDbEntity
8
0
100
AcDbCircle
10
397.79446260644562
20
717.26821982534307
30
-1.0624114921142791e-08
40
2.0999999999999996
210
5.5796503789615408e-14
220
1.2736786893154533e-24
230
1
0
CIRCLE
5
118
100
AcDbEntity
8
0
100
AcDbCircle
10
267.81349637531554
20
745.78383546178907
30
-1.0627112523309279e-08
40
2.1000000000000085
210
9.9518055651861346e-29
220
1.2748897446260292e-24
230
1
0
CIRCLE
5
119
100
AcDbEntity
8
0
100
AcDbCircle
10
382.81349637531554
20
745.78383546178657
30
-1.0627161373122362e-08
40
2.1000000000000085
210
9.9518055651861346e-29
220
1.2748897446260292e-24
230
1
0
CIRCLE
5
120
100
AcDbEntity
8
0
100
AcDbCircle
10
267.81349637530667
20
337.78383546178918
30
-1.0627116964201377e-08
40
2.1000000000000085
210
9.9518055651861346e-29
220
1.2748897446260292e-24
230
1
0
CIRCLE
5
121
100
AcDbEntity
8
0
100
AcDbCircle
10
267.81349637530445
20
235.78383546178927
30
-1.0627116964201377e-08
40
2.099999999999973
210
9.9518055651861346e-29
220
1.2748897446260292e-24
230
1
0
CIRCLE
5
122
100
AcDbEntity
8
0
100
AcDbCircle
10
637.81349637530445
20
235.78383546178122
30
-1.0627281277209022e-08
40
2.1000000000000085
210
9.9518055651861346e-29
220
1.2748897446260292e-24
230
1
0
CIRCLE
5
123
100
AcDbEntity
8
0
100
AcDbCircle
10
522.81349637531559
20
745.78383546178361
30
-1.0627223545611741e-08
40
2.0999999999999908
210
9.9518055651861346e-29
220
1.2748897446260292e-24
230
1
0
CIRCLE
5
124
100
AcDbEntity
8
0
100
AcDbCircle
10
637.81349637531559
20
745.783835461781
30
-1.0627276836316923e-08
40
2.1000000000000085
210
9.9518055651861346e-29
220
1.2748897446260292e-24
230
1
0
CIRCLE
5
125
100
AcDbEntity
8
0
100
AcDbCircle
10
267.81349637531332
20
643.78383546178907
30
-1.0627112523309279e-08
40
2.1000000000000085
210
9.9518055651861346e-29
220
1.2748897446260292e-24
230
1
0
CIRCLE
5
126
100
AcDbEntity
8
0
100
AcDbCircle
10
452.15349637530448
20
235.78383546178529
30
-1.062719690025915e-08
40
2.1000000000000241
210
9.9518055651861346e-29
220
1.2748897446260292e-24
230
1
0
CIRCLE
5
127
100
AcDbEntity
8
0
100
AcDbCircle
10
637.81349637530661
20
337.78383546178105
30
-1.0627281277209022e-08
40
2.1000000000000085
210
9.9518055651861346e-29
220
1.2748897446260292e-24
230
1
0
CIRCLE
5
128
100
AcDbEntity
8
0
100
AcDbCircle
10
637.81349637531332
20
643.78383546178111
30
-1.0627276836316923e-08
40
2.1000000000000085
210
9.9518055651861346e-29
220
1.2748897446260292e-24
230
1
0
CIRCLE
5
129
100
AcDbEntity
8
0
100
AcDbCircle
10
507.74440257559519
20
667.455471861359
30
-1.0630274438483411e-08
40
2.0999999999999996
210
5.5796503789615408e-14
220
1.2736786893154533e-24
230
1
0
CIRCLE
5
130
100
AcDbEntity
8
0
100
AcDbCircle
10
507.74440257559627
20
717.26821982534057
30
-1.0630274438483411e-08
40
2.0999999999999996
210
5.5796503789615408e-14
220
1.2736786893154533e-24
230
1
0
CIRCLE
5
131
100
AcDbEntity
8
0
100
AcDbCircle
10
397.79446260644426
20
667.45547186136093
30
-1.0624114921142791e-08
40
2.0999999999999996
210
5.5796503789615408e-14
220
1.2736786893154533e-24
230
1
0
CIRCLE
5
132
100
AcDbEntity
8
0
100
AcDbCircle
10
457.74440257559536
20
667.45547186136014
30
-1.0627481117353454e-08
40
2.0999999999999996
210
5.6113529379329133e-14
220
1.2736718083193704e-24
230
1
0
CIRCLE
5
133
100
AcDbEntity
8
0
100
AcDbCircle
10
447.79446260644909
20
717.26821982534204
30
-1.0626908242272748e-08
40
2.1000000000000001
210
5.6176934497271885e-14
220
1.2736704321201538e-24
230
1
0
CIRCLE
5
134
100
AcDbEntity
8
0
100
AcDbCircle
10
457.74440257559615
20
717.26821982534966
30
-1.0627481117353454e-08
40
2.0999999999999996
210
5.6113529379329133e-14
220
1.2736718083193704e-24
230
1
0
CIRCLE
5
135
100
AcDbEntity
8
0
100
AcDbCircle
10
447.79446260644806
20
667.45547186136025
30
-1.0626908242272748e-08
40
2.1000000000000001
210
5.6176934497271885e-14
220
1.2736704321201538e-24
230
1
0
CIRCLE
5
136
100
AcDbEntity
8
0
100
AcDbCircle
10
535.59241189617603
20
662.01733570629017
30
-1.062722798650384e-08
40
1.6000000000000014
210
9.9518055651861346e-29
220
1.2748897446260292e-24
230
1
0
CIRCLE
5
137
100
AcDbEntity
8
0
100
AcDbCircle
10
597.39451383321818
20
727.44286739051449
30
-1.0627259072748529e-08
40
1.6000000000000014
210
9.9518055651861346e-29
220
1.2748897446260292e-24
230
1
0
CIRCLE
5
138
100
AcDbEntity
8
0
100
AcDbCircle
10
566.49346286469711
20
694.73010154840222
30
-1.0627245750072234e-08
40
20
210
9.9518055651861346e-29
220
1.2748897446260292e-24
230
1
0
ENDSEC
0
SECTION
2
OBJECTS
0
DICTIONARY
5
C
100
AcDbDictionary
3
ACAD_GROUP
350
D
3
ACAD_MLINESTYLE
350
17
0
DICTIONARY
5
D
100
AcDbDictionary
0
DICTIONARY
5
1A
330
C
100
AcDbDictionary
0
DICTIONARY
5
17
100
AcDbDictionary
0
ENDSEC
0
EOF
