<?xml version="1.0" encoding="UTF-8"?>
<svg id="Layer_1" data-name="Layer 1" xmlns="http://www.w3.org/2000/svg" xmlns:xlink="http://www.w3.org/1999/xlink" viewBox="0 0 1024 1024">
  <defs>
    <style>
      .cls-1 {
        fill: none;
      }

      .cls-2 {
        clip-path: url(#clippath);
      }

      .cls-3 {
        fill: #fff;
      }

      .cls-4 {
        fill: #ffce07;
      }
    </style>
    <clipPath id="clippath">
      <rect class="cls-1" x="1.14" y="1.07" width="1022.86" height="1022.93"/>
    </clipPath>
  </defs>
  <g class="cls-2">
    <g>
      <path class="cls-4" d="m299.69,703.68h-112.1l40.19-227.93h157.02c12.45,0,22.62-3.51,31.07-10.73,8.48-7.24,13.64-16.64,15.77-28.76l.02-.12c2.4-11.68.68-20.58-5.28-27.2-6.08-6.75-15.16-10.03-27.77-10.03h-157.3l18.96-107.52h155.49c41.49,0,75.01,14.38,99.61,42.74,24.59,28.36,33.86,65.14,27.56,109.3-5.89,41.65-24.35,75.65-54.87,101.05-30.46,25.35-70.1,38.2-117.82,38.2h-49.23l-21.33,120.99Zm-101.38-9h93.83l21.33-120.99h56.78c45.56,0,83.26-12.15,112.06-36.12,28.74-23.93,46.14-56.02,51.71-95.4,5.92-41.47-2.64-75.84-25.45-102.14-22.82-26.3-54.05-39.64-92.81-39.64h-147.93l-15.78,89.52h146.58c15.09,0,26.68,4.38,34.46,13.01,7.88,8.76,10.37,20.52,7.41,34.97-2.49,14.03-8.81,25.46-18.78,33.98-10.01,8.55-22.43,12.89-36.91,12.89h-149.47l-37.01,209.93Z"/>
      <path class="cls-3" d="m768.96,390.59l17.67-98.36h-262.09l-3.55,20.22c3.03,2.93,5.95,6.01,8.76,9.25,14.2,16.38,24.1,35.4,29.43,56.53,5.2,20.62,6.07,43.47,2.58,67.88-6.58,46.47-27.28,84.48-61.53,113-8.02,6.68-16.6,12.56-25.69,17.68l-22.44,127.72h265.03l17.08-98.95h-159.02l10.6-60.66h141.35l17.67-96.59h-142.53l10.6-57.72h156.08Z"/>
    </g>
  </g>
</svg>