0
SECTION
2
HEADER
9
$INSUNITS
70
4
9
$ACADVER
1
AC1014
9
$HANDSEED
5
FFFF
0
ENDSEC
0
SECTION
2
TABLES
0
TABLE
2
VPORT
5
8
100
AcDbSymbolTable
0
ENDTAB
0
TABLE
2
LTYPE
5
5
100
AcDbSymbolTable
0
LTYPE
5
14
100
AcDbSymbolTableRecord
100
AcDbLinetypeTableRecord
2
BYBLOCK
70
0
0
LTYPE
5
15
100
AcDbSymbolTableRecord
100
AcDbLinetypeTableRecord
2
BYLAYER
70
0
0
ENDTAB
0
TABLE
2
LAYER
5
2
100
AcDbSymbolTable
70
2
0
LAYER
5
50
100
AcDbSymbolTableRecord
100
AcDbLayerTableRecord
2
0
70
0
6
CONTINUOUS
0
ENDTAB
0
TABLE
2
STYLE
5
3
100
AcDbSymbolTable
70
1
0
STYLE
5
11
100
AcDbSymbolTableRecord
100
AcDbTextStyleTableRecord
2
STANDARD
70
0
0
ENDTAB
0
TABLE
2
VIEW
5
6
100
AcDbSymbolTable
70
0
0
ENDTAB
0
TABLE
2
UCS
5
7
100
AcDbSymbolTable
70
0
0
ENDTAB
0
TABLE
2
APPID
5
9
100
AcDbSymbolTable
70
2
0
APPID
5
12
100
AcDbSymbolTableRecord
100
AcDbRegAppTableRecord
2
ACAD
70
0
0
ENDTAB
0
TABLE
2
DIMSTYLE
5
A
100
AcDbSymbolTable
70
1
0
ENDTAB
0
TABLE
2
BLOCK_RECORD
5
1
100
AcDbSymbolTable
70
1
0
BLOCK_RECORD
5
1F
100
AcDbSymbolTableRecord
100
AcDbBlockTableRecord
2
*MODEL_SPACE
0
BLOCK_RECORD
5
1B
100
AcDbSymbolTableRecord
100
AcDbBlockTableRecord
2
*PAPER_SPACE
0
ENDTAB
0
ENDSEC
0
SECTION
2
BLOCKS
0
BLOCK
5
20
100
AcDbEntity
100
AcDbBlockBegin
2
*MODEL_SPACE
0
ENDBLK
5
21
100
AcDbEntity
100
AcDbBlockEnd
0
BLOCK
5
1C
100
AcDbEntity
100
AcDbBlockBegin
2
*PAPER_SPACE
0
ENDBLK
5
1D
100
AcDbEntity
100
AcDbBlockEnd
0
ENDSEC
0
SECTION
2
ENTITIES
0
LWPOLYLINE
5
100
100
AcDbEntity
8
0
100
AcDbPolyline
90
39
70
1
43
0.0
10
-26.186593972787939
20
41.340697631231521
10
-26.186593972788231
20
5.1703474521839521
42
0.41421356237309764
10
-25.186593972788287
20
4.1703474521839343
10
-6.1865939727882235
20
4.1703474521837514
42
-0.41421356237309764
10
-5.1865939727882235
20
3.1703474521837425
10
-5.1865939727887955
20
-64.82965254781621
42
-0.41421356237309209
10
-6.1865939727888
20
-65.829652547816195
10
-25.186593972788849
20
-65.829652547816067
42
0.4142135623730937
10
-26.186593972788849
20
-66.829652547816067
10
-26.186593972789368
20
-103.00000272686364
10
-7.9999924749135332
20
-103.00000272686363
42
-0.4142135623730846
10
-6.9999924749135687
20
-104.00000272686363
10
-6.9999924749135722
20
-133.13694082737669
42
-0.41421356237309731
10
-7.9999924749135767
20
-134.13694082737669
10
-26.186593972789396
20
-134.13694082737669
10
-26.186593972789925
20
-203.82965254781601
42
0.4142135623730625
10
-25.186593972789957
20
-204.82965254781595
10
-6.1865939727899288
20
-204.82965254781615
42
-0.41421356237309503
10
-5.1865939727899288
20
-205.82965254781615
10
-5.1865939727901402
20
-224.82965254781615
42
0.41421356237311474
10
-4.1865939727900505
20
-225.82965254781618
10
341.81340602720991
20
-225.82965254781899
42
0.4142135623730846
10
342.81340602721002
20
-224.82965254781899
10
342.81340602721008
20
-205.82965254781899
42
-0.41421356237309503
10
343.81340602721014
20
-204.82965254781899
10
362.81340602721002
20
-204.82965254781914
42
0.4142135623730846
10
363.81340602721014
20
-203.82965254781911
10
363.81340602721286
20
142.17034745218072
42
0.41421356237310025
10
362.81340602721286
20
143.17034745218075
10
343.81340602721298
20
143.17034745218086
42
-0.4142135623730222
10
342.81340602721292
20
144.17034745218092
10
342.81340602721298
20
163.17034745218086
42
0.41421356237310542
10
341.81340602721309
20
164.17034745218092
10
-4.1865939727868806
20
164.17034745218373
42
0.41421356237310542
10
-5.1865939727869161
20
163.17034745218371
10
-5.1865939727870973
20
144.17034745218376
42
-0.41421356237310053
10
-6.1865939727870947
20
143.17034745218376
10
-25.186593972787144
20
143.1703474521839
42
0.41421356237310542
10
-26.186593972787179
20
142.17034745218388
0
CIRCLE
5
101
100
AcDbEntity
8
0
100
AcDbCircle
10
41.947352426128447
20
-28.941077778605823
30
-2.8421709430404007e-13
40
2.0000000000000062
210
-2.2957909766337074e-28
220
2.7121452355350968e-30
230
1
0
CIRCLE
5
102
100
AcDbEntity
8
0
100
AcDbCircle
10
353.3134060272115
20
-30.829652547819141
30
-1.4210854715202004e-13
40
2.1000000000000081
210
-2.3034738432456033e-28
220
1.8668798790969386e-42
230
1
0
CIRCLE
5
103
100
AcDbEntity
8
0
100
AcDbCircle
10
24.813406027212928
20
153.67034745218345
30
-1.4210854715202004e-13
40
2.1000000000000081
210
-2.3034738432456033e-28
220
1.8668798790969386e-42
230
1
0
CIRCLE
5
104
100
AcDbEntity
8
0
100
AcDbCircle
10
168.81340602721295
20
153.67034745218228
30
-1.4210854715202004e-13
40
2.1000000000000267
210
-2.3034738432456038e-28
220
1.8668798790969389e-42
230
1
0
CIRCLE
5
105
100
AcDbEntity
8
0
100
AcDbCircle
10
-15.686593972787364
20
113.17034745218379
30
-2.8421709430404007e-13
40
1.5999999999999657
210
-2.3034738432456038e-28
220
1.8668798790969389e-42
230
1
0
CIRCLE
5
106
100
AcDbEntity
8
0
100
AcDbCircle
10
353.31340602721269
20
113.17034745218081
30
-2.8421709430404007e-13
40
2.1000000000000081
210
-2.3034738432456033e-28
220
1.8668798790969386e-42
230
1
0
CIRCLE
5
107
100
AcDbEntity
8
0
100
AcDbCircle
10
312.81340602721292
20
153.67034745218112
30
-1.4210854715202004e-13
40
2.1000000000000081
210
-2.3034738432456033e-28
220
1.8668798790969386e-42
230
1
0
CIRCLE
5
108
100
AcDbEntity
8
0
100
AcDbCircle
10
-15.686593972788003
20
34.170347452183833
30
-1.4210854715202004e-13
40
2.1000000000000081
210
-2.3034738432456033e-28
220
1.8668798790969386e-42
230
1
0
CIRCLE
5
109
100
AcDbEntity
8
0
100
AcDbCircle
10
299.63075263703473
20
48.425193761539177
30
-2.8421709430404007e-13
40
1.550000000000008
210
-2.3121245359866406e-28
220
3.3819778798399033e-30
230
1
0
CIRCLE
5
110
100
AcDbEntity
8
0
100
AcDbCircle
10
214.7891108609391
20
95.093111364031842
30
-2.8421709430404007e-13
40
1.5500000000000123
210
-2.3121245359866401e-28
220
3.3819778798398921e-30
230
1
0
CIRCLE
5
111
100
AcDbEntity
8
0
100
AcDbCircle
10
214.78911086093939
20
120.8884582244809
30
-1.4210854715202004e-13
40
1.5500000000000123
210
-2.3121245359866401e-28
220
3.3819778798398921e-30
230
1
0
LWPOLYLINE
5
112
100
AcDbEntity
8
0
100
AcDbPolyline
90
4
70
1
43
0.0
10
203.77751493399342
20
53.689978229401362
10
203.77751493399319
20
38.689978058544703
42
-0.99999999999999989
10
193.77751493399319
20
38.689978058544924
10
193.77751493399342
20
53.689978229401461
42
-0.99999999999999989
0
LWPOLYLINE
5
113
100
AcDbEntity
8
0
100
AcDbPolyline
90
4
70
1
43
0.0
10
80.604008833984565
20
-106.83227827794538
10
80.604008833984523
20
-121.83227827794538
42
-0.99999999999999989
10
70.604008833984551
20
-121.83227827794541
10
70.604008833984565
20
-106.83227827794538
42
-0.99999999999999989
0
LWPOLYLINE
5
114
100
AcDbEntity
8
0
100
AcDbPolyline
90
4
70
1
43
0.0
10
203.77751493399205
20
-100.34928315418063
10
203.77751493399205
20
-115.34928332503723
42
-0.99999999999999989
10
193.77751493399205
20
-115.34928332503719
10
193.77751493399205
20
-100.34928315418055
42
-0.99999999999999989
0
CIRCLE
5
115
100
AcDbEntity
8
0
100
AcDbCircle
10
41.947352426121185
20
-86.242191796855892
30
-1.4210854715202004e-13
40
1.5500000000000123
210
-2.2957907726369086e-28
220
2.7138714889278991e-30
230
1
0
CIRCLE
5
116
100
AcDbEntity
8
0
100
AcDbCircle
10
214.78911086093689
20
-182.54776332011693
30
-2.8421709430404007e-13
40
1.5500000000000123
210
-2.2957907726369086e-28
220
2.7138714889278991e-30
230
1
0
CIRCLE
5
117
100
AcDbEntity
8
0
100
AcDbCircle
10
41.947352426117902
20
-113.21900492572189
30
-1.4210854715202004e-13
40
1.5500000000000123
210
-2.2957907726369086e-28
220
2.7138714889278991e-30
230
1
0
CIRCLE
5
118
100
AcDbEntity
8
0
100
AcDbCircle
10
126.78899420221909
20
-66.551087323240537
30
-1.4210854715202004e-13
40
1.5500000000000211
210
-2.3273641594085504e-28
220
-2.9736337960928493e-30
230
1
0
CIRCLE
5
119
100
AcDbEntity
8
0
100
AcDbCircle
10
126.78899420222226
20
-40.75574046279155
30
-1.4210854715202004e-13
40
1.5500000000000189
210
-2.3110303960588185e-28
220
3.1222155726711759e-30
230
1
0
CIRCLE
5
120
100
AcDbEntity
8
0
100
AcDbCircle
10
214.78911086093703
20
-156.7524164596679
30
-2.8421709430404007e-13
40
1.5500000000000123
210
-2.2957907726369086e-28
220
2.7138714889278991e-30
230
1
0
CIRCLE
5
121
100
AcDbEntity
8
0
100
AcDbCircle
10
299.63075263703342
20
-110.0844988571766
30
-2.8421709430404007e-13
40
1.550000000000008
210
-2.2957907726369091e-28
220
2.7138714889278879e-30
230
1
0
CIRCLE
5
122
100
AcDbEntity
8
0
100
AcDbCircle
10
-15.686593972789069
20
-95.829652547816124
30
-1.4210854715202004e-13
40
2.1000000000000081
210
-2.3034738432456038e-28
220
1.8668798790969395e-42
230
1
0
CIRCLE
5
123
100
AcDbEntity
8
0
100
AcDbCircle
10
312.81340602720996
20
-215.32965254781871
30
-2.8421709430404007e-13
40
2.1000000000000081
210
-2.3034738432456038e-28
220
1.8668798790969395e-42
230
1
0
CIRCLE
5
124
100
AcDbEntity
8
0
100
AcDbCircle
10
353.31340602721025
20
-174.82965254781908
30
-2.8421709430404007e-13
40
2.1000000000000081
210
-2.3034738432456038e-28
220
1.8668798790969395e-42
230
1
0
CIRCLE
5
125
100
AcDbEntity
8
0
100
AcDbCircle
10
-15.686593972789709
20
-174.82965254781612
30
-2.8421709430404007e-13
40
1.5999999999999657
210
-2.3034738432456038e-28
220
1.8668798790969395e-42
230
1
0
CIRCLE
5
126
100
AcDbEntity
8
0
100
AcDbCircle
10
168.81340602720996
20
-215.32965254781755
30
-2.8421709430404007e-13
40
2.1000000000000267
210
-2.3034738432456038e-28
220
1.8668798790969395e-42
230
1
0
CIRCLE
5
127
100
AcDbEntity
8
0
100
AcDbCircle
10
24.813406027209943
20
-215.32965254781635
30
-2.8421709430404007e-13
40
2.1000000000000081
210
-2.3034738432456038e-28
220
1.8668798790969395e-42
230
1
0
ENDSEC
0
SECTION
2
OBJECTS
0
DICTIONARY
5
C
100
AcDbDictionary
3
ACAD_GROUP
350
D
3
ACAD_MLINESTYLE
350
17
0
DICTIONARY
5
D
100
AcDbDictionary
0
DICTIONARY
5
1A
330
C
100
AcDbDictionary
0
DICTIONARY
5
17
100
AcDbDictionary
0
ENDSEC
0
EOF
