0
SECTION
2
HEADER
9
$INSUNITS
70
4
9
$ACADVER
1
AC1014
9
$HANDSEED
5
FFFF
0
ENDSEC
0
SECTION
2
TABLES
0
TABLE
2
VPORT
5
8
100
AcDbSymbolTable
0
ENDTAB
0
TABLE
2
LTYPE
5
5
100
AcDbSymbolTable
0
LTYPE
5
14
100
AcDbSymbolTableRecord
100
AcDbLinetypeTableRecord
2
BYBLOCK
70
0
0
LTYPE
5
15
100
AcDbSymbolTableRecord
100
AcDbLinetypeTableRecord
2
BYLAYER
70
0
0
ENDTAB
0
TABLE
2
LAYER
5
2
100
AcDbSymbolTable
70
2
0
LAYER
5
50
100
AcDbSymbolTableRecord
100
AcDbLayerTableRecord
2
0
70
0
6
CONTINUOUS
0
ENDTAB
0
TABLE
2
STYLE
5
3
100
AcDbSymbolTable
70
1
0
STYLE
5
11
100
AcDbSymbolTableRecord
100
AcDbTextStyleTableRecord
2
STANDARD
70
0
0
ENDTAB
0
TABLE
2
VIEW
5
6
100
AcDbSymbolTable
70
0
0
ENDTAB
0
TABLE
2
UCS
5
7
100
AcDbSymbolTable
70
0
0
ENDTAB
0
TABLE
2
APPID
5
9
100
AcDbSymbolTable
70
2
0
APPID
5
12
100
AcDbSymbolTableRecord
100
AcDbRegAppTableRecord
2
ACAD
70
0
0
ENDTAB
0
TABLE
2
DIMSTYLE
5
A
100
AcDbSymbolTable
70
1
0
ENDTAB
0
TABLE
2
BLOCK_RECORD
5
1
100
AcDbSymbolTable
70
1
0
BLOCK_RECORD
5
1F
100
AcDbSymbolTableRecord
100
AcDbBlockTableRecord
2
*MODEL_SPACE
0
BLOCK_RECORD
5
1B
100
AcDbSymbolTableRecord
100
AcDbBlockTableRecord
2
*PAPER_SPACE
0
ENDTAB
0
ENDSEC
0
SECTION
2
BLOCKS
0
BLOCK
5
20
100
AcDbEntity
100
AcDbBlockBegin
2
*MODEL_SPACE
0
ENDBLK
5
21
100
AcDbEntity
100
AcDbBlockEnd
0
BLOCK
5
1C
100
AcDbEntity
100
AcDbBlockBegin
2
*PAPER_SPACE
0
ENDBLK
5
1D
100
AcDbEntity
100
AcDbBlockEnd
0
ENDSEC
0
SECTION
2
ENTITIES
0
CIRCLE
5
100
100
AcDbEntity
8
0
100
AcDbCircle
10
-31.252569474687427
20
-307.65127291271261
30
7.8050426444736672e-31
40
2.0999999999999992
210
-5.4738221262690184e-48
220
-3.6977854932234928e-32
230
1
0
CIRCLE
5
101
100
AcDbEntity
8
0
100
AcDbCircle
10
-57.757765544418469
20
-375.34967178467383
30
-5.3942926429955883e-32
40
3.0999999999999779
210
-5.4738221262690087e-48
220
-3.6977854932234923e-32
230
1
0
CIRCLE
5
102
100
AcDbEntity
8
0
100
AcDbCircle
10
-0.52727280889897532
20
-535.20476027642815
30
-2.0243090172391861e-30
40
3.0999999999999837
210
-5.4738221262689893e-48
220
-3.6977854932234923e-32
230
1
0
CIRCLE
5
103
100
AcDbEntity
8
0
100
AcDbCircle
10
-57.757765544418469
20
-535.20476027642815
30
-2.0243090172391861e-30
40
3.1000000000000134
210
-5.4738221262690087e-48
220
-3.6977854932234923e-32
230
1
0
CIRCLE
5
104
100
AcDbEntity
8
0
100
AcDbCircle
10
-0.52727280889897088
20
-375.35169751155763
30
-5.3967895441569941e-32
40
3.1000000000000068
210
-5.4738221262690087e-48
220
-3.6977854932234928e-32
230
1
0
CIRCLE
5
105
100
AcDbEntity
8
0
100
AcDbCircle
10
-115.73750167074945
20
-375.35302710662114
30
-5.3984283966028485e-32
40
3.1000000000000045
210
-5.4738221262690087e-48
220
-3.6977854932234928e-32
230
1
0
CIRCLE
5
106
100
AcDbEntity
8
0
100
AcDbCircle
10
57.735999420023006
20
-535.20476027642815
30
-2.0243090172391864e-30
40
3.1000000000000045
210
-5.4738221262690087e-48
220
-3.6977854932234928e-32
230
1
0
CIRCLE
5
107
100
AcDbEntity
8
0
100
AcDbCircle
10
-115.73422816791279
20
-535.20476027642815
30
-2.0243090172391864e-30
40
3.0999999999999863
210
-5.4738221262690002e-48
220
-3.6977854932234923e-32
230
1
0
CIRCLE
5
108
100
AcDbEntity
8
0
100
AcDbCircle
10
57.735999420023006
20
-375.33238868963372
30
-5.3729895836231171e-32
40
3.1000000000000312
210
-5.4738221262690184e-48
220
-3.6977854932234923e-32
230
1
0
CIRCLE
5
109
100
AcDbEntity
8
0
100
AcDbCircle
10
-30.623275668648979
20
-127.57102092534579
30
3.0001647424970963e-30
40
2.0999999999999992
210
-5.4738221262690184e-48
220
-3.6977854932234928e-32
230
1
0
CIRCLE
5
110
100
AcDbEntity
8
0
100
AcDbCircle
10
153.72914881908056
20
-255.23009277336573
30
1.4266451959704777e-30
40
2.0999999999999903
210
-5.4738221262690184e-48
220
-3.6977854932234928e-32
230
1
0
CIRCLE
5
111
100
AcDbEntity
8
0
100
AcDbCircle
10
-216.27085118091995
20
-510.23009277336553
30
-1.7164724732695012e-30
40
2.1000000000000081
210
-5.4738221262690282e-48
220
-3.6977854932234923e-32
230
1
0
CIRCLE
5
112
100
AcDbEntity
8
0
100
AcDbCircle
10
-216.27085118091887
20
-255.23009277336573
30
1.4266451959704777e-30
40
2.1000000000000081
210
-5.4738221262690282e-48
220
-3.6977854932234923e-32
230
1
0
CIRCLE
5
113
100
AcDbEntity
8
0
100
AcDbCircle
10
153.72914881907917
20
-510.23009277336553
30
-1.7164724732695012e-30
40
2.1000000000000081
210
-5.4738221262690282e-48
220
-3.6977854932234923e-32
230
1
0
CIRCLE
5
114
100
AcDbEntity
8
0
100
AcDbCircle
10
153.72914881907988
20
-382.73009277336553
30
-1.4491363864951093e-31
40
2.1000000000000081
210
-5.4738221262690282e-48
220
-3.6977854932234923e-32
230
1
0
CIRCLE
5
115
100
AcDbEntity
8
0
100
AcDbCircle
10
-216.27085118091938
20
-382.73009277336553
30
-1.4491363864951115e-31
40
2.1000000000000436
210
-5.473822126268999e-48
220
-3.6977854932234928e-32
230
1
0
LWPOLYLINE
5
116
100
AcDbEntity
8
0
100
AcDbPolyline
90
8
70
1
43
0.0
10
164.72961832839331
20
-118.74673499577139
42
0.4142135623730846
10
163.72961832839331
20
-117.74673499577142
10
-225.27085118091819
20
-117.74673499576934
42
0.41421356237310025
10
-226.27085118091821
20
-118.74673499576936
10
-226.27085118092106
20
-646.23009277336348
42
0.4142135623730846
10
-225.27085118092106
20
-647.23009277336348
10
163.72961832839334
20
-647.23009277336541
42
0.41421356237309503
10
164.72961832839331
20
-646.23009277336553
0
CIRCLE
5
117
100
AcDbEntity
8
0
100
AcDbCircle
10
-186.27085118091964
20
-370.83691483473473
30
1.6810975164718204e-33
40
2.0499999999999825
210
-5.473822126268999e-48
220
-3.6977854932234928e-32
230
1
0
CIRCLE
5
118
100
AcDbEntity
8
0
100
AcDbCircle
10
-186.27085118092043
20
-520.83691483473467
30
-1.847211649095281e-30
40
2.0499999999999825
210
-5.473822126268999e-48
220
-3.6977854932234928e-32
230
1
0
CIRCLE
5
119
100
AcDbEntity
8
0
100
AcDbCircle
10
124.72916017175308
20
-370.83691483473473
30
1.6810975164718204e-33
40
2.0547499999999981
210
2.1168141677289027e-54
220
-3.6977854932234928e-32
230
1
0
CIRCLE
5
120
100
AcDbEntity
8
0
100
AcDbCircle
10
124.72916017175945
20
-520.83691483473467
30
-1.847211649095281e-30
40
2.0547499999999981
210
2.1168141677289027e-54
220
-3.6977854932234928e-32
230
1
0
LWPOLYLINE
5
121
100
AcDbEntity
8
0
100
AcDbPolyline
90
8
70
1
43
0.0
10
-38.655359988303999
20
-161.33385039030799
42
2.6949367333763692
10
-38.36594849953574
20
-200.47168583805848
42
-0.22035511624542437
10
-35.314945681531007
20
-199.0584563737898
10
-27.181993587610712
20
-199.05845637378991
42
-0.2203551162454169
10
-24.13099076960609
20
-200.47168583805868
42
2.6949367333769398
10
-23.841579280843092
20
-161.33385039031447
42
-0.21648145949015343
10
-26.853993900349341
20
-162.70224286634647
10
-35.642945368805023
20
-162.70224286633922
42
-0.21648145948965505
0
CIRCLE
5
122
100
AcDbEntity
8
0
100
AcDbCircle
10
23.748182587950559
20
-156.24570840980832
30
2.6467219311545525e-30
40
2.0999999999999992
210
-1.3205595879623563e-46
220
-3.6977854932234928e-32
230
1
0
CIRCLE
5
123
100
AcDbEntity
8
0
100
AcDbCircle
10
153.72914881908122
20
-127.73009277336578
30
2.9982040305904679e-30
40
2.1000000000000081
210
-5.4738221262689783e-48
220
-3.6977854932234923e-32
230
1
0
CIRCLE
5
124
100
AcDbEntity
8
0
100
AcDbCircle
10
153.72914881907849
20
-637.73009277336553
30
-3.288031307889492e-30
40
2.0999999999999726
210
-5.4738221262689783e-48
220
-3.6977854932234928e-32
230
1
0
CIRCLE
5
125
100
AcDbEntity
8
0
100
AcDbCircle
10
-216.27085118092106
20
-637.73009277336359
30
-3.2880313078894674e-30
40
2.1000000000000081
210
-5.4738221262689783e-48
220
-3.6977854932234923e-32
230
1
0
CIRCLE
5
126
100
AcDbEntity
8
0
100
AcDbCircle
10
-216.2708511809183
20
-127.73009277336382
30
2.9982040305904921e-30
40
2.1000000000000081
210
-5.4738221262689783e-48
220
-3.6977854932234923e-32
230
1
0
CIRCLE
5
127
100
AcDbEntity
8
0
100
AcDbCircle
10
-30.610851180921266
20
-637.7300927733645
30
-3.2880313078894794e-30
40
2.1000000000000236
210
-5.4738221262690172e-48
220
-3.6977854932234928e-32
230
1
0
CIRCLE
5
128
100
AcDbEntity
8
0
100
AcDbCircle
10
-86.201757381200139
20
-206.05845637378951
30
2.0327324084918576e-30
40
2.0999999999999992
210
-1.3205595879623563e-46
220
-3.6977854932234928e-32
230
1
0
CIRCLE
5
129
100
AcDbEntity
8
0
100
AcDbCircle
10
-86.201757381199897
20
-156.24570840980772
30
2.6467219311545595e-30
40
2.0999999999999992
210
-1.3205595879623563e-46
220
-3.6977854932234928e-32
230
1
0
CIRCLE
5
130
100
AcDbEntity
8
0
100
AcDbCircle
10
23.748182587950595
20
-206.05845637379042
30
2.0327324084918467e-30
40
2.0999999999999992
210
-1.3205595879623563e-46
220
-3.6977854932234928e-32
230
1
0
CIRCLE
5
131
100
AcDbEntity
8
0
100
AcDbCircle
10
-36.201757381200437
20
-206.05845637378965
30
2.0327324084918555e-30
40
2.0999999999999992
210
-1.3205595879623563e-46
220
-3.6977854932234928e-32
230
1
0
CIRCLE
5
132
100
AcDbEntity
8
0
100
AcDbCircle
10
-26.251817412052844
20
-156.24570840980806
30
2.6467219311545557e-30
40
2.0999999999999996
210
-1.3205595879623563e-46
220
-3.6977854932234928e-32
230
1
0
CIRCLE
5
133
100
AcDbEntity
8
0
100
AcDbCircle
10
-36.20175738119994
20
-156.24570840980002
30
2.6467219311546552e-30
40
2.0999999999999992
210
-1.3205595879623563e-46
220
-3.6977854932234928e-32
230
1
0
CIRCLE
5
134
100
AcDbEntity
8
0
100
AcDbCircle
10
-26.251817412053107
20
-206.05845637378985
30
2.0327324084918531e-30
40
2.0999999999999996
210
-1.3205595879623563e-46
220
-3.6977854932234928e-32
230
1
0
LWPOLYLINE
5
135
100
AcDbEntity
8
0
100
AcDbPolyline
90
4
70
1
43
0.0
10
105.56271035739766
20
-603.63302812343022
42
0.99999999999999989
10
105.56271035739758
20
-613.63302812343022
10
135.56271035739758
20
-613.63302812343034
42
0.99999999999999989
10
135.56271035739763
20
-603.63302812343034
0
LWPOLYLINE
5
136
100
AcDbEntity
8
0
100
AcDbPolyline
90
4
70
1
43
0.0
10
-198.11754289025288
20
-613.63302812342863
10
-168.11754289025291
20
-613.63302812342886
42
0.99999999999999989
10
-168.11754289025288
20
-603.63302812342886
10
-198.11754289025285
20
-603.63302812342863
42
0.99999999999999989
0
LWPOLYLINE
5
137
100
AcDbEntity
8
0
100
AcDbPolyline
90
6
70
1
43
0.0
10
-37.505825539947601
20
-285.95224468467416
10
-25.005456947242266
20
-285.95224468467427
42
0.99999999999999989
10
-25.005456947242202
20
-273.45224468467427
10
-31.207643968945121
20
-273.45224468467421
42
0.0038397253604245387
10
-31.303638518250413
20
-273.45224468467427
10
-37.505825539947537
20
-273.45224468467416
42
0.99999999999999989
0
CIRCLE
5
138
100
AcDbEntity
8
0
100
AcDbCircle
10
-114.04976670178115
20
-211.49659252885752
30
1.965702205210575e-30
40
1.6000000000000012
210
-5.4738221262689783e-48
220
-3.6977854932234928e-32
230
1
0
CIRCLE
5
139
100
AcDbEntity
8
0
100
AcDbCircle
10
-175.85186863882149
20
-146.07106084463152
30
2.7721341450384612e-30
40
1.6000000000000012
210
-5.4738221262689783e-48
220
-3.6977854932234928e-32
230
1
0
CIRCLE
5
140
100
AcDbEntity
8
0
100
AcDbCircle
10
-144.95081767030129
20
-178.7838266867445
30
2.3689181751245178e-30
40
19.999999999999996
210
-5.4738221262689783e-48
220
-3.6977854932234923e-32
230
1
0
LWPOLYLINE
5
141
100
AcDbEntity
8
0
100
AcDbPolyline
90
6
70
1
43
0.0
10
58.744358756405447
20
-191.85950462409909
10
58.74435875640544
20
-193.78323147489593
42
0.99999999999999989
10
78.744358756405418
20
-193.78323147489607
10
78.744358756405447
20
-192.16257604818384
42
-0.18527184843182837
10
80.027765343717064
20
-188.81788870782432
42
2.215079543101945
10
57.527765343717078
20
-188.59058513976069
42
-0.18005229045704249
0
LWPOLYLINE
5
142
100
AcDbEntity
8
0
100
AcDbPolyline
90
4
70
1
43
0.0
10
-69.999999306338907
20
-613.63302812342886
42
0.99999999999999989
10
-69.999999306338907
20
-603.63302812342852
10
-89.999999306338907
20
-603.63302812342852
42
0.99999999999999989
10
-89.999999306338879
20
-613.63302812342897
0
ENDSEC
0
SECTION
2
OBJECTS
0
DICTIONARY
5
C
100
AcDbDictionary
3
ACAD_GROUP
350
D
3
ACAD_MLINESTYLE
350
17
0
DICTIONARY
5
D
100
AcDbDictionary
0
DICTIONARY
5
1A
330
C
100
AcDbDictionary
0
DICTIONARY
5
17
100
AcDbDictionary
0
ENDSEC
0
EOF
