0
SECTION
2
HEADER
9
$INSUNITS
70
4
9
$ACADVER
1
AC1014
9
$HANDSEED
5
FFFF
0
ENDSEC
0
SECTION
2
TABLES
0
TABLE
2
VPORT
5
8
100
AcDbSymbolTable
0
ENDTAB
0
TABLE
2
LTYPE
5
5
100
AcDbSymbolTable
0
LTYPE
5
14
100
AcDbSymbolTableRecord
100
AcDbLinetypeTableRecord
2
BYBLOCK
70
0
0
LTYPE
5
15
100
AcDbSymbolTableRecord
100
AcDbLinetypeTableRecord
2
BYLAYER
70
0
0
ENDTAB
0
TABLE
2
LAYER
5
2
100
AcDbSymbolTable
70
2
0
LAYER
5
50
100
AcDbSymbolTableRecord
100
AcDbLayerTableRecord
2
0
70
0
6
CONTINUOUS
0
ENDTAB
0
TABLE
2
STYLE
5
3
100
AcDbSymbolTable
70
1
0
STYLE
5
11
100
AcDbSymbolTableRecord
100
AcDbTextStyleTableRecord
2
STANDARD
70
0
0
ENDTAB
0
TABLE
2
VIEW
5
6
100
AcDbSymbolTable
70
0
0
ENDTAB
0
TABLE
2
UCS
5
7
100
AcDbSymbolTable
70
0
0
ENDTAB
0
TABLE
2
APPID
5
9
100
AcDbSymbolTable
70
2
0
APPID
5
12
100
AcDbSymbolTableRecord
100
AcDbRegAppTableRecord
2
ACAD
70
0
0
ENDTAB
0
TABLE
2
DIMSTYLE
5
A
100
AcDbSymbolTable
70
1
0
ENDTAB
0
TABLE
2
BLOCK_RECORD
5
1
100
AcDbSymbolTable
70
1
0
BLOCK_RECORD
5
1F
100
AcDbSymbolTableRecord
100
AcDbBlockTableRecord
2
*MODEL_SPACE
0
BLOCK_RECORD
5
1B
100
AcDbSymbolTableRecord
100
AcDbBlockTableRecord
2
*PAPER_SPACE
0
ENDTAB
0
ENDSEC
0
SECTION
2
BLOCKS
0
BLOCK
5
20
100
AcDbEntity
100
AcDbBlockBegin
2
*MODEL_SPACE
0
ENDBLK
5
21
100
AcDbEntity
100
AcDbBlockEnd
0
BLOCK
5
1C
100
AcDbEntity
100
AcDbBlockBegin
2
*PAPER_SPACE
0
ENDBLK
5
1D
100
AcDbEntity
100
AcDbBlockEnd
0
ENDSEC
0
SECTION
2
ENTITIES
0
LINE
5
100
100
AcDbEntity
8
0
100
AcDbLine
10
-324.77206490199887
20
-343.81360380998649
30
-4.0438543535969984e-05
11
-324.77204428309778
21
-362.32091793533357
31
-3.9272644016818958e-05
0
ARC
5
101
100
AcDbEntity
8
0
100
AcDbCircle
10
-323.77204428309869
20
-362.32091682123865
30
-3.9157284741458905e-05
40
0.99999999999971112
210
-3.5520031360635621e-10
220
-3.9572686287623207e-16
230
1
100
AcDbArc
50
180.00006383349873
51
270.00006383294306
0
LINE
5
102
100
AcDbEntity
8
0
100
AcDbLine
10
-323.77204316900367
20
-363.32091682123803
30
-3.9272288745451078e-05
11
-202.00839211778984
21
-363.32078116499582
31
-3.9272644087873232e-05
0
ARC
5
103
100
AcDbEntity
8
0
100
AcDbCircle
10
-202.00839323188484
20
-362.32078116499656
30
-3.9143566696925701e-05
40
0.99999999999985323
210
3.9580604932448474e-16
220
-3.5527136787988171e-10
230
1
100
AcDbArc
50
-89.999936167058564
51
6.3833498762006139e-05
0
LINE
5
104
100
AcDbEntity
8
0
100
AcDbLine
10
-201.00839323188552
20
-362.32078005090159
30
-3.9272288816505352e-05
11
-201.00841385067056
21
-343.81356980214855
31
-4.0438544104404173e-05
0
ARC
5
105
100
AcDbEntity
8
0
100
AcDbCircle
10
-200.00841385067167
20
-343.81356868805358
30
-4.1604443623555198e-05
40
1.000000000000056
210
0
220
0
230
1
100
AcDbArc
50
90.000016508518755
51
180.00009239708649
0
LINE
5
106
100
AcDbEntity
8
0
100
AcDbLine
10
-200.00841413879968
20
-342.81356868805352
30
-4.1604443623555198e-05
11
-179.92822272899843
21
-342.81356290296566
31
-4.1604439928732972e-05
0
LINE
5
107
100
AcDbEntity
8
0
100
AcDbLine
10
-179.92822272899843
20
-342.81356290296566
30
-4.1604439928732972e-05
11
-179.92832299753772
21
5.1864370985544284
31
-4.1604454992238971e-05
0
LINE
5
108
100
AcDbEntity
8
0
100
AcDbLine
10
-179.92832299753772
20
5.1864370985544284
30
-4.1604454992238971e-05
11
-180.06638498974439
21
5.1864370578226016
31
-4.1604456058053074e-05
0
ARC
5
109
100
AcDbEntity
8
0
100
AcDbCircle
10
-180.92832810400793
20
4.6794368094726124
30
-3.9272304022119897e-05
40
1.000000000000028
210
0
220
-0
230
1
100
AcDbArc
50
30.464855054575271
51
90.00001650857412
0
LINE
5
110
100
AcDbEntity
8
0
100
AcDbLine
10
-180.9283283921369
20
5.6794368094726266
30
-3.9272304022119897e-05
11
-199.92780404494923
21
5.6794313351918291
31
-3.9272659293487777e-05
0
ARC
5
111
100
AcDbEntity
8
0
100
AcDbCircle
10
-199.92780433307723
20
6.6794313351918078
30
-3.9272304093174171e-05
40
0.99999999999992428
210
0
220
0
230
1
100
AcDbArc
50
180.00006383349873
51
270.00001650851874
0
LINE
5
112
100
AcDbEntity
8
0
100
AcDbLine
10
-200.92780433307652
20
6.6794302210968226
30
-3.9272304093174171e-05
11
-200.92782550051902
21
25.679109859201823
31
-3.927266014613906e-05
0
ARC
5
113
100
AcDbEntity
8
0
100
AcDbCircle
10
-201.92782550051817
20
25.679108745106802
30
-3.9344044039385821e-05
40
0.99999999999978217
210
3.5527136787990699e-10
220
3.9580606194631548e-16
230
1
100
AcDbArc
50
6.3833498762006139e-05
51
90.000016508522009
0
LINE
5
114
100
AcDbEntity
8
0
100
AcDbLine
10
-201.92782578864623
20
26.679108745106745
30
-3.927230487477118e-05
11
-323.77247683997297
21
26.679073638252433
31
-3.927266014613906e-05
0
ARC
5
115
100
AcDbEntity
8
0
100
AcDbCircle
10
-323.77247655184505
20
25.679073638252433
30
-3.9263181802011305e-05
40
1.000000000000056
210
-1.0236360080342575e-16
220
3.5527136788001556e-10
230
1
100
AcDbArc
50
90.000016508513866
51
180.00006383349873
0
LINE
5
116
100
AcDbEntity
8
0
100
AcDbLine
10
-324.77247655184448
20
25.679072524157434
30
-3.927230487477118e-05
11
-324.77245538440593
21
6.679396189920439
31
-3.9272659364542051e-05
0
ARC
5
117
100
AcDbEntity
8
0
100
AcDbCircle
10
-325.77245538440491
20
6.6793950758254894
30
-3.9272304093174171e-05
40
1.0000000000000202
210
-2.0472730258106194e-20
220
7.1054273576005626e-14
230
1
100
AcDbArc
50
-89.999983491479625
51
6.3833498762006139e-05
0
LINE
5
118
100
AcDbEntity
8
0
100
AcDbLine
10
-325.77245509627687
20
5.6793950758255107
30
-3.9272304022119897e-05
11
-369.92857122321539
21
5.6793823532125032
31
-3.9272659293487777e-05
0
ARC
5
119
100
AcDbEntity
8
0
100
AcDbCircle
10
-369.92857151134336
20
6.6793823532124819
30
-3.9272304093174171e-05
40
0.99999999999996214
210
4.6716878722753348e-14
220
5.3537305085504751e-14
230
1
100
AcDbArc
50
228.89191172691702
51
270.00001650851709
0
ARC
5
120
100
AcDbEntity
8
0
100
AcDbCircle
10
-369.62057136929627
20
6.1863824419559776
30
-4.1604456058053074e-05
40
1.000000000000056
210
0
220
0
230
1
100
AcDbArc
50
180.00001651119649
51
195.09799209098352
0
LINE
5
121
100
AcDbEntity
8
0
100
AcDbLine
10
-370.62057136929633
20
6.1863821538279851
30
-4.1604456058053074e-05
11
-370.62057684372803
21
25.186382153827473
31
-4.1604456839650084e-05
0
ARC
5
122
100
AcDbEntity
8
0
100
AcDbCircle
10
-371.62057684372803
20
25.186381865699481
30
-4.1604456839650084e-05
40
1.000000000000056
210
0
220
-0
230
1
100
AcDbArc
50
1.6511196510205472e-05
51
90.000016508520375
0
LINE
5
123
100
AcDbEntity
8
0
100
AcDbLine
10
-371.62057713185607
20
26.18638186569946
30
-4.1604456910704357e-05
11
-508.62057713185095
21
26.186342392164796
31
-4.1604456910704357e-05
0
ARC
5
124
100
AcDbEntity
8
0
100
AcDbCircle
10
-508.62057684372297
20
25.186342392164853
30
-4.1604456839650084e-05
40
0.99999999999998479
210
-2.0472725209397854e-20
220
7.1054273576008151e-14
230
1
100
AcDbArc
50
90.00001650851712
51
180.00001651119649
0
LINE
5
125
100
AcDbEntity
8
0
100
AcDbLine
10
-509.62057684372292
20
25.186342104036861
30
-4.1604456839650084e-05
11
-509.6205713692911
21
6.1863421040373723
31
-4.1604456058053074e-05
0
ARC
5
126
100
AcDbEntity
8
0
100
AcDbCircle
10
-510.62057136929116
20
6.1863418159093797
30
-4.1604456058053074e-05
40
1.000000000000056
210
0
220
0
230
1
100
AcDbArc
50
-89.999983491486134
51
1.6511196510205472e-05
0
LINE
5
127
100
AcDbEntity
8
0
100
AcDbLine
10
-510.62057108116323
20
5.1863418159093655
30
-4.1604456058053074e-05
11
-578.62057108116073
21
5.186322223206119
31
-4.1604456058053074e-05
0
ARC
5
128
100
AcDbEntity
8
0
100
AcDbCircle
10
-578.62057136928865
20
6.1863222232060977
30
-4.1604456058053074e-05
40
1.000000000000056
210
0
220
0
230
1
100
AcDbArc
50
180.00001651119649
51
270.00001650851385
0
LINE
5
129
100
AcDbEntity
8
0
100
AcDbLine
10
-579.62057136928865
20
6.1863219350781051
30
-4.1604456058053074e-05
11
-579.62057684372053
21
25.186321935077594
31
-4.1604456839650084e-05
0
ARC
5
130
100
AcDbEntity
8
0
100
AcDbCircle
10
-580.62057684372053
20
25.186321646949601
30
-4.1604456839650084e-05
40
1.0000000000001268
210
0
220
-0
230
1
100
AcDbArc
50
1.6511196510205472e-05
51
90.000016508520375
0
LINE
5
131
100
AcDbEntity
8
0
100
AcDbLine
10
-580.62057713184856
20
26.18632164694958
30
-4.1604456910704357e-05
11
-616.79092731089486
21
26.18631122525926
31
-4.1604456910704357e-05
0
LINE
5
132
100
AcDbEntity
8
0
100
AcDbLine
10
-616.79092731089486
20
26.18631122525926
30
-4.1604456910704357e-05
11
-616.79092207082579
21
7.9997097273837525
31
-4.1604456129107348e-05
0
ARC
5
133
100
AcDbEntity
8
0
100
AcDbCircle
10
-617.79092207082567
20
7.9997094392557599
30
-4.1604456129107348e-05
40
1.0000000000000202
210
0
220
0
230
1
100
AcDbArc
50
-89.999983491486134
51
1.6511196510205472e-05
0
LINE
5
134
100
AcDbEntity
8
0
100
AcDbLine
10
-617.79092178269775
20
6.9997094392557813
30
-4.1604456129107348e-05
11
-646.92785988320963
21
6.9997010440883756
31
-4.1604456129107348e-05
0
ARC
5
135
100
AcDbEntity
8
0
100
AcDbCircle
10
-646.92786017133767
20
7.9997010440883543
30
-4.1604456129107348e-05
40
0.99999999999998479
210
0
220
0
230
1
100
AcDbArc
50
180.00001651119649
51
270.00001650852039
0
LINE
5
136
100
AcDbEntity
8
0
100
AcDbLine
10
-647.92786017133767
20
7.9997007559603617
30
-4.1604456129107348e-05
11
-647.92786541140663
21
26.186302253835869
31
-4.1604456910704357e-05
0
LINE
5
137
100
AcDbEntity
8
0
100
AcDbLine
10
-647.92786541140663
20
26.186302253835869
30
-4.1604456910704357e-05
11
-717.62057713184413
21
26.186282173414916
31
-4.1604456910704357e-05
0
ARC
5
138
100
AcDbEntity
8
0
100
AcDbCircle
10
-717.62057684371609
20
25.186282173414973
30
-4.1604456839650084e-05
40
0.99999999999998479
210
-2.0472730258107648e-20
220
7.1054273576008151e-14
230
1
100
AcDbArc
50
90.000016508520375
51
180.00001651119649
0
LINE
5
139
100
AcDbEntity
8
0
100
AcDbLine
10
-718.62057684371609
20
25.186281885286981
30
-4.1604456839650084e-05
11
-718.62057136928433
21
6.1862818852874923
31
-4.1604456058053074e-05
0
ARC
5
140
100
AcDbEntity
8
0
100
AcDbCircle
10
-719.62057136928422
20
6.1862815971594998
30
-4.1604456058053074e-05
40
1.000000000000056
210
0
220
0
230
1
100
AcDbArc
50
-89.999983491486134
51
1.6511196510205472e-05
0
LINE
5
141
100
AcDbEntity
8
0
100
AcDbLine
10
-719.6205710811563
20
5.1862815971594856
30
-4.1604456058053074e-05
11
-738.62057108115562
21
5.1862761227277332
31
-4.1604455986998801e-05
0
ARC
5
142
100
AcDbEntity
8
0
100
AcDbCircle
10
-738.62057079302758
20
4.1862761227277545
30
-4.1604455986998801e-05
40
1.0000000000000202
210
0
220
0
230
1
100
AcDbArc
50
90.000016508520375
51
180.00001651119649
0
LINE
5
143
100
AcDbEntity
8
0
100
AcDbLine
10
-739.6205707930277
20
4.1862758345997619
30
-4.1604455986998801e-05
11
-739.62047110074309
21
-341.81372416539079
31
-4.1604441705089812e-05
0
ARC
5
144
100
AcDbEntity
8
0
100
AcDbCircle
10
-738.62047110074309
20
-341.81372387726276
30
-4.1604441705089812e-05
40
0.99999999999998479
210
0
220
0
230
1
100
AcDbArc
50
180.00001651119649
51
270.00001650851385
0
LINE
5
145
100
AcDbEntity
8
0
100
AcDbLine
10
-738.62047081261517
20
-342.81372387726276
30
-4.1604441634035538e-05
11
-719.62047081261574
21
-342.813718402831
31
-4.1604441634035538e-05
0
ARC
5
146
100
AcDbEntity
8
0
100
AcDbCircle
10
-719.62047052448781
20
-343.81371840283094
30
-4.1604441634035538e-05
40
0.99999999999998479
210
0
220
-0
230
1
100
AcDbArc
50
1.6511196510205472e-05
51
90.000016508513866
0
LINE
5
147
100
AcDbEntity
8
0
100
AcDbLine
10
-718.62047052448793
20
-343.81371811470285
30
-4.1604441634035538e-05
11
-718.62046505005605
21
-362.8137181147024
31
-4.1604440852438529e-05
0
ARC
5
148
100
AcDbEntity
8
0
100
AcDbCircle
10
-717.62046505005605
20
-362.81371782657448
30
-4.1604440852438529e-05
40
1.0000000000001268
210
0
220
0
230
1
100
AcDbArc
50
180.00001651119649
51
270.00001650851385
0
LINE
5
149
100
AcDbEntity
8
0
100
AcDbLine
10
-717.62046476192813
20
-363.81371782657436
30
-4.1604440781384255e-05
11
-371.62046476194001
21
-363.81361813428987
31
-4.1604440781384255e-05
0
ARC
5
150
100
AcDbEntity
8
0
100
AcDbCircle
10
-371.62046505006799
20
-362.81361813428987
30
-4.1604440852438529e-05
40
1.000000000000056
210
-2.0472725209394944e-20
220
7.1054273576003102e-14
230
1
100
AcDbArc
50
-89.99998349148288
51
1.6511196510205472e-05
0
LINE
5
151
100
AcDbEntity
8
0
100
AcDbLine
10
-370.62046505006805
20
-362.81361784616195
30
-4.1604440852438529e-05
11
-370.62047052449986
21
-343.81361784616246
31
-4.1604441634035538e-05
0
ARC
5
152
100
AcDbEntity
8
0
100
AcDbCircle
10
-369.62047052449986
20
-343.81361755803437
30
-4.1604441634035538e-05
40
0.99999999999998479
210
0
220
0
230
1
100
AcDbArc
50
90.000016508513866
51
180.00001651119649
0
LINE
5
153
100
AcDbEntity
8
0
100
AcDbLine
10
-369.62047081262779
20
-342.81361755803448
30
-4.1604441634035538e-05
11
-325.77206519012634
21
-342.81360492495924
31
-4.1604441634035538e-05
0
ARC
5
154
100
AcDbEntity
8
0
100
AcDbCircle
10
-325.7720649018255
20
-343.81360492408146
30
0.00033821333581850519
40
1.0000000000007461
210
-1.1658990217695172e-06
220
-1.2989222533514155e-12
230
0.99999999999932032
100
AcDbArc
50
6.3833498762006139e-05
51
90.000016508517135
0
LINE
5
155
100
AcDbEntity
8
0
100
AcDbLine
10
-247.86504784842128
20
-118.32242044707525
30
-4.1604450942145377e-05
11
-247.87532126762954
21
-218.32241964974926
31
-4.1604446820997509e-05
0
ARC
5
156
100
AcDbEntity
8
0
100
AcDbCircle
10
-262.8753211884723
20
-218.32087863686388
30
-4.1604446820997509e-05
40
15.000000000000055
210
0
220
0
230
1
100
AcDbArc
50
179.99411376441662
51
359.99411376441657
0
LINE
5
157
100
AcDbEntity
8
0
100
AcDbLine
10
-277.875321109315
20
-218.31933762397841
30
-4.1604446820997509e-05
11
-277.86504769010673
21
-118.31933842130451
31
-4.1604450942145377e-05
0
ARC
5
158
100
AcDbEntity
8
0
100
AcDbCircle
10
-262.86504776926404
20
-118.32087943418986
30
-4.1604450942145377e-05
40
15.000000000000091
210
0
220
0
230
1
100
AcDbArc
50
-0.0058862355833969706
51
179.99411376441662
0
CIRCLE
5
159
100
AcDbEntity
8
0
100
AcDbCircle
10
190.4481938311128
20
-168.29356593347913
30
4.1604449103515854e-05
40
2.0999999999999903
210
5.371935449952319e-22
220
-1.3187938152467669e-15
230
-1
0
CIRCLE
5
160
100
AcDbEntity
8
0
100
AcDbCircle
10
190.43159405601818
20
-24.813425771241953
30
4.1604454811799838e-05
40
2.0999999999999903
210
5.371935449952319e-22
220
-1.3187938152467669e-15
230
-1
0
CIRCLE
5
161
100
AcDbEntity
8
0
100
AcDbCircle
10
190.46491389542211
20
-312.81342580845234
30
4.1604443325548774e-05
40
2.1000000000000103
210
5.371935449952319e-22
220
-1.3187938152467669e-15
230
-1
0
CIRCLE
5
162
100
AcDbEntity
8
0
100
AcDbCircle
10
294.77205487446986
20
-352.81419530695047
30
3.9272289380214953e-05
40
2.1000000000000103
210
1.5861516152933771e-22
220
-3.8939478863148088e-16
230
-1
0
CIRCLE
5
163
100
AcDbEntity
8
0
100
AcDbCircle
10
231.00840383868746
20
-352.80024049224482
30
3.9272290374969362e-05
40
2.0999999999999903
210
1.5861516152933771e-22
220
-3.8939478863148088e-16
230
-1
0
CIRCLE
5
164
100
AcDbEntity
8
0
100
AcDbCircle
10
230.9278149167977
20
16.179261396309634
30
3.9272304442145382e-05
40
2.0999999999999903
210
1.5861516152933771e-22
220
-3.8939478863148088e-16
230
-1
0
CIRCLE
5
165
100
AcDbEntity
8
0
100
AcDbCircle
10
294.7724659681175
20
16.179243000878678
30
3.9272304442145375e-05
40
2.1000000000000103
210
1.5861516152933771e-22
220
-3.8939478863148088e-16
230
-1
0
CIRCLE
5
166
100
AcDbEntity
8
0
100
AcDbCircle
10
376.62602506155338
20
-305.93401335876075
30
4.1604443600693237e-05
40
1.5500000000000502
210
5.371935449952319e-22
220
-1.3187938152467669e-15
230
-1
0
CIRCLE
5
167
100
AcDbEntity
8
0
100
AcDbCircle
10
650.83035786043592
20
-294.7612416842083
30
4.1604444012284151e-05
40
2.6000000000000503
210
5.371935449952319e-22
220
-1.3187938152467669e-15
230
-1
0
CIRCLE
5
168
100
AcDbEntity
8
0
100
AcDbCircle
10
698.21718788017029
20
-321.42694359411388
30
4.1604442981636578e-05
40
11.500000000000203
210
5.37193544995232e-22
220
-1.3187938152467671e-15
230
-1
0
CIRCLE
5
169
100
AcDbEntity
8
0
100
AcDbCircle
10
529.15228121022824
20
-37.122845023146631
30
4.160445433065333e-05
40
1.5500000000000402
210
5.3719354499514463e-22
220
-1.318793815246464e-15
230
-1
0
CIRCLE
5
170
100
AcDbEntity
8
0
100
AcDbCircle
10
650.83063614411162
20
-44.976666349736583
30
4.1604453985739467e-05
40
2.5999999999999805
210
5.371935449952319e-22
220
-1.3187938152467669e-15
230
-1
0
CIRCLE
5
171
100
AcDbEntity
8
0
100
AcDbCircle
10
560.15227778122164
20
-37.10839264128532
30
4.1604454330634248e-05
40
1.55000000000007
210
5.3719354499514463e-22
220
-1.318793815246464e-15
230
-1
0
CIRCLE
5
172
100
AcDbEntity
8
0
100
AcDbCircle
10
713.72442132009962
20
-305.93418040563802
30
4.1604443600693278e-05
40
1.5500000000000402
210
5.371935449952319e-22
220
-1.3187938152467669e-15
230
-1
0
CIRCLE
5
173
100
AcDbEntity
8
0
100
AcDbCircle
10
682.70995445150277
20
-336.91970678258969
30
4.1604442362579893e-05
40
1.5500000000000402
210
5.371935449952319e-22
220
-1.3187938152467669e-15
230
-1
0
CIRCLE
5
174
100
AcDbEntity
8
0
100
AcDbCircle
10
392.13324314680199
20
-321.42679191624211
30
4.1604442981636551e-05
40
11.500000000000203
210
5.37193544995232e-22
220
-1.3187938152467671e-15
230
-1
0
CIRCLE
5
175
100
AcDbEntity
8
0
100
AcDbCircle
10
376.64046458368972
20
-336.93400999586186
30
4.160444236259892e-05
40
1.5500000000000502
210
5.371935449952319e-22
220
-1.3187938152467669e-15
230
-1
0
CIRCLE
5
176
100
AcDbEntity
8
0
100
AcDbCircle
10
438.79273954616372
20
-294.76100545421457
30
4.1604444012283954e-05
40
2.6000000000000503
210
5.371935449952319e-22
220
-1.3187938152467669e-15
230
-1
0
CIRCLE
5
177
100
AcDbEntity
8
0
100
AcDbCircle
10
713.70995107427689
20
-336.93417702841248
30
4.1604442362598961e-05
40
1.5500000000000402
210
5.371935449952319e-22
220
-1.3187938152467669e-15
230
-1
0
CIRCLE
5
178
100
AcDbEntity
8
0
100
AcDbCircle
10
529.13782882836676
20
-6.1228484521527449
30
4.1604455568747653e-05
40
1.5500000000000402
210
5.3719354499514463e-22
220
-1.318793815246464e-15
230
-1
0
CIRCLE
5
179
100
AcDbEntity
8
0
100
AcDbCircle
10
560.13782539936028
20
-6.1083960702914553
30
4.1604455568728571e-05
40
1.55000000000008
210
5.3719354499514463e-22
220
-1.318793815246464e-15
230
-1
0
CIRCLE
5
180
100
AcDbEntity
8
0
100
AcDbCircle
10
544.64505330479426
20
-21.615620546719043
30
4.1604454949690947e-05
40
11.500000000000304
210
5.3719354499514473e-22
220
-1.3187938152464642e-15
230
-1
0
CIRCLE
5
181
100
AcDbEntity
8
0
100
AcDbCircle
10
438.79301782984032
20
-44.976430119742844
30
4.1604454056793544e-05
40
2.5999999999999805
210
5.371935449952319e-22
220
-1.3187938152467669e-15
230
-1
0
CIRCLE
5
182
100
AcDbEntity
8
0
100
AcDbCircle
10
682.72442469732539
20
-305.91971015981528
30
4.1604443600674209e-05
40
1.55000000000008
210
5.371935449952319e-22
220
-1.3187938152467669e-15
230
-1
0
CIRCLE
5
183
100
AcDbEntity
8
0
100
AcDbCircle
10
407.62602169865329
20
-305.91957383662339
30
4.1604443600674182e-05
40
1.5500000000000802
210
5.37193544995232e-22
220
-1.3187938152467671e-15
230
-1
0
CIRCLE
5
184
100
AcDbEntity
8
0
100
AcDbCircle
10
407.64046122078969
20
-336.91957047372455
30
4.1604442362579859e-05
40
1.5500000000000502
210
5.371935449952319e-22
220
-1.3187938152467669e-15
230
-1
0
CIRCLE
5
185
100
AcDbEntity
8
0
100
AcDbCircle
10
360.120562437329
20
-24.81361482082729
30
4.1604454811800001e-05
40
2.0750000000000002
210
5.37193544995232e-22
220
-1.3187938152467671e-15
230
-1
0
CIRCLE
5
186
100
AcDbEntity
8
0
100
AcDbCircle
10
479.620574106508
20
15.686350747876787
30
4.1604456463691393e-05
40
2.1000000000000099
210
5.37193544995232e-22
220
-1.3187938152467671e-15
230
-1
0
CIRCLE
5
187
100
AcDbEntity
8
0
100
AcDbCircle
10
400.62046778728291
20
-353.31362649000187
30
4.1604441673657503e-05
40
2.1000000000000099
210
5.37193544995232e-22
220
-1.3187938152467671e-15
230
-1
0
CIRCLE
5
188
100
AcDbEntity
8
0
100
AcDbCircle
10
360.12052094689841
20
-168.81361482082377
30
4.1604449104201598e-05
40
2.0750000000000002
210
5.37193544995232e-22
220
-1.3187938152467671e-15
230
-1
0
CIRCLE
5
189
100
AcDbEntity
8
0
100
AcDbCircle
10
400.62057410651113
20
15.686373509987988
30
4.1604456463691406e-05
40
2.1000000000000099
210
5.37193544995232e-22
220
-1.3187938152467671e-15
230
-1
0
CIRCLE
5
190
100
AcDbEntity
8
0
100
AcDbCircle
10
360.12047945646782
20
-312.8136148208194
30
4.1604443325548936e-05
40
2.0750000000000099
210
5.37193544995232e-22
220
-1.3187938152467671e-15
230
-1
0
CIRCLE
5
191
100
AcDbEntity
8
0
100
AcDbCircle
10
729.12047945645509
20
-312.81372114004768
30
4.1604443325548875e-05
40
2.0750000000000099
210
5.37193544995232e-22
220
-1.3187938152467671e-15
230
-1
0
CIRCLE
5
192
100
AcDbEntity
8
0
100
AcDbCircle
10
688.62057410650118
20
15.686290529126907
30
4.1604456463691359e-05
40
2.1000000000000099
210
5.37193544995232e-22
220
-1.3187938152467671e-15
230
-1
0
CIRCLE
5
193
100
AcDbEntity
8
0
100
AcDbCircle
10
729.12052094688556
20
-168.81372114005202
30
4.1604449033147271e-05
40
2.0750000000000002
210
5.37193544995232e-22
220
-1.3187938152467671e-15
230
-1
0
CIRCLE
5
194
100
AcDbEntity
8
0
100
AcDbCircle
10
688.6204677872729
20
-353.31370947086299
30
4.1604441673657463e-05
40
2.1000000000000099
210
5.37193544995232e-22
220
-1.3187938152467671e-15
230
-1
0
CIRCLE
5
195
100
AcDbEntity
8
0
100
AcDbCircle
10
609.62057410650368
20
15.686313291238108
30
4.1604456463691379e-05
40
2.1000000000000099
210
5.37193544995232e-22
220
-1.3187938152467671e-15
230
-1
0
CIRCLE
5
196
100
AcDbEntity
8
0
100
AcDbCircle
10
729.12056243731627
20
-24.813721140055556
30
4.160445481179994e-05
40
2.0750000000000002
210
5.37193544995232e-22
220
-1.3187938152467671e-15
230
-1
0
CIRCLE
5
197
100
AcDbEntity
8
0
100
AcDbCircle
10
544.62046778727756
20
-353.3136679804324
30
4.160444167365749e-05
40
2.1000000000000099
210
5.37193544995232e-22
220
-1.3187938152467671e-15
230
-1
0
LWPOLYLINE
5
198
100
AcDbEntity
8
0
100
AcDbPolyline
90
55
70
1
43
0.0
10
-324.77206490199649
20
-343.81360380998206
10
-324.77204428309534
20
-362.32091793532891
42
0.41421356237311585
10
-323.77204316900128
20
-363.32091682123337
10
-202.00839211778842
20
-363.3207811649911
42
0.41421356237311585
10
-201.00839323188399
20
-362.32078005089693
10
-201.00841385066954
20
-343.81356980214406
42
-0.41421380429324683
10
-200.00841413879817
20
-342.81356868804914
10
-179.92822272899707
20
-342.81356290296122
10
-179.92832299753641
20
5.1864370985542507
10
-180.06638498974303
20
5.1864370578224221
42
0.26577907928484135
10
-180.9283283921356
20
5.6794368094724295
10
-199.92780404494781
20
5.6794313351916408
42
-0.41421332045298531
10
-200.92780433307519
20
6.6794302210966112
10
-200.9278255005176
20
25.679109859201326
42
0.41421332045297421
10
-201.92782578864467
20
26.679108745106262
10
-323.77247683997064
20
26.679073638251936
42
0.4142138042932455
10
-324.77247655184215
20
25.67907252415694
10
-324.77245538440314
20
6.6793961899202277
42
-0.41421380429323706
10
-325.77245509627454
20
5.6793950758253171
10
-369.92857122321266
20
5.6793823532123255
42
-0.18131661927189835
10
-370.58605312886499
20
5.9259117681075368
42
-0.065972810507186744
10
-370.62057136929354
20
6.1863821538277382
10
-370.6205768437253
20
25.186382153826983
42
0.41421356237307683
10
-371.62057713185328
20
26.186381865699015
10
-508.62057713184726
20
26.186342392164352
42
0.41421356237304952
10
-509.62057684371905
20
25.186342104036402
10
-509.62057136928752
20
6.186342104037152
42
-0.41421356237310347
10
-510.62057108115943
20
5.1863418159091719
10
-578.62057108115653
20
5.1863222232058881
42
-0.41421356237310086
10
-579.62057136928445
20
6.1863219350778582
10
-579.62057684371621
20
25.186321935077103
42
0.41421356237310281
10
-580.62057713184436
20
26.1863216469491
10
-616.79092731089031
20
26.186311225258795
10
-616.79092207082124
20
7.9997097273835349
42
-0.41421356237311063
10
-617.7909217826932
20
6.9997094392555415
10
-646.92785988320497
20
6.9997010440881349
42
-0.41421356237299978
10
-647.92786017133278
20
7.9997007559601148
10
-647.92786541140174
20
26.186302253835375
10
-717.62057713183879
20
26.186282173414472
42
0.41421356237311452
10
-718.62057684371075
20
25.186281885286522
10
-718.62057136927899
20
6.1862818852872721
42
-0.41421356237313861
10
-719.62057108115107
20
5.186281597159291
10
-738.62057108115027
20
5.1862761227275369
42
0.41421356237307344
10
-739.62057079302213
20
4.186275834599587
10
-739.62047110073763
20
-341.81372416538636
42
0.4142135623730534
10
-738.62047081260982
20
-342.81372387725821
10
-719.62047081261062
20
-342.8137184028264
42
-0.41421356237307422
10
-718.62047052448258
20
-343.81371811469847
10
-718.62046505005083
20
-362.81371811469774
42
0.41421356237307422
10
-717.6204647619229
20
-363.8137178265697
10
-371.62046476193723
20
-363.81361813428521
42
0.41421356237303258
10
-370.62046505006538
20
-362.81361784615717
10
-370.62047052449714
20
-343.81361784615797
42
-0.41421356237309503
10
-369.62047081262517
20
-342.81361755803005
10
-325.77206519012395
20
-342.81360492407703
42
-0.41421332045294307
0
CIRCLE
5
199
100
AcDbEntity
8
0
100
AcDbCircle
10
-190.44819383111138
20
-168.29356593347705
30
6.7501559897209518e-12
40
2.0999999999999921
210
4.1635904520599941e-17
220
3.9994967557067139e-14
230
1
0
LWPOLYLINE
5
200
100
AcDbEntity
8
0
100
AcDbPolyline
90
4
70
1
43
0.0
10
-247.86504784841952
20
-118.32242044707382
10
-247.8753212675953
20
-218.32241933364531
42
-1.0000000105367122
10
-277.87532110931301
20
-218.31933762397566
10
-277.86504769007223
20
-118.31933810520171
42
-0.99999998946328783
0
CIRCLE
5
201
100
AcDbEntity
8
0
100
AcDbCircle
10
-190.43159405601676
20
-24.813425771241757
30
1.0658141036401503e-12
40
2.0999999999999921
210
4.1635904520599941e-17
220
3.9994967557067139e-14
230
1
0
CIRCLE
5
202
100
AcDbEntity
8
0
100
AcDbCircle
10
-190.46491389542069
20
-312.8134258084483
30
1.2505552149377763e-11
40
2.1000000000000121
210
4.1635904520599941e-17
220
3.9994967557067139e-14
230
1
0
CIRCLE
5
203
100
AcDbEntity
8
0
100
AcDbCircle
10
-294.77205487446776
20
-352.81419530694592
30
1.4068746168049984e-11
40
2.1000000000000121
210
4.1635904520599941e-17
220
3.9994967557067139e-14
230
1
0
CIRCLE
5
204
100
AcDbEntity
8
0
100
AcDbCircle
10
-231.00840383868575
20
-352.80024049224028
30
1.4068746168049984e-11
40
2.0999999999999921
210
4.1635904520599941e-17
220
3.9994967557067139e-14
230
1
0
CIRCLE
5
205
100
AcDbEntity
8
0
100
AcDbCircle
10
-230.92781491679602
20
16.179261396309279
30
-6.3948846218409017e-13
40
2.0999999999999921
210
4.1635904520599941e-17
220
3.9994967557067139e-14
230
1
0
CIRCLE
5
206
100
AcDbEntity
8
0
100
AcDbCircle
10
-294.77246596811534
20
16.179243000878323
30
-6.3948846218409017e-13
40
2.1000000000000121
210
4.1635904520599941e-17
220
3.9994967557067139e-14
230
1
0
CIRCLE
5
207
100
AcDbEntity
8
0
100
AcDbCircle
10
-376.62602506155065
20
-305.93401335875677
30
1.2221335055073723e-11
40
1.5500000000000502
210
4.1635904520599948e-17
220
3.9994967557067132e-14
230
1
0
CIRCLE
5
208
100
AcDbEntity
8
0
100
AcDbCircle
10
-650.83035786043126
20
-294.76124168420449
30
1.1866063687193673e-11
40
2.600000000000052
210
4.1635904520599948e-17
220
3.9994967557067139e-14
230
1
0
CIRCLE
5
209
100
AcDbEntity
8
0
100
AcDbCircle
10
-698.21718788016506
20
-321.42694359410973
30
1.2860823517257813e-11
40
11.500000000000201
210
4.1635904520599923e-17
220
3.9994967557067132e-14
230
1
0
CIRCLE
5
210
100
AcDbEntity
8
0
100
AcDbCircle
10
-529.15228121022449
20
-37.122845023146276
30
1.4921397450962104e-12
40
1.55000000000004
210
4.1635904520599929e-17
220
3.9994967557067126e-14
230
1
0
CIRCLE
5
211
100
AcDbEntity
8
0
100
AcDbCircle
10
-650.83063614410673
20
-44.976666349736121
30
1.8474111129762605e-12
40
2.5999999999999828
210
4.1635904520599948e-17
220
3.9994967557067139e-14
230
1
0
CIRCLE
5
212
100
AcDbEntity
8
0
100
AcDbCircle
10
-560.15227778121755
20
-37.108392641284965
30
1.4921397450962104e-12
40
1.5500000000000695
210
4.1635904520599929e-17
220
3.9994967557067126e-14
230
1
0
CIRCLE
5
213
100
AcDbEntity
8
0
100
AcDbCircle
10
-713.72442132009439
20
-305.93418040563404
30
1.2221335055073723e-11
40
1.55000000000004
210
4.1635904520599929e-17
220
3.9994967557067126e-14
230
1
0
CIRCLE
5
214
100
AcDbEntity
8
0
100
AcDbCircle
10
-682.70995445149777
20
-336.91970678258542
30
1.3500311979441904e-11
40
1.55000000000004
210
4.1635904520599929e-17
220
3.9994967557067126e-14
230
1
0
CIRCLE
5
215
100
AcDbEntity
8
0
100
AcDbCircle
10
-392.13324314679915
20
-321.42679191623802
30
1.2860823517257813e-11
40
11.500000000000201
210
4.1635904520599948e-17
220
3.9994967557067132e-14
230
1
0
CIRCLE
5
216
100
AcDbEntity
8
0
100
AcDbCircle
10
-376.64046458368688
20
-336.93400999585748
30
1.3500311979441904e-11
40
1.5500000000000502
210
4.1635904520599948e-17
220
3.9994967557067132e-14
230
1
0
CIRCLE
5
217
100
AcDbEntity
8
0
100
AcDbCircle
10
-438.79273954616053
20
-294.76100545421082
30
1.1866063687193673e-11
40
2.600000000000052
210
4.1635904520599948e-17
220
3.9994967557067139e-14
230
1
0
CIRCLE
5
218
100
AcDbEntity
8
0
100
AcDbCircle
10
-713.70995107427177
20
-336.9341770284081
30
1.3500311979441904e-11
40
1.55000000000004
210
4.1635904520599929e-17
220
3.9994967557067126e-14
230
1
0
CIRCLE
5
219
100
AcDbEntity
8
0
100
AcDbCircle
10
-529.1378288283629
20
-6.1228484521527804
30
2.8421709430404007e-13
40
1.55000000000004
210
4.1635904520599929e-17
220
3.9994967557067126e-14
230
1
0
CIRCLE
5
220
100
AcDbEntity
8
0
100
AcDbCircle
10
-560.13782539935619
20
-6.1083960702914908
30
2.8421709430404007e-13
40
1.5500000000000798
210
4.1635904520599929e-17
220
3.9994967557067126e-14
230
1
0
CIRCLE
5
221
100
AcDbEntity
8
0
100
AcDbCircle
10
-544.64505330479028
20
-21.615620546718883
30
9.2370555648813024e-13
40
11.500000000000302
210
4.1635904520599923e-17
220
3.9994967557067132e-14
230
1
0
CIRCLE
5
222
100
AcDbEntity
8
0
100
AcDbCircle
10
-438.79301782983714
20
-44.976430119742389
30
1.7763568394002505e-12
40
2.5999999999999828
210
4.1635904520599948e-17
220
3.9994967557067139e-14
230
1
0
CIRCLE
5
223
100
AcDbEntity
8
0
100
AcDbCircle
10
-682.72442469732039
20
-305.91971015981136
30
1.2221335055073723e-11
40
1.5500000000000798
210
4.1635904520599929e-17
220
3.9994967557067126e-14
230
1
0
CIRCLE
5
224
100
AcDbEntity
8
0
100
AcDbCircle
10
-407.62602169865039
20
-305.91957383661952
30
1.2221335055073723e-11
40
1.55000000000008
210
4.1635904520599948e-17
220
3.9994967557067132e-14
230
1
0
CIRCLE
5
225
100
AcDbEntity
8
0
100
AcDbCircle
10
-407.64046122078668
20
-336.91957047372028
30
1.3500311979441904e-11
40
1.5500000000000502
210
4.1635904520599948e-17
220
3.9994967557067132e-14
230
1
0
CIRCLE
5
226
100
AcDbEntity
8
0
100
AcDbCircle
10
-360.12056243732627
20
-24.813614820827095
30
1.0658141036401503e-12
40
2.0749999999999997
210
4.1635904520599948e-17
220
3.9994967557067139e-14
230
1
0
CIRCLE
5
227
100
AcDbEntity
8
0
100
AcDbCircle
10
-479.62057410650453
20
15.686350747876467
30
-6.3948846218409017e-13
40
2.1000000000000094
210
4.1635904520599948e-17
220
3.9994967557067139e-14
230
1
0
CIRCLE
5
228
100
AcDbEntity
8
0
100
AcDbCircle
10
-400.62046778727995
20
-353.31362648999732
30
1.4139800441625994e-11
40
2.1000000000000094
210
4.1635904520599948e-17
220
3.9994967557067139e-14
230
1
0
CIRCLE
5
229
100
AcDbEntity
8
0
100
AcDbCircle
10
-360.12052094689579
20
-168.81361482082167
30
6.7501559897209518e-12
40
2.0749999999999997
210
4.1635904520599948e-17
220
3.9994967557067139e-14
230
1
0
CIRCLE
5
230
100
AcDbEntity
8
0
100
AcDbCircle
10
-400.62057410650823
20
15.686373509987668
30
-6.3948846218409017e-13
40
2.1000000000000094
210
4.1635904520599948e-17
220
3.9994967557067139e-14
230
1
0
CIRCLE
5
231
100
AcDbEntity
8
0
100
AcDbCircle
10
-360.12047945646532
20
-312.81361482081536
30
1.2505552149377763e-11
40
2.0750000000000095
210
4.1635904520599948e-17
220
3.9994967557067139e-14
230
1
0
CIRCLE
5
232
100
AcDbEntity
8
0
100
AcDbCircle
10
-729.12047945644986
20
-312.81372114004364
30
1.2505552149377763e-11
40
2.0750000000000095
210
4.1635904520599948e-17
220
3.9994967557067139e-14
230
1
0
CIRCLE
5
233
100
AcDbEntity
8
0
100
AcDbCircle
10
-688.62057410649629
20
15.686290529126588
30
-6.3948846218409017e-13
40
2.1000000000000094
210
4.1635904520599948e-17
220
3.9994967557067139e-14
230
1
0
CIRCLE
5
234
100
AcDbEntity
8
0
100
AcDbCircle
10
-729.12052094688033
20
-168.81372114004992
30
6.8212102632969618e-12
40
2.0749999999999997
210
4.1635904520599948e-17
220
3.9994967557067139e-14
230
1
0
CIRCLE
5
235
100
AcDbEntity
8
0
100
AcDbCircle
10
-688.6204677872679
20
-353.31370947085838
30
1.4139800441625994e-11
40
2.1000000000000094
210
4.1635904520599948e-17
220
3.9994967557067139e-14
230
1
0
CIRCLE
5
236
100
AcDbEntity
8
0
100
AcDbCircle
10
-609.62057410649913
20
15.686313291237788
30
-6.3948846218409017e-13
40
2.1000000000000094
210
4.1635904520599948e-17
220
3.9994967557067139e-14
230
1
0
CIRCLE
5
237
100
AcDbEntity
8
0
100
AcDbCircle
10
-729.12056243731081
20
-24.81372114005536
30
1.0658141036401503e-12
40
2.0749999999999997
210
4.1635904520599948e-17
220
3.9994967557067139e-14
230
1
0
CIRCLE
5
238
100
AcDbEntity
8
0
100
AcDbCircle
10
-544.62046778727358
20
-353.31366798042779
30
1.4139800441625994e-11
40
2.1000000000000094
210
4.1635904520599948e-17
220
3.9994967557067139e-14
230
1
0
ENDSEC
0
SECTION
2
OBJECTS
0
DICTIONARY
5
C
100
AcDbDictionary
3
ACAD_GROUP
350
D
3
ACAD_MLINESTYLE
350
17
0
DICTIONARY
5
D
100
AcDbDictionary
0
DICTIONARY
5
1A
330
C
100
AcDbDictionary
0
DICTIONARY
5
17
100
AcDbDictionary
0
ENDSEC
0
EOF
