0
SECTION
2
HEADER
9
$INSUNITS
70
4
9
$ACADVER
1
AC1014
9
$HANDSEED
5
FFFF
0
ENDSEC
0
SECTION
2
TABLES
0
TABLE
2
VPORT
5
8
100
AcDbSymbolTable
0
ENDTAB
0
TABLE
2
LTYPE
5
5
100
AcDbSymbolTable
0
LTYPE
5
14
100
AcDbSymbolTableRecord
100
AcDbLinetypeTableRecord
2
BYBLOCK
70
0
0
LTYPE
5
15
100
AcDbSymbolTableRecord
100
AcDbLinetypeTableRecord
2
BYLAYER
70
0
0
ENDTAB
0
TABLE
2
LAYER
5
2
100
AcDbSymbolTable
70
2
0
LAYER
5
50
100
AcDbSymbolTableRecord
100
AcDbLayerTableRecord
2
0
70
0
6
CONTINUOUS
0
ENDTAB
0
TABLE
2
STYLE
5
3
100
AcDbSymbolTable
70
1
0
STYLE
5
11
100
AcDbSymbolTableRecord
100
AcDbTextStyleTableRecord
2
STANDARD
70
0
0
ENDTAB
0
TABLE
2
VIEW
5
6
100
AcDbSymbolTable
70
0
0
ENDTAB
0
TABLE
2
UCS
5
7
100
AcDbSymbolTable
70
0
0
ENDTAB
0
TABLE
2
APPID
5
9
100
AcDbSymbolTable
70
2
0
APPID
5
12
100
AcDbSymbolTableRecord
100
AcDbRegAppTableRecord
2
ACAD
70
0
0
ENDTAB
0
TABLE
2
DIMSTYLE
5
A
100
AcDbSymbolTable
70
1
0
ENDTAB
0
TABLE
2
BLOCK_RECORD
5
1
100
AcDbSymbolTable
70
1
0
BLOCK_RECORD
5
1F
100
AcDbSymbolTableRecord
100
AcDbBlockTableRecord
2
*MODEL_SPACE
0
BLOCK_RECORD
5
1B
100
AcDbSymbolTableRecord
100
AcDbBlockTableRecord
2
*PAPER_SPACE
0
ENDTAB
0
ENDSEC
0
SECTION
2
BLOCKS
0
BLOCK
5
20
100
AcDbEntity
100
AcDbBlockBegin
2
*MODEL_SPACE
0
ENDBLK
5
21
100
AcDbEntity
100
AcDbBlockEnd
0
BLOCK
5
1C
100
AcDbEntity
100
AcDbBlockBegin
2
*PAPER_SPACE
0
ENDBLK
5
1D
100
AcDbEntity
100
AcDbBlockEnd
0
ENDSEC
0
SECTION
2
ENTITIES
0
LWPOLYLINE
5
100
100
AcDbEntity
8
0
100
AcDbPolyline
90
4
70
1
43
0.0
10
155.58990348655044
20
118.32222673054122
10
155.60028831523107
20
218.32222592170766
42
-0.99999999999999989
10
185.60028815346428
20
218.31911047309504
10
185.58990332478351
20
118.31911128192868
42
-0.99999999999999989
0
LINE
5
101
100
AcDbEntity
8
0
100
AcDbLine
10
232.49717175861977
20
343.81332441161032
30
-5.4711790653527714e-12
11
232.49717175861971
21
362.32063853696832
31
-5.7553961596568115e-12
0
ARC
5
102
100
AcDbEntity
8
0
100
AcDbCircle
10
231.49717175861966
20
362.32063853696837
30
-5.8264504332328215e-12
40
1.0000000000000497
210
-7.1054273576006484e-14
220
5.0487097934139733e-27
230
1
100
AcDbArc
50
0
51
89.99999999999838
0
LINE
5
103
100
AcDbEntity
8
0
100
AcDbLine
10
231.49717175861969
20
363.32063853696837
30
-5.8264504332328215e-12
11
109.73352070733029
21
363.32063853696837
31
-5.8264504332328215e-12
0
ARC
5
104
100
AcDbEntity
8
0
100
AcDbCircle
10
109.73352070733014
20
362.32063853696843
30
-5.7553961596568115e-12
40
0.99999999999994316
210
1.0097419586830099e-26
220
7.1054273576014058e-14
230
1
100
AcDbArc
50
89.999999999991857
51
180
0
LINE
5
105
100
AcDbEntity
8
0
100
AcDbLine
10
108.7335207073302
20
362.32063853696843
30
-5.7553961596568115e-12
11
108.7335207073302
21
343.81342828820351
31
-5.5422333389287814e-12
0
ARC
5
106
100
AcDbEntity
8
0
100
AcDbCircle
10
107.73352070733026
20
343.81342828820351
30
-2.3321586439806197e-06
40
1.0000000000000711
210
5.8688464460628972e-20
220
7.1054273575980736e-14
230
1
100
AcDbArc
50
-90.00004732440641
51
0.00013362034904796711
0
LINE
5
107
100
AcDbEntity
8
0
100
AcDbLine
10
107.73351988136355
20
342.8134282882038
30
-2.3321585729263461e-06
11
87.653328471572109
21
342.81345063243054
31
-2.3321570097323274e-06
0
LINE
5
108
100
AcDbEntity
8
0
100
AcDbLine
10
87.653328471572109
20
342.81345063243054
30
-2.3321570097323274e-06
11
87.653041035133441
21
-5.1865646262449872
31
-2.3321489095451398e-06
0
LINE
5
109
100
AcDbEntity
8
0
100
AcDbLine
10
87.653041035133441
20
-5.1865646262449872
30
-2.3321489095451398e-06
11
87.791105821773812
21
-5.1865647402820159
31
-2.3321517517160828e-06
0
ARC
5
110
100
AcDbEntity
8
0
100
AcDbCircle
10
88.65304670627873
20
-4.6795559522910715
30
-0.00017267511363488358
40
1.0000000000028653
210
-2.010177066574688e-06
220
-1.1824215055790477e-06
230
0.99999999999728062
100
AcDbArc
50
210.46479122155674
51
269.99995267559359
0
LINE
5
111
100
AcDbEntity
8
0
100
AcDbLine
10
88.653045880491135
20
-5.6795559520833905
30
1.4210854715202004e-13
11
107.65252153329783
21
-5.679571645018342
31
1.4210854715202004e-13
0
ARC
5
112
100
AcDbEntity
8
0
100
AcDbCircle
10
107.65252070733112
20
-6.6795716450180365
30
1.4210854715202004e-13
40
0.99999999999994316
210
0
220
0
230
1
100
AcDbArc
50
0
51
89.99995267559359
0
LINE
5
113
100
AcDbEntity
8
0
100
AcDbLine
10
108.65252070733106
20
-6.6795716450180365
30
1.4210854715202004e-13
11
108.65252070733106
21
-25.679251283134086
31
4.2632564145606011e-13
0
ARC
5
114
100
AcDbEntity
8
0
100
AcDbCircle
10
109.65252070733108
20
-25.67925128313405
30
4.2632564145606011e-13
40
1.0000000000000142
210
0
220
0
230
1
100
AcDbArc
50
180
51
269.99995267559359
0
LINE
5
115
100
AcDbEntity
8
0
100
AcDbLine
10
109.65251988136437
20
-26.679251283133709
30
4.2632564145606011e-13
11
231.4971709326544
21
-26.679351922763175
31
4.2632564145606011e-13
0
ARC
5
116
100
AcDbEntity
8
0
100
AcDbCircle
10
231.49717175862105
20
-25.679351922763409
30
4.2632564145606011e-13
40
1.0000000000001066
210
0
220
0
230
1
100
AcDbArc
50
269.99995267559683
51
360
0
LINE
5
117
100
AcDbEntity
8
0
100
AcDbLine
10
232.49717175862116
20
-25.679351922763516
30
4.2632564145606011e-13
11
232.49717175862179
21
-6.6796755885144066
31
1.4210854715202004e-13
0
ARC
5
118
100
AcDbEntity
8
0
100
AcDbCircle
10
233.49717175862173
20
-6.6796755885144066
30
1.4210854715202004e-13
40
1.0000000000000355
210
0
220
-0
230
1
100
AcDbArc
50
89.999952675590336
51
180
0
LINE
5
119
100
AcDbEntity
8
0
100
AcDbLine
10
233.4971725845885
20
-5.6796755885147121
30
1.4210854715202004e-13
11
277.65328871151371
21
-5.6797120599980744
31
1.4210854715202004e-13
0
ARC
5
120
100
AcDbEntity
8
0
100
AcDbCircle
10
277.65328788554689
20
-6.6797120599977688
30
1.4210854715202004e-13
40
1.0000000000000135
210
0
220
-0
230
1
100
AcDbArc
50
48.891847893787606
51
89.999952675587082
0
ARC
5
121
100
AcDbEntity
8
0
100
AcDbCircle
10
277.34528829274842
20
-6.1867118056000692
30
-2.3321517517160828e-06
40
1.0000000000000355
210
0
220
0
230
1
100
AcDbArc
50
-4.7320938686858854e-05
51
15.097928257878232
0
LINE
5
122
100
AcDbEntity
8
0
100
AcDbLine
10
278.34528829274814
20
-6.1867126315668131
30
-2.3321517517160828e-06
11
278.34527259938
21
-25.186712631560617
31
-2.3321514674989885e-06
0
ARC
5
123
100
AcDbEntity
8
0
100
AcDbCircle
10
279.34527259937971
20
-25.186713457527361
30
-2.3321514674989885e-06
40
1.0000000000000355
210
0
220
0
230
1
100
AcDbArc
50
179.99995267906135
51
269.99995267559035
0
LINE
5
124
100
AcDbEntity
8
0
100
AcDbLine
10
279.34527177341295
20
-26.186713457527055
30
-2.3321514674989885e-06
11
416.34527177336679
21
-26.186826614970649
31
-2.3321514674989885e-06
0
ARC
5
125
100
AcDbEntity
8
0
100
AcDbCircle
10
416.3452725993335
20
-25.18682661497099
30
-2.3321515385532621e-06
40
1
210
5.8688464460637314e-20
220
7.1054273575985785e-14
230
1
100
AcDbArc
50
269.99995267559359
51
359.99995267906132
0
LINE
5
126
100
AcDbEntity
8
0
100
AcDbLine
10
417.34527259933321
20
-25.186827440937734
30
-2.3321515385532621e-06
11
417.3452882927013
21
-6.1868274409439294
31
-2.3321518227703564e-06
0
ARC
5
127
100
AcDbEntity
8
0
100
AcDbCircle
10
418.34528829270107
20
-6.1868282669106733
30
-2.3321518227703564e-06
40
1.0000000000000355
210
0
220
-0
230
1
100
AcDbArc
50
89.999952675590336
51
179.99995267906135
0
LINE
5
128
100
AcDbEntity
8
0
100
AcDbLine
10
418.34528911866784
20
-5.1868282669109789
30
-2.3321518227703564e-06
11
486.34528911864498
21
-5.1868844326494568
31
-2.3321518227703564e-06
0
ARC
5
129
100
AcDbEntity
8
0
100
AcDbCircle
10
486.34528829267828
20
-6.1868844326491157
30
-2.3321518227703564e-06
40
1
210
0
220
0
230
1
100
AcDbArc
50
-4.7320938686858854e-05
51
89.99995267559359
0
LINE
5
130
100
AcDbEntity
8
0
100
AcDbLine
10
487.34528829267794
20
-6.1868852586158596
30
-2.3321518227703564e-06
11
487.34527259930985
21
-25.186885258609664
31
-2.3321515385532621e-06
0
ARC
5
131
100
AcDbEntity
8
0
100
AcDbCircle
10
488.34527259930957
20
-25.186886084576408
30
-2.3321515385532621e-06
40
1.0000000000000711
210
0
220
0
230
1
100
AcDbArc
50
179.99995267906135
51
269.99995267559359
0
LINE
5
132
100
AcDbEntity
8
0
100
AcDbLine
10
488.34527177334286
20
-26.186886084576102
30
-2.3321515385532621e-06
11
524.5156219523783
21
-26.186915960082331
31
-2.3321515385532621e-06
0
LINE
5
133
100
AcDbEntity
8
0
100
AcDbLine
10
524.5156219523783
20
-26.186915960082331
30
-2.3321515385532621e-06
11
524.51563697390623
21
-8.0003144622122591
31
-2.3321518227703564e-06
0
ARC
5
134
100
AcDbEntity
8
0
100
AcDbCircle
10
525.51563697390588
20
-8.0003152881790029
30
-2.3321518227703564e-06
40
1.0000000000000355
210
0
220
-0
230
1
100
AcDbArc
50
89.99995267559359
51
179.99995267906135
0
LINE
5
135
100
AcDbEntity
8
0
100
AcDbLine
10
525.51563779987259
20
-7.0003152881793085
30
-2.3321518227703564e-06
11
554.65257590037572
21
-7.00033935432117
31
-2.3321518227703564e-06
0
ARC
5
136
100
AcDbEntity
8
0
100
AcDbCircle
10
554.65257507440901
20
-8.0003393543208645
30
-2.3321518227703564e-06
40
1
210
0
220
0
230
1
100
AcDbArc
50
-4.7320938686858854e-05
51
89.99995267559359
0
LINE
5
137
100
AcDbEntity
8
0
100
AcDbLine
10
555.65257507440867
20
-8.0003401802875729
30
-2.3321518227703564e-06
11
555.65256005288074
21
-26.186941678157645
31
-2.3321515385532621e-06
0
LINE
5
138
100
AcDbEntity
8
0
100
AcDbLine
10
555.65256005288074
20
-26.186941678157645
30
-2.3321515385532621e-06
11
625.34527177329744
21
-26.186999242019695
31
-2.3321515385532621e-06
0
ARC
5
139
100
AcDbEntity
8
0
100
AcDbCircle
10
625.34527259926426
20
-25.186999242020036
30
-2.3321515385532621e-06
40
1
210
0
220
0
230
1
100
AcDbArc
50
269.99995267558705
51
359.99995267906132
0
LINE
5
140
100
AcDbEntity
8
0
100
AcDbLine
10
626.34527259926381
20
-25.18700006798678
30
-2.3321515385532621e-06
11
626.34528829263195
21
-6.187000067992976
31
-2.3321518227703564e-06
0
ARC
5
141
100
AcDbEntity
8
0
100
AcDbCircle
10
627.34528829263161
20
-6.1870008939597199
30
-2.3321518227703564e-06
40
1.0000000000000355
210
0
220
-0
230
1
100
AcDbArc
50
89.99995267559359
51
179.99995267906135
0
LINE
5
142
100
AcDbEntity
8
0
100
AcDbLine
10
627.34528911859832
20
-5.1870008939600254
30
-2.3321518227703564e-06
11
646.34528911859206
21
-5.1870165873281593
31
-2.33215189382463e-06
0
ARC
5
143
100
AcDbEntity
8
0
100
AcDbCircle
10
646.34528994455877
20
-4.1870165873284648
30
-2.33215189382463e-06
40
1.0000000000000355
210
0
220
0
230
1
100
AcDbArc
50
269.99995267559359
51
359.99995267906132
0
LINE
5
144
100
AcDbEntity
8
0
100
AcDbLine
10
647.34528994455843
20
-4.1870174132951732
30
-2.33215189382463e-06
11
647.34557572905101
21
341.81298258659183
31
-2.332157080786601e-06
0
ARC
5
145
100
AcDbEntity
8
0
100
AcDbCircle
10
646.34557572905135
20
341.81298341255854
30
-2.332157080786601e-06
40
1
210
0
220
0
230
1
100
AcDbArc
50
-4.7320938686858854e-05
51
89.999952675587082
0
LINE
5
146
100
AcDbEntity
8
0
100
AcDbLine
10
646.34557655501817
20
342.8129834125582
30
-2.3321571518408746e-06
11
627.34557655502454
21
342.81299910592634
31
-2.3321571518408746e-06
0
ARC
5
147
100
AcDbEntity
8
0
100
AcDbCircle
10
627.34557738099124
20
343.812999105926
30
-2.3321571518408746e-06
40
1.0000000000000711
210
0
220
0
230
1
100
AcDbArc
50
179.99995267906135
51
269.99995267559359
0
LINE
5
148
100
AcDbEntity
8
0
100
AcDbLine
10
626.34557738099159
20
343.8129999318927
30
-2.3321571518408746e-06
11
626.34559307435961
21
362.81299993188657
31
-2.3321574360579689e-06
0
ARC
5
149
100
AcDbEntity
8
0
100
AcDbCircle
10
625.34559307435995
20
362.81300075785327
30
-2.3321574360579689e-06
40
1
210
0
220
0
230
1
100
AcDbArc
50
-4.7320938686858854e-05
51
89.99995267559359
0
LINE
5
150
100
AcDbEntity
8
0
100
AcDbLine
10
625.34559390032666
20
363.81300075785299
30
-2.3321574360579689e-06
11
279.34559390044222
21
363.81328654234562
31
-2.3321573650036953e-06
0
ARC
5
151
100
AcDbEntity
8
0
100
AcDbCircle
10
279.34559307447552
20
362.81328654234596
30
-2.3321573650036953e-06
40
1
210
0
220
-0
230
1
100
AcDbArc
50
89.99995267559359
51
179.99995267906135
0
LINE
5
152
100
AcDbEntity
8
0
100
AcDbLine
10
278.3455930744758
20
362.81328736831267
30
-2.3321573650036953e-06
11
278.34557738110772
21
343.81328736831892
31
-2.332157080786601e-06
0
ARC
5
153
100
AcDbEntity
8
0
100
AcDbCircle
10
277.34557738110806
20
343.81328819428563
30
-2.332157080786601e-06
40
1
210
0
220
0
230
1
100
AcDbArc
50
269.99995267559035
51
359.99995267906132
0
LINE
5
154
100
AcDbEntity
8
0
100
AcDbLine
10
277.34557655514129
20
342.81328819428597
30
-2.332157080786601e-06
11
233.49717093265784
21
342.81333017026679
31
-2.332157080786601e-06
0
ARC
5
155
100
AcDbEntity
8
0
100
AcDbCircle
10
233.4971717579902
20
343.81332441161044
30
0.00054221887915226977
40
1.0000000000026983
210
2.3321526043610731e-06
220
0
230
0.99999999999728062
100
AcDbArc
50
180
51
269.99995267559632
0
CIRCLE
5
156
100
AcDbEntity
8
0
100
AcDbCircle
10
-98.17310514186758
20
168.29343618472865
30
2.3321546354389898e-06
40
2.0999999999999912
210
2.7755818006331122e-16
220
9.2939906631980694e-16
230
-1
0
CIRCLE
5
157
100
AcDbEntity
8
0
100
AcDbCircle
10
-98.156345516304668
20
24.813296041074118
30
2.3321522994015446e-06
40
2.0999999999999912
210
2.7755814083040351e-16
220
9.2939906631980694e-16
230
-1
0
CIRCLE
5
158
100
AcDbEntity
8
0
100
AcDbCircle
10
-98.189986214991478
20
312.81329604098426
30
2.3321571145513257e-06
40
2.100000000000009
210
2.775581800633089e-16
220
9.2939906631980694e-16
230
-1
0
CIRCLE
5
159
100
AcDbEntity
8
0
100
AcDbCircle
10
-202.49717175862122
20
352.81394933142155
30
5.6843419000891924e-12
40
2.100000000000009
210
1.3369822196684692e-28
220
3.9704675713432288e-23
230
-1
0
CIRCLE
5
160
100
AcDbEntity
8
0
100
AcDbCircle
10
-138.73352070733122
20
352.8000655554635
30
5.755396173664645e-12
40
2.0999999999999912
210
1.4872413827942486e-28
220
3.9704675713432288e-23
230
-1
0
CIRCLE
5
161
100
AcDbEntity
8
0
100
AcDbCircle
10
-138.65252070732186
20
-16.179436243078591
30
-2.8421709494641458e-13
40
2.0999999999999912
210
1.7877598228336606e-28
220
3.9704675713432288e-23
230
-1
0
CIRCLE
5
162
100
AcDbEntity
8
0
100
AcDbCircle
10
-202.4971717586229
20
-16.179488976637018
30
-2.8421709494640822e-13
40
2.100000000000009
210
1.6375006597078812e-28
220
3.9704675713432288e-23
230
-1
0
CIRCLE
5
163
100
AcDbEntity
8
0
100
AcDbCircle
10
-284.35108971668939
20
305.93367619018386
30
2.3321566903541289e-06
40
1.5500000000000449
210
5.5304996711107369e-22
220
-1.1493099406054739e-16
230
-1
0
CIRCLE
5
164
100
AcDbEntity
8
0
100
AcDbCircle
10
-558.55541006787621
20
294.76059902603583
30
2.3321567621880942e-06
40
2.6000000000000512
210
-4.3173055434245285e-17
220
9.2939906631980694e-16
230
-1
0
CIRCLE
5
165
100
AcDbEntity
8
0
100
AcDbCircle
10
-605.94226979569942
20
321.42624814250695
30
2.3321569017359333e-06
40
11.500000000000238
210
-5.3127273404292935e-22
220
-1.1493087154898387e-16
230
-1
0
CIRCLE
5
166
100
AcDbEntity
8
0
100
AcDbCircle
10
-436.87706290349837
20
57.122337926031449
30
2.3321526744935419e-06
40
1.5500000000000362
210
-4.1899716536047502e-22
220
-1.6244333822238291e-17
230
-1
0
CIRCLE
5
167
100
AcDbEntity
8
0
100
AcDbCircle
10
-558.55541006787223
20
44.976023691409246
30
2.3321524799449885e-06
40
2.5999999999999805
210
-4.3172985686828501e-17
220
9.2939906631980674e-16
230
-1
0
CIRCLE
5
168
100
AcDbEntity
8
0
100
AcDbCircle
10
-467.87705945837126
20
57.107851007237223
30
2.3321526744937702e-06
40
1.5500000000000715
210
-4.1899704393045059e-22
220
-1.6244227089234555e-17
230
-1
0
CIRCLE
5
169
100
AcDbEntity
8
0
100
AcDbCircle
10
-621.44948597521329
20
305.93346767751359
30
2.3321566903537308e-06
40
1.5500000000000449
210
-5.312726305634413e-22
220
-1.1493078059391196e-16
230
-1
0
CIRCLE
5
170
100
AcDbEntity
8
0
100
AcDbCircle
10
-590.43505362744725
20
336.91902860750048
30
2.3321572461158839e-06
40
1.5500000000000449
210
-8.2170575463552691e-23
220
2.7981517726557495e-16
230
-1
0
CIRCLE
5
171
100
AcDbEntity
8
0
100
AcDbCircle
10
-299.85832506235204
20
321.42643747114613
30
2.3321569017363619e-06
40
11.500000000000238
210
5.5304996784913688e-22
220
-1.1493098663565284e-16
230
-1
0
CIRCLE
5
172
100
AcDbEntity
8
0
100
AcDbCircle
10
-284.36556377575914
20
336.93367281117844
30
2.3321572461201262e-06
40
1.5500000000000449
210
5.9228920723070729e-22
220
2.7981496379919307e-16
230
-1
0
CIRCLE
5
173
100
AcDbEntity
8
0
100
AcDbCircle
10
-346.51779175347207
20
294.76059902603572
30
2.3321567713424057e-06
40
2.6000000000000512
210
-4.3173055434245285e-17
220
9.2939906631980694e-16
230
-1
0
CIRCLE
5
174
100
AcDbEntity
8
0
100
AcDbCircle
10
-621.43505026632329
20
336.93346431639048
30
2.3321572461199204e-06
40
1.5500000000000449
210
-8.2170575463552691e-23
220
2.7981517726557495e-16
230
-1
0
CIRCLE
5
175
100
AcDbEntity
8
0
100
AcDbCircle
10
-436.86257598470399
20
26.122341371157827
30
2.332152177617204e-06
40
1.5500000000000362
210
-4.1899704393047504e-22
220
-1.6244227089256052e-17
230
-1
0
CIRCLE
5
176
100
AcDbEntity
8
0
100
AcDbCircle
10
-467.86257253957695
20
26.10785445236365
30
2.3321521776174234e-06
40
1.5500000000000762
210
-4.18997165360447e-22
220
-1.6244333822213836e-17
230
-1
0
CIRCLE
5
177
100
AcDbEntity
8
0
100
AcDbCircle
10
-452.36981772153769
20
41.61509618919748
30
2.3321523905283463e-06
40
11.500000000000254
210
-4.1899715965854614e-22
220
-1.6244328810430027e-17
230
-1
0
CIRCLE
5
178
100
AcDbEntity
8
0
100
AcDbCircle
10
-346.51779175346974
20
44.976023691409246
30
2.3321524180450116e-06
40
2.5999999999999805
210
-4.3172985686828501e-17
220
9.2939906631980674e-16
230
-1
0
CIRCLE
5
179
100
AcDbEntity
8
0
100
AcDbCircle
10
-590.44948933633691
20
305.9190319686237
30
2.3321566903554062e-06
40
1.5500000000000806
210
-5.3127263056341422e-22
220
-1.149307805938881e-16
230
-1
0
CIRCLE
5
180
100
AcDbEntity
8
0
100
AcDbCircle
10
-315.35108633768351
20
305.91920213111399
30
2.3321566903557967e-06
40
1.5500000000000815
210
5.5304996286721173e-22
220
-1.1493103675371553e-16
230
-1
0
CIRCLE
5
181
100
AcDbEntity
8
0
100
AcDbCircle
10
-315.36556039675315
20
336.91919875210863
30
2.3321572461160804e-06
40
1.5500000000000449
210
5.9228920298684251e-22
220
2.7981492110600025e-16
230
-1
0
CIRCLE
5
182
100
AcDbEntity
8
0
100
AcDbCircle
10
-267.84531389772064
20
24.813296041073851
30
2.3321522721576277e-06
40
2.0750000000000002
210
6.5686032206846739e-22
220
9.2939906631980694e-16
230
-1
0
CIRCLE
5
183
100
AcDbEntity
8
0
100
AcDbCircle
10
-387.34528044602723
20
-15.68680266193855
30
2.3321516660827637e-06
40
2.1000000000000099
210
6.5686032206846739e-22
220
9.2939906631980694e-16
230
-1
0
CIRCLE
5
184
100
AcDbEntity
8
0
100
AcDbCircle
10
-308.34558522778173
20
353.31326258931347
30
2.3321575512643672e-06
40
2.1000000000000099
210
6.5686032206846739e-22
220
9.2939906631980694e-16
230
-1
0
CIRCLE
5
185
100
AcDbEntity
8
0
100
AcDbCircle
10
-267.84543283693142
20
168.81329604102723
30
2.3321546086735745e-06
40
2.0750000000000002
210
6.5686032206846739e-22
220
9.2939906631980694e-16
230
-1
0
CIRCLE
5
186
100
AcDbEntity
8
0
100
AcDbCircle
10
-308.34528044605401
20
-15.686737410565961
30
2.332151595028499e-06
40
2.1000000000000099
210
6.5686032206846739e-22
220
9.2939906631980694e-16
230
-1
0
CIRCLE
5
187
100
AcDbEntity
8
0
100
AcDbCircle
10
-267.84555177614226
20
312.81329604097976
30
2.332156874135247e-06
40
2.0750000000000099
210
6.5686032206846739e-22
220
9.2939906631980694e-16
230
-1
0
CIRCLE
5
188
100
AcDbEntity
8
0
100
AcDbCircle
10
-636.84555177601908
20
312.8129912592521
30
2.3321569451894799e-06
40
2.0750000000000099
210
6.5686032206846739e-22
220
9.2939906631980694e-16
230
-1
0
CIRCLE
5
189
100
AcDbEntity
8
0
100
AcDbCircle
10
-596.34528044595788
20
-15.686975288987561
30
2.3321516660827408e-06
40
2.1000000000000099
210
6.5686032206846739e-22
220
9.2939906631980694e-16
230
-1
0
CIRCLE
5
190
100
AcDbEntity
8
0
100
AcDbCircle
10
-636.84543283680819
20
168.81299125929954
30
2.332154679727807e-06
40
2.0750000000000002
210
6.5686032206846739e-22
220
9.2939906631980694e-16
230
-1
0
CIRCLE
5
191
100
AcDbEntity
8
0
100
AcDbCircle
10
-596.34558522768566
20
353.31302471089191
30
2.3321576223186086e-06
40
2.1000000000000099
210
6.5686032206846739e-22
220
9.2939906631980694e-16
230
-1
0
CIRCLE
5
192
100
AcDbEntity
8
0
100
AcDbCircle
10
-517.34528044598403
20
-15.686910037614972
30
2.3321516660827497e-06
40
2.1000000000000099
210
6.5686032206846739e-22
220
9.2939906631980694e-16
230
-1
0
CIRCLE
5
193
100
AcDbEntity
8
0
100
AcDbCircle
10
-636.84531389759741
20
24.812991259346138
30
2.3321523432118606e-06
40
2.0750000000000002
210
6.5686032206846739e-22
220
9.2939906631980694e-16
230
-1
0
CIRCLE
5
194
100
AcDbEntity
8
0
100
AcDbCircle
10
-452.34558522773335
20
353.31314365010269
30
2.3321575512643511e-06
40
2.1000000000000099
210
6.5686032206846739e-22
220
9.2939906631980694e-16
230
-1
0
ENDSEC
0
SECTION
2
OBJECTS
0
DICTIONARY
5
C
100
AcDbDictionary
3
ACAD_GROUP
350
D
3
ACAD_MLINESTYLE
350
17
0
DICTIONARY
5
D
100
AcDbDictionary
0
DICTIONARY
5
1A
330
C
100
AcDbDictionary
0
DICTIONARY
5
17
100
AcDbDictionary
0
ENDSEC
0
EOF
