0
SECTION
2
HEADER
9
$INSUNITS
70
4
9
$ACADVER
1
AC1014
9
$HANDSEED
5
FFFF
0
ENDSEC
0
SECTION
2
TABLES
0
TABLE
2
VPORT
5
8
100
AcDbSymbolTable
0
ENDTAB
0
TABLE
2
LTYPE
5
5
100
AcDbSymbolTable
0
LTYPE
5
14
100
AcDbSymbolTableRecord
100
AcDbLinetypeTableRecord
2
BYBLOCK
70
0
0
LTYPE
5
15
100
AcDbSymbolTableRecord
100
AcDbLinetypeTableRecord
2
BYLAYER
70
0
0
ENDTAB
0
TABLE
2
LAYER
5
2
100
AcDbSymbolTable
70
2
0
LAYER
5
50
100
AcDbSymbolTableRecord
100
AcDbLayerTableRecord
2
0
70
0
6
CONTINUOUS
0
ENDTAB
0
TABLE
2
STYLE
5
3
100
AcDbSymbolTable
70
1
0
STYLE
5
11
100
AcDbSymbolTableRecord
100
AcDbTextStyleTableRecord
2
STANDARD
70
0
0
ENDTAB
0
TABLE
2
VIEW
5
6
100
AcDbSymbolTable
70
0
0
ENDTAB
0
TABLE
2
UCS
5
7
100
AcDbSymbolTable
70
0
0
ENDTAB
0
TABLE
2
APPID
5
9
100
AcDbSymbolTable
70
2
0
APPID
5
12
100
AcDbSymbolTableRecord
100
AcDbRegAppTableRecord
2
ACAD
70
0
0
ENDTAB
0
TABLE
2
DIMSTYLE
5
A
100
AcDbSymbolTable
70
1
0
ENDTAB
0
TABLE
2
BLOCK_RECORD
5
1
100
AcDbSymbolTable
70
1
0
BLOCK_RECORD
5
1F
100
AcDbSymbolTableRecord
100
AcDbBlockTableRecord
2
*MODEL_SPACE
0
BLOCK_RECORD
5
1B
100
AcDbSymbolTableRecord
100
AcDbBlockTableRecord
2
*PAPER_SPACE
0
ENDTAB
0
ENDSEC
0
SECTION
2
BLOCKS
0
BLOCK
5
20
100
AcDbEntity
100
AcDbBlockBegin
2
*MODEL_SPACE
0
ENDBLK
5
21
100
AcDbEntity
100
AcDbBlockEnd
0
BLOCK
5
1C
100
AcDbEntity
100
AcDbBlockBegin
2
*PAPER_SPACE
0
ENDBLK
5
1D
100
AcDbEntity
100
AcDbBlockEnd
0
ENDSEC
0
SECTION
2
ENTITIES
0
LWPOLYLINE
5
100
100
AcDbEntity
8
0
100
AcDbPolyline
90
4
70
1
43
0.0
10
155.5899034865503
20
118.3222267305413
10
155.6002883152309
20
218.32222592170774
42
-0.99999999999999989
10
185.60028815346413
20
218.31911047309512
10
185.58990332478345
20
118.31911128192871
42
-0.99999999999999989
0
LWPOLYLINE
5
101
100
AcDbEntity
8
0
100
AcDbPolyline
90
56
70
1
43
0.0
10
108.65252070733099
20
-25.67925128313405
42
0.41421332045305748
10
109.6525198813643
20
-26.679251283133709
10
231.49717093265417
20
-26.679351922763139
42
0.41421380429316357
10
232.49717175862091
20
-25.67935192276348
10
232.4971717586215
20
-6.679675588514371
42
-0.41421380429317395
10
233.49717258458827
20
-5.6796755885146766
10
277.65328871151343
20
-5.6797120599980389
42
-0.41421356237309503
10
278.65328788554632
20
-6.6797128859644417
10
278.65327219245341
20
-25.679379771247639
42
0.4142135623730846
10
279.65327136648636
20
-26.679380597214042
10
415.4972713664406
20
-26.679492799840148
42
0.41421356237311585
10
416.49727219240702
20
-25.679493625807162
10
416.49728788549993
20
-6.6798267405239997
42
-0.4142135623730846
10
417.49728871146635
20
-5.6798275664910491
10
486.65328871144334
20
-5.6798846870470143
42
-0.4142135623730846
10
487.65328788547629
20
-6.6798855130134882
10
487.65327210342667
20
-25.787252398296623
42
0.4142135623730846
10
488.65327127745957
20
-26.787253224263061
10
523.51562145649552
20
-26.78728201940487
42
0.41421356237311585
10
524.515622282462
20
-25.787282845371884
10
524.51563697390611
20
-8.0003144622122591
42
-0.41421356237310542
10
525.51563779987259
20
-7.0003152881793085
10
554.65257590037572
20
-7.0003393543212056
42
-0.41421356237309503
10
555.65257507440867
20
-8.0003401802875729
10
555.65256038296423
20
-25.787308563447198
42
0.41421356237310542
10
556.65255955699752
20
-26.787309389413636
10
625.65327127741421
20
-26.78736638170669
42
0.41421356237310542
10
626.65327210338069
20
-25.787367207673739
10
626.65328788543025
20
-6.6800003223906046
42
-0.4142135623730846
10
627.65328871139661
20
-5.680001148357654
10
646.65304176842164
20
-5.6800168415217911
42
0.4142135623730846
10
647.65304259438813
20
-4.680017667488805
10
647.65332837888081
20
341.31998233239818
42
0.41421356237311585
10
646.65332920484786
20
342.31998315836461
10
627.65357614782283
20
342.31999885152868
42
-0.41421356237311585
10
626.65357697378988
20
343.31999967749516
10
626.65359266736345
20
362.32024851446408
42
0.41421356237311585
10
625.6535934933305
20
363.32024934043062
10
279.65359349344612
20
363.32053512492325
42
0.41421356237311585
10
278.65359266747964
20
362.3205359508903
10
278.65357697390607
20
343.32028711392127
42
-0.4142135623730846
10
277.65357614793959
20
342.32028793988832
10
233.49717093265275
20
342.3203244116105
42
-0.41421332045305748
10
232.49717175861949
20
343.32032441161016
10
232.49717175861952
20
362.32063853696837
42
0.41421356237309503
10
231.49717175861952
20
363.32063853696837
10
109.73352070733021
20
363.32063853696843
42
0.41421356237311585
10
108.73352070733013
20
362.32063853696843
10
108.73352070733019
20
343.26642828820331
42
-0.4142138042932052
10
107.73351988136341
20
342.2664282882036
10
88.653333272315251
20
342.26644404780313
42
0.41421356237311585
10
87.653332446348742
20
341.26644487377018
10
87.653046706458042
20
-4.6795551261167745
42
0.41421356237311585
10
88.653045880491064
20
-5.6795559520832484
10
107.65252153329776
20
-5.6795716450183633
42
-0.41421332045306786
10
108.65252070733099
20
-6.6795716450179654
0
LWPOLYLINE
5
102
100
AcDbEntity
8
0
100
AcDbPolyline
90
4
70
1
43
0.0
10
521.86509232240019
20
203.77719513603037
10
536.86509249325172
20
203.77718274652921
42
-0.99999999999999989
10
536.8650842335843
20
193.77718274653247
10
521.86508406273276
20
193.77719513603364
42
-0.99999999999999989
0
LWPOLYLINE
5
103
100
AcDbEntity
8
0
100
AcDbPolyline
90
4
70
1
43
0.0
10
367.8258309388695
20
203.77732236733732
10
382.82583110972121
20
203.77730997783596
42
-0.99999999999999989
10
382.82582285005356
20
193.7773099778392
10
367.82582267920196
20
193.77732236734059
42
-0.99999999999999989
0
LINE
5
104
100
AcDbEntity
8
0
100
AcDbLine
10
537.3838776850281
20
133.51248941174973
30
-4.0010836954706974e-06
11
522.3838776599232
21
133.51250180125075
31
-4.0010836954706974e-06
0
ARC
5
105
100
AcDbEntity
8
0
100
AcDbCircle
10
522.38388178975686
20
138.51250180124916
30
-2.3321540965071108e-06
40
5.0000000000001066
210
1.1737693296023747e-20
220
1.4210854715196854e-14
230
1
100
AcDbArc
50
89.99995267559099
51
269.99995267559228
0
LINE
5
106
100
AcDbEntity
8
0
100
AcDbLine
10
522.38388591959063
20
143.51250180124757
30
-2.3321541675613844e-06
11
537.38388594469552
21
143.51248941174651
31
-4.0010838375792446e-06
0
ARC
5
107
100
AcDbEntity
8
0
100
AcDbCircle
10
537.38388181486175
20
138.51248941173961
30
-4.8565820932189997e-05
40
5.0000000000003499
210
-2.7569606695555069e-13
220
-3.3378591979258016e-07
230
0.99999999999994438
100
AcDbArc
50
-90.000047324407731
51
89.99995267559099
0
CIRCLE
5
108
100
AcDbEntity
8
0
100
AcDbCircle
10
-327.3956719758379
20
214.75858366161287
30
2.3321553221348894e-06
40
1.6000000000000352
210
-4.8147748849978587e-22
220
8.2442736670521524e-17
230
-1
0
CIRCLE
5
109
100
AcDbEntity
8
0
100
AcDbCircle
10
-603.70609572932995
20
214.75835543839284
30
2.3321551089719166e-06
40
1.6000000000000352
210
-4.8147748849978512e-22
220
8.2442736670521524e-17
230
-1
0
CIRCLE
5
110
100
AcDbEntity
8
0
100
AcDbCircle
10
-346.91779175346721
20
44.976023361021937
30
2.3321529024973091e-06
40
2.5999999999999805
210
9.4369199483825176e-16
220
9.2939906631980674e-16
230
-1
0
CIRCLE
5
111
100
AcDbEntity
8
0
100
AcDbCircle
10
-558.1554100678685
20
44.976024021795368
30
2.3321529597320122e-06
40
2.5999999999999805
210
9.4369199483825176e-16
220
9.2939906631980674e-16
230
-1
0
CIRCLE
5
112
100
AcDbEntity
8
0
100
AcDbCircle
10
-508.04686936367011
20
44.447044041496099
30
2.3321524034745855e-06
40
1.5500000000000274
210
-1.4852158333447194e-16
220
3.7509114303157869e-16
230
-1
0
CIRCLE
5
113
100
AcDbEntity
8
0
100
AcDbCircle
10
-488.35583496643471
20
129.28870208176536
30
2.3321537882536817e-06
40
1.5500000000000367
210
-1.4852158333447105e-16
220
3.7509114303158204e-16
230
-1
0
CIRCLE
5
114
100
AcDbEntity
8
0
100
AcDbCircle
10
-531.2429013427892
20
299.60005706671109
30
2.3321565370520049e-06
40
1.6000000000000001
210
-4.8147748849980957e-22
220
8.2442736670502887e-17
230
-1
0
CIRCLE
5
115
100
AcDbEntity
8
0
100
AcDbCircle
10
-347.0868465258298
20
299.60020917348504
30
2.3321566791606537e-06
40
1.6000000000000001
210
-4.8147748849981069e-22
220
8.2442736670502887e-17
230
-1
0
CIRCLE
5
116
100
AcDbEntity
8
0
100
AcDbCircle
10
-301.60032511539725
20
214.75860496771071
30
2.3321552510805099e-06
40
1.6000000000000352
210
-4.8147823893682745e-22
220
8.2442178323608051e-17
230
-1
0
CIRCLE
5
117
100
AcDbEntity
8
0
100
AcDbCircle
10
-577.91074886888896
20
214.7583767444923
30
2.332155108971931e-06
40
1.6000000000000352
210
-4.8147748849978512e-22
220
8.2442736670521524e-17
230
-1
0
CIRCLE
5
118
100
AcDbEntity
8
0
100
AcDbCircle
10
-615.52082848987823
20
299.59998745594368
30
2.3321563949434116e-06
40
1.6000000000000001
210
-4.8147748849980957e-22
220
8.2442736670502887e-17
230
-1
0
CIRCLE
5
119
100
AcDbEntity
8
0
100
AcDbCircle
10
-450.74575534543868
20
44.447091370316976
30
2.332152483039329e-06
40
1.5500000000000251
210
-1.4852158333447211e-16
220
3.75091143031578e-16
230
-1
0
CIRCLE
5
120
100
AcDbEntity
8
0
100
AcDbCircle
10
-535.02368249252731
20
44.447021759542658
30
2.3321523284136648e-06
40
1.5500000000000274
210
-1.4852158333447194e-16
220
3.7509114303157869e-16
230
-1
0
CIRCLE
5
121
100
AcDbEntity
8
0
100
AcDbCircle
10
-462.56048810599424
20
129.28872338786687
30
2.3321537920848553e-06
40
1.5500000000000349
210
-1.4852158333447125e-16
220
3.7509114303158135e-16
230
-1
0
CIRCLE
5
122
100
AcDbEntity
8
0
100
AcDbCircle
10
-558.21971447164651
20
299.60003478475994
30
2.3321564659977165e-06
40
1.6000000000000001
210
-4.8147748849980957e-22
220
8.2442736670502887e-17
230
-1
0
CIRCLE
5
123
100
AcDbEntity
8
0
100
AcDbCircle
10
-374.06365965468717
20
299.60018689153537
30
2.3321566791606389e-06
40
1.6000000000000001
210
-4.8147748849981069e-22
220
8.2442736670502887e-17
230
-1
0
CIRCLE
5
124
100
AcDbEntity
8
0
100
AcDbCircle
10
-289.78573250759848
20
299.60025650229773
30
2.3321566081062442e-06
40
1.6000000000000001
210
-4.8147823893685247e-22
220
8.2442178323589414e-17
230
-1
0
CIRCLE
5
125
100
AcDbEntity
8
0
100
AcDbCircle
10
-98.156345516304597
20
24.813296041074189
30
2.3321522065618759e-06
40
2.0999999999999912
210
5.5612273763663801e-17
220
9.2939906631980694e-16
230
-1
0
CIRCLE
5
126
100
AcDbEntity
8
0
100
AcDbCircle
10
-202.4971717586227
20
-16.179488976636947
30
2.3321534288041802e-06
40
2.100000000000009
210
4.4964988015172996e-15
220
9.2939906631980694e-16
230
-1
0
CIRCLE
5
127
100
AcDbEntity
8
0
100
AcDbCircle
10
-138.73352070733108
20
352.80006555546368
30
2.3321568479601861e-06
40
2.0999999999999912
210
5.5615412393638591e-17
220
9.2939906631980694e-16
230
-1
0
CIRCLE
5
128
100
AcDbEntity
8
0
100
AcDbCircle
10
-202.49717175862099
20
352.81394933142167
30
2.332158816600476e-06
40
2.100000000000009
210
4.4965023324760214e-15
220
9.2939906631980694e-16
230
-1
0
CIRCLE
5
129
100
AcDbEntity
8
0
100
AcDbCircle
10
-98.173105141867509
20
168.29343618472873
30
2.3321545425952892e-06
40
2.0999999999999912
210
5.5609135133689023e-17
220
9.2939906631980694e-16
230
-1
0
CIRCLE
5
130
100
AcDbEntity
8
0
100
AcDbCircle
10
-138.65252070732171
20
-16.17943624307852
30
2.332151460172563e-06
40
2.0999999999999912
210
5.5611881434916958e-17
220
9.2939906631980694e-16
230
-1
0
CIRCLE
5
131
100
AcDbEntity
8
0
100
AcDbCircle
10
-98.189986214991407
20
312.81329604098431
30
2.3321575901380672e-06
40
2.100000000000009
210
5.5609135133688554e-17
220
9.2939906631980694e-16
230
-1
0
CIRCLE
5
132
100
AcDbEntity
8
0
100
AcDbCircle
10
-596.34528044595788
20
-15.686975288987561
30
2.3321516660827408e-06
40
1.5999999999999701
210
6.5686032206846739e-22
220
9.2939906631980694e-16
230
-1
0
CIRCLE
5
133
100
AcDbEntity
8
0
100
AcDbCircle
10
-517.3452804459838
20
-15.686910037614972
30
2.3321516660827497e-06
40
2.1000000000000099
210
6.5686032206846739e-22
220
9.2939906631980694e-16
230
-1
0
CIRCLE
5
134
100
AcDbEntity
8
0
100
AcDbCircle
10
-308.34528044605401
20
-15.686737410565961
30
2.332151595028499e-06
40
1.5999999999999701
210
6.5686032206846739e-22
220
9.2939906631980694e-16
230
-1
0
CIRCLE
5
135
100
AcDbEntity
8
0
100
AcDbCircle
10
-387.34528044602723
20
-15.68680266193855
30
2.3321516660827637e-06
40
2.1000000000000099
210
6.5686032206846739e-22
220
9.2939906631980694e-16
230
-1
0
CIRCLE
5
136
100
AcDbEntity
8
0
100
AcDbCircle
10
-267.84531389772064
20
24.813296041073851
30
2.3321522721576277e-06
40
2.1000000000000099
210
6.5686032206846739e-22
220
9.2939906631980694e-16
230
-1
0
CIRCLE
5
137
100
AcDbEntity
8
0
100
AcDbCircle
10
-267.84543283693142
20
168.81329604102723
30
2.3321546086735745e-06
40
2.1000000000000298
210
6.5686032206846739e-22
220
9.2939906631980694e-16
230
-1
0
CIRCLE
5
138
100
AcDbEntity
8
0
100
AcDbCircle
10
-267.84555177614226
20
312.81329604097976
30
2.332156874135247e-06
40
2.1000000000000099
210
6.5686032206846739e-22
220
9.2939906631980694e-16
230
-1
0
CIRCLE
5
139
100
AcDbEntity
8
0
100
AcDbCircle
10
-596.34558522768566
20
353.31302471089191
30
2.3321576223186086e-06
40
2.1000000000000099
210
6.5686032206846739e-22
220
9.2939906631980694e-16
230
-1
0
CIRCLE
5
140
100
AcDbEntity
8
0
100
AcDbCircle
10
-308.34558522778173
20
353.31326258931347
30
2.3321575512643672e-06
40
2.1000000000000099
210
6.5686032206846739e-22
220
9.2939906631980694e-16
230
-1
0
CIRCLE
5
141
100
AcDbEntity
8
0
100
AcDbCircle
10
-452.34558522773335
20
353.31314365010269
30
2.3321575512643511e-06
40
2.1000000000000099
210
6.5686032206846739e-22
220
9.2939906631980694e-16
230
-1
0
CIRCLE
5
142
100
AcDbEntity
8
0
100
AcDbCircle
10
-636.84555177601908
20
312.8129912592521
30
2.3321569451894799e-06
40
2.1000000000000099
210
6.5686032206846739e-22
220
9.2939906631980694e-16
230
-1
0
CIRCLE
5
143
100
AcDbEntity
8
0
100
AcDbCircle
10
-636.84543283680819
20
168.81299125929954
30
2.332154679727807e-06
40
2.1000000000000298
210
6.5686032206846739e-22
220
9.2939906631980694e-16
230
-1
0
CIRCLE
5
144
100
AcDbEntity
8
0
100
AcDbCircle
10
-636.84531389759741
20
24.812991259346138
30
2.3321523432118606e-06
40
2.1000000000000099
210
6.5686032206846739e-22
220
9.2939906631980694e-16
230
-1
0
ENDSEC
0
SECTION
2
OBJECTS
0
DICTIONARY
5
C
100
AcDbDictionary
3
ACAD_GROUP
350
D
3
ACAD_MLINESTYLE
350
17
0
DICTIONARY
5
D
100
AcDbDictionary
0
DICTIONARY
5
1A
330
C
100
AcDbDictionary
0
DICTIONARY
5
17
100
AcDbDictionary
0
ENDSEC
0
EOF
