0
SECTION
2
HEADER
9
$INSUNITS
70
4
9
$ACADVER
1
AC1014
9
$HANDSEED
5
FFFF
0
ENDSEC
0
SECTION
2
TABLES
0
TABLE
2
VPORT
5
8
100
AcDbSymbolTable
0
ENDTAB
0
TABLE
2
LTYPE
5
5
100
AcDbSymbolTable
0
LTYPE
5
14
100
AcDbSymbolTableRecord
100
AcDbLinetypeTableRecord
2
BYBLOCK
70
0
0
LTYPE
5
15
100
AcDbSymbolTableRecord
100
AcDbLinetypeTableRecord
2
BYLAYER
70
0
0
ENDTAB
0
TABLE
2
LAYER
5
2
100
AcDbSymbolTable
70
2
0
LAYER
5
50
100
AcDbSymbolTableRecord
100
AcDbLayerTableRecord
2
0
70
0
6
CONTINUOUS
0
ENDTAB
0
TABLE
2
STYLE
5
3
100
AcDbSymbolTable
70
1
0
STYLE
5
11
100
AcDbSymbolTableRecord
100
AcDbTextStyleTableRecord
2
STANDARD
70
0
0
ENDTAB
0
TABLE
2
VIEW
5
6
100
AcDbSymbolTable
70
0
0
ENDTAB
0
TABLE
2
UCS
5
7
100
AcDbSymbolTable
70
0
0
ENDTAB
0
TABLE
2
APPID
5
9
100
AcDbSymbolTable
70
2
0
APPID
5
12
100
AcDbSymbolTableRecord
100
AcDbRegAppTableRecord
2
ACAD
70
0
0
ENDTAB
0
TABLE
2
DIMSTYLE
5
A
100
AcDbSymbolTable
70
1
0
ENDTAB
0
TABLE
2
BLOCK_RECORD
5
1
100
AcDbSymbolTable
70
1
0
BLOCK_RECORD
5
1F
100
AcDbSymbolTableRecord
100
AcDbBlockTableRecord
2
*MODEL_SPACE
0
BLOCK_RECORD
5
1B
100
AcDbSymbolTableRecord
100
AcDbBlockTableRecord
2
*PAPER_SPACE
0
ENDTAB
0
ENDSEC
0
SECTION
2
BLOCKS
0
BLOCK
5
20
100
AcDbEntity
100
AcDbBlockBegin
2
*MODEL_SPACE
0
ENDBLK
5
21
100
AcDbEntity
100
AcDbBlockEnd
0
BLOCK
5
1C
100
AcDbEntity
100
AcDbBlockBegin
2
*PAPER_SPACE
0
ENDBLK
5
1D
100
AcDbEntity
100
AcDbBlockEnd
0
ENDSEC
0
SECTION
2
ENTITIES
0
LWPOLYLINE
5
100
100
AcDbEntity
8
0
100
AcDbPolyline
90
4
70
1
43
0.0
10
298.41948833035178
20
620.97718396347955
10
308.41948833035178
20
620.97718396347886
42
-0.99999999999999989
10
308.41948833035121
20
610.97718396347886
10
298.41948833035104
20
610.97718396347955
42
-0.99999999999999989
0
LWPOLYLINE
5
101
100
AcDbEntity
8
0
100
AcDbPolyline
90
4
70
1
43
0.0
10
599.11517962848393
20
620.97718396345908
10
609.11517962848393
20
620.9771839634584
42
-0.99999999999999989
10
609.11517962848336
20
610.97718396345829
10
599.11517962848336
20
610.97718396345908
42
-0.99999999999999989
0
ARC
5
102
100
AcDbEntity
8
0
100
AcDbCircle
10
647.61171552574081
20
227.25229039101933
30
-5.9661653395437497e-09
40
1.0000000000000853
210
0
220
0
230
1
100
AcDbArc
50
269.99999999999346
51
360
0
LINE
5
103
100
AcDbEntity
8
0
100
AcDbLine
10
648.61171552574092
20
227.25229039101924
30
-5.9661653395437497e-09
11
648.61171552577571
21
755.25256715070805
31
-5.9655080875131716e-09
0
ARC
5
104
100
AcDbEntity
8
0
100
AcDbCircle
10
647.61171552577582
20
755.25256715070805
30
-5.9662053075726362e-09
40
0.99999999999994316
210
-6.9722005946463789e-13
220
0
230
1
100
AcDbArc
50
0
51
90
0
LINE
5
105
100
AcDbEntity
8
0
100
AcDbLine
10
647.61171552577582
20
756.25256715070816
30
-5.9662053075726362e-09
11
89.611378009894935
21
756.25256715074624
31
-5.630511923371273e-07
0
ARC
5
106
100
AcDbEntity
8
0
100
AcDbCircle
10
89.611378009894906
20
755.25256715062926
30
0.00042073404814105042
40
1.0000000000000984
210
1.9791641478718136e-20
220
5.5708518242875226e-07
230
0.9999999999998449
100
AcDbArc
50
89.99999999999838
51
180
0
LINE
5
107
100
AcDbEntity
8
0
100
AcDbLine
10
88.611378009894892
20
755.25256715074647
30
-5.9660054674282037e-09
11
88.611378009844799
21
227.25229039105761
31
9.4129681826871092e-07
0
ARC
5
108
100
AcDbEntity
8
0
100
AcDbCircle
10
89.611378009804682
20
227.25229039105767
30
8.487955742535739e-05
40
1.000000000000534
210
9.4726278376760467e-07
220
0
230
0.99999999999955147
100
AcDbArc
50
180
51
269.99999999999591
0
LINE
5
109
100
AcDbEntity
8
0
100
AcDbLine
10
89.611378009844813
20
226.25229039105756
30
-5.9659654993993172e-09
11
647.61171552574069
21
226.25229039101924
31
-5.9661653395437497e-09
0
LWPOLYLINE
5
110
100
AcDbEntity
8
0
100
AcDbPolyline
90
4
70
1
43
0.0
10
246.21863758186066
20
477.82450645112846
42
0.99999999999999989
10
256.21863758186072
20
477.82450645112783
10
256.21863758186998
20
577.82450645112817
42
0.99999999999999989
10
246.21863758187004
20
577.8245064511292
0
LWPOLYLINE
5
111
100
AcDbEntity
8
0
100
AcDbPolyline
90
4
70
1
43
0.0
10
246.21863758187359
20
621.28041534374381
42
0.99999999999999989
10
256.21863758187368
20
621.28041534374279
10
256.21863758187817
20
661.28041534374302
42
0.99999999999999989
10
246.21863758187803
20
661.28041534374404
0
LWPOLYLINE
5
112
100
AcDbEntity
8
0
100
AcDbPolyline
90
4
70
1
43
0.0
10
177.69052244139021
20
270.51723338606234
10
192.69035566922031
20
270.51723338606132
42
-0.99999999999999989
10
192.69035566921968
20
260.51723338606132
10
177.69052244138959
20
260.51723338606212
42
-0.99999999999999989
0
LWPOLYLINE
5
113
100
AcDbEntity
8
0
100
AcDbPolyline
90
4
70
1
43
0.0
10
256.21863758185771
20
444.8245064511276
42
0.99999999999999989
10
246.21863758185759
20
444.82450645112817
10
246.21863758184043
20
265.34963180067791
42
0.99999999999999989
10
256.21863758184031
20
265.34963180067632
0
LWPOLYLINE
5
114
100
AcDbEntity
8
0
100
AcDbPolyline
90
12
70
1
43
0.0
10
158.84383671230566
20
292.2232491347346
10
158.84383671230742
20
307.95217064914874
42
-0.20831910583364632
10
159.64107685611356
20
309.78263749455573
10
163.33428154211688
20
313.21817673734949
42
-0.18953936986969355
10
165.03704139830984
20
313.88770989194137
10
205.34383671230779
20
313.8877098919379
42
-0.41421356237319906
10
206.34383671230808
20
312.88770989193779
10
206.34383671230555
20
287.28770989193754
42
-0.41421356237301177
10
205.34383671230555
20
286.28770989193765
10
165.03704139830774
20
286.28770989194129
42
-0.18953936986965086
10
163.33428154211526
20
286.95724304653339
10
159.64107685611265
20
290.39278228932676
42
-0.20831910583379354
0
LWPOLYLINE
5
115
100
AcDbEntity
8
0
100
AcDbPolyline
90
4
70
1
43
0.0
10
492.51886365116269
20
270.52535504096761
42
0.99999999999999989
10
492.51886365116206
20
260.52535504096727
10
512.51886365116195
20
260.52535504096596
42
0.99999999999999989
10
512.51886365116252
20
270.52535504096619
0
LWPOLYLINE
5
116
100
AcDbEntity
8
0
100
AcDbPolyline
90
6
70
1
43
0.0
10
363.77450558844521
20
682.29887854030903
10
363.77450558844515
20
680.37515168951222
42
-0.99999999999999989
10
343.77450558844498
20
680.37515168951336
10
343.77450558844509
20
681.99580711622559
42
0.18527184843183001
10
342.49109900113365
20
685.34049445658525
42
-2.2150795431019503
10
364.99109900113382
20
685.56779802464735
42
0.18005229045703589
0
LWPOLYLINE
5
117
100
AcDbEntity
8
0
100
AcDbPolyline
90
6
70
1
43
0.0
10
460.02468988479274
20
588.20613847972663
10
447.52432129208722
20
588.20613847972743
42
-0.99999999999999989
10
447.52432129208808
20
600.70613847972743
10
453.72650831379099
20
600.70613847972709
42
-0.0038397253604209609
10
453.82250286309625
20
600.70613847972697
10
460.02468988479359
20
600.70613847972675
42
-0.99999999999999989
0
LWPOLYLINE
5
118
100
AcDbEntity
8
0
100
AcDbPolyline
90
4
70
1
43
0.0
10
620.63640723507672
20
260.52535504095829
10
590.63640723507638
20
260.52535504096011
42
-0.99999999999999989
10
590.63640723507706
20
270.52535504096028
10
620.6364072350774
20
270.52535504095829
42
-0.99999999999999989
0
LWPOLYLINE
5
119
100
AcDbEntity
8
0
100
AcDbPolyline
90
4
70
1
43
0.0
10
316.9561539874241
20
260.5253550409775
42
0.99999999999999989
10
316.95615398742473
20
270.52535504097756
10
286.95615398742495
20
270.52535504097938
42
0.99999999999999989
10
286.95615398742439
20
260.52535504097932
0
LWPOLYLINE
5
120
100
AcDbEntity
8
0
100
AcDbPolyline
90
8
70
1
43
0.0
10
460.88481284438672
20
673.68669732634294
42
2.694936733376371
10
461.17422433315767
20
712.82453277409354
42
-0.2164814594896467
10
458.16180971365844
20
711.45614029806256
10
449.37285824520268
20
711.45614029805597
42
-0.21648145949014658
10
446.36044362569635
20
712.82453277408831
42
2.6949367333769247
10
446.64985511445695
20
673.68669732634362
42
-0.22035511624541446
10
449.70085793246164
20
675.09992679061213
10
457.83381002638191
20
675.09992679061168
42
-0.22035511624542353
0
CIRCLE
5
121
100
AcDbEntity
8
0
100
AcDbCircle
10
371.36413829417631
20
665.87095276140258
30
-5.9653837425344136e-09
40
1.6000000000000014
210
1.2494108688709692e-15
220
-1.5539095031056144e-15
230
1
0
CIRCLE
5
122
100
AcDbEntity
8
0
100
AcDbCircle
10
381.64873903002928
20
678.12765896558756
30
-5.9653570971818226e-09
40
1.6000000000000014
210
1.2494108688709692e-15
220
-1.5539095031056144e-15
230
1
0
CIRCLE
5
123
100
AcDbEntity
8
0
100
AcDbCircle
10
98.611378009870492
20
491.25256715075795
30
-5.9651483752531931e-09
40
2.1000000000000099
210
1.249410861687545e-15
220
-1.2416593240424012e-15
230
1
0
CIRCLE
5
124
100
AcDbEntity
8
0
100
AcDbCircle
10
98.611378009882429
20
618.77178160582207
30
-5.9649885031376471e-09
40
2.1000000000000099
210
1.249410861687545e-15
220
-1.2416593240424012e-15
230
1
0
CIRCLE
5
125
100
AcDbEntity
8
0
100
AcDbCircle
10
98.611378009858512
20
363.77910803785892
30
-5.9653038064766406e-09
40
2.1000000000000099
210
1.249410861687545e-15
220
-1.2416593240424012e-15
230
1
0
CIRCLE
5
126
100
AcDbEntity
8
0
100
AcDbCircle
10
453.12971552577699
20
746.42829039103731
30
-5.9652727202319511e-09
40
2.1000000000000001
210
1.249410861687545e-15
220
-1.2416593240424012e-15
230
1
0
CIRCLE
5
127
100
AcDbEntity
8
0
100
AcDbCircle
10
268.77729103803762
20
618.76921854302941
30
-5.9652016659583751e-09
40
2.0999999999999899
210
1.249410861687545e-15
220
-1.2416593240424012e-15
230
1
0
CIRCLE
5
128
100
AcDbEntity
8
0
100
AcDbCircle
10
638.77729103802324
20
363.7692185430019
30
-5.9659788220756127e-09
40
2.1000000000000099
210
1.249410861687545e-15
220
-1.2416593240424012e-15
230
1
0
CIRCLE
5
129
100
AcDbEntity
8
0
100
AcDbCircle
10
638.77729103804018
20
618.76921854300406
30
-5.9656635187366192e-09
40
2.1000000000000099
210
1.249410861687545e-15
220
-1.2416593240424012e-15
230
1
0
CIRCLE
5
130
100
AcDbEntity
8
0
100
AcDbCircle
10
268.7772910380217
20
363.76921854302725
30
-5.9655169692973686e-09
40
2.1000000000000099
210
1.249410861687545e-15
220
-1.2416593240424012e-15
230
1
0
CIRCLE
5
131
100
AcDbEntity
8
0
100
AcDbCircle
10
268.77729103802966
20
491.26921854302816
30
-5.9653615380739211e-09
40
2.1000000000000099
210
1.249410861687545e-15
220
-1.2416593240424012e-15
230
1
0
CIRCLE
5
132
100
AcDbEntity
8
0
100
AcDbCircle
10
638.77729103803119
20
491.26921854300281
30
-5.9658233908521652e-09
40
2.1000000000000401
210
1.249410861687545e-15
220
-1.2416593240424012e-15
230
1
0
CIRCLE
5
133
100
AcDbEntity
8
0
100
AcDbCircle
10
98.611378009845538
20
236.25256715075608
30
1.8894245368272777e-06
40
2.1000000000000099
210
-2.0775685813307542e-16
220
-3.0180161634425472e-15
230
1
0
CIRCLE
5
134
100
AcDbEntity
8
0
100
AcDbCircle
10
98.611378009894423
20
746.25256715075977
30
1.8894260733759438e-06
40
2.1000000000000099
210
-2.0775685813307542e-16
220
-3.0180161634425472e-15
230
1
0
CIRCLE
5
135
100
AcDbEntity
8
0
100
AcDbCircle
10
236.17261276453704
20
581.57048218104921
30
1.8894255982004893e-06
40
2.1000000000000099
210
-2.0775685813307542e-16
220
-3.0180161634425472e-15
230
1
0
CIRCLE
5
136
100
AcDbEntity
8
0
100
AcDbCircle
10
131.17261276454585
20
686.57048218106002
30
1.8894258602131231e-06
40
2.1000000000000099
210
-2.0775685813307542e-16
220
-3.0180161634425472e-15
230
1
0
CIRCLE
5
137
100
AcDbEntity
8
0
100
AcDbCircle
10
183.67261276454198
20
634.07048218105456
30
1.8894257269863601e-06
40
60
210
-2.0775685813307561e-16
220
-3.0180161634425472e-15
230
1
0
CIRCLE
5
138
100
AcDbEntity
8
0
100
AcDbCircle
10
236.17261276454661
20
686.57048218104978
30
1.8894259268265046e-06
40
2.1000000000000099
210
-2.0775685813307542e-16
220
-3.0180161634425472e-15
230
1
0
CIRCLE
5
139
100
AcDbEntity
8
0
100
AcDbCircle
10
131.17261276453635
20
581.57048218105922
30
1.889425629286734e-06
40
2.1000000000000099
210
-2.0775685813307542e-16
220
-3.0180161634425472e-15
230
1
0
CIRCLE
5
140
100
AcDbEntity
8
0
100
AcDbCircle
10
183.54383671230488
20
280.13770989193904
30
1.8894190834117808e-06
40
1.8499999999999903
210
-2.0775685813307542e-16
220
-3.0180161634425472e-15
230
1
0
CIRCLE
5
141
100
AcDbEntity
8
0
100
AcDbCircle
10
183.54383671230838
20
320.0377098919393
30
1.8894200337626899e-06
40
1.8499999999999903
210
-2.0775685813307542e-16
220
-3.0180161634425472e-15
230
1
0
CIRCLE
5
142
100
AcDbEntity
8
0
100
AcDbCircle
10
567.46968201515449
20
695.37455647764978
30
-5.9654814421605806e-09
40
20
210
1.249410861687545e-15
220
-1.2416593240424012e-15
230
1
0
CIRCLE
5
143
100
AcDbEntity
8
0
100
AcDbCircle
10
598.37073298367773
20
728.08732231976114
30
-5.9654814421605806e-09
40
1.6000000000000003
210
1.249410861687545e-15
220
-1.2416593240424012e-15
230
1
0
CIRCLE
5
144
100
AcDbEntity
8
0
100
AcDbCircle
10
536.56863104663228
20
662.66179063553864
30
-5.9654814421605806e-09
40
1.6000000000000003
210
1.249410861687545e-15
220
-1.2416593240424012e-15
230
1
0
CIRCLE
5
145
100
AcDbEntity
8
0
100
AcDbCircle
10
448.77068175690351
20
668.09992679061224
30
-5.9650684391954201e-09
40
2.1000000000000001
210
1.249410861687545e-15
220
-1.2416593240424012e-15
230
1
0
CIRCLE
5
146
100
AcDbEntity
8
0
100
AcDbCircle
10
458.72062172605382
20
717.91267475460177
30
-5.9656146689235356e-09
40
2.1000000000000001
210
1.249410861687545e-15
220
-1.2416593240424012e-15
230
1
0
CIRCLE
5
147
100
AcDbEntity
8
0
100
AcDbCircle
10
448.7706817569067
20
717.91267475459449
30
-5.9650062667060411e-09
40
2.1000000000000001
210
1.249410861687545e-15
220
-1.2416593240424012e-15
230
1
0
CIRCLE
5
148
100
AcDbEntity
8
0
100
AcDbCircle
10
458.72062172605092
20
668.09992679061168
30
-5.9656768414129147e-09
40
2.1000000000000001
210
1.249410861687545e-15
220
-1.2416593240424012e-15
230
1
0
CIRCLE
5
149
100
AcDbEntity
8
0
100
AcDbCircle
10
398.77068175689942
20
668.09992679061509
30
-5.9623062043101527e-09
40
2.1000000000000001
210
1.249410861687545e-15
220
-1.2416593240424012e-15
230
1
0
CIRCLE
5
150
100
AcDbEntity
8
0
100
AcDbCircle
10
508.72062172605445
20
717.91267475459063
30
-5.96847460343497e-09
40
2.1000000000000001
210
1.249410861687545e-15
220
-1.2416593240424012e-15
230
1
0
CIRCLE
5
151
100
AcDbEntity
8
0
100
AcDbCircle
10
508.72062172605132
20
668.09992679060861
30
-5.9685367759243491e-09
40
2.1000000000000001
210
1.249410861687545e-15
220
-1.2416593240424012e-15
230
1
0
CIRCLE
5
152
100
AcDbEntity
8
0
100
AcDbCircle
10
453.12971552574243
20
236.42829039103367
30
-5.9659077678020367e-09
40
2.1000000000000201
210
1.249410861687545e-15
220
-1.2416593240424012e-15
230
1
0
CIRCLE
5
153
100
AcDbEntity
8
0
100
AcDbCircle
10
638.78971552577514
20
746.42829039102571
30
-5.9655036466210731e-09
40
2.1000000000000099
210
1.249410861687545e-15
220
-1.2416593240424012e-15
230
1
0
CIRCLE
5
154
100
AcDbEntity
8
0
100
AcDbCircle
10
453.75900933180327
20
566.34803840366931
30
-5.9654992057289746e-09
40
2.1000000000000001
210
1.249410861687545e-15
220
-1.2416593240424012e-15
230
1
0
CIRCLE
5
155
100
AcDbEntity
8
0
100
AcDbCircle
10
638.7897155257433
20
236.42829039102196
30
-5.9661386941911587e-09
40
2.1000000000000099
210
1.249410861687545e-15
220
-1.2416593240424012e-15
230
1
0
CIRCLE
5
156
100
AcDbEntity
8
0
100
AcDbCircle
10
268.78971552574075
20
236.42829039104527
30
-5.9656768414129147e-09
40
2.0999999999999699
210
1.249410861687545e-15
220
-1.2416593240424012e-15
230
1
0
CIRCLE
5
157
100
AcDbEntity
8
0
100
AcDbCircle
10
268.78971552577264
20
746.4282903910489
30
-5.9650417938428291e-09
40
2.1000000000000099
210
1.249410861687545e-15
220
-1.2416593240424012e-15
230
1
0
CIRCLE
5
158
100
AcDbEntity
8
0
100
AcDbCircle
10
398.77068175690283
20
717.91267475459767
30
-5.9622440318207737e-09
40
2.1000000000000001
210
1.249410861687545e-15
220
-1.2416593240424012e-15
230
1
0
ENDSEC
0
SECTION
2
OBJECTS
0
DICTIONARY
5
C
100
AcDbDictionary
3
ACAD_GROUP
350
D
3
ACAD_MLINESTYLE
350
17
0
DICTIONARY
5
D
100
AcDbDictionary
0
DICTIONARY
5
1A
330
C
100
AcDbDictionary
0
DICTIONARY
5
17
100
AcDbDictionary
0
ENDSEC
0
EOF
