0
SECTION
2
HEADER
9
$INSUNITS
70
4
9
$ACADVER
1
AC1014
9
$HANDSEED
5
FFFF
0
ENDSEC
0
SECTION
2
TABLES
0
TABLE
2
VPORT
5
8
100
AcDbSymbolTable
0
ENDTAB
0
TABLE
2
LTYPE
5
5
100
AcDbSymbolTable
0
LTYPE
5
14
100
AcDbSymbolTableRecord
100
AcDbLinetypeTableRecord
2
BYBLOCK
70
0
0
LTYPE
5
15
100
AcDbSymbolTableRecord
100
AcDbLinetypeTableRecord
2
BYLAYER
70
0
0
ENDTAB
0
TABLE
2
LAYER
5
2
100
AcDbSymbolTable
70
2
0
LAYER
5
50
100
AcDbSymbolTableRecord
100
AcDbLayerTableRecord
2
0
70
0
6
CONTINUOUS
0
ENDTAB
0
TABLE
2
STYLE
5
3
100
AcDbSymbolTable
70
1
0
STYLE
5
11
100
AcDbSymbolTableRecord
100
AcDbTextStyleTableRecord
2
STANDARD
70
0
0
ENDTAB
0
TABLE
2
VIEW
5
6
100
AcDbSymbolTable
70
0
0
ENDTAB
0
TABLE
2
UCS
5
7
100
AcDbSymbolTable
70
0
0
ENDTAB
0
TABLE
2
APPID
5
9
100
AcDbSymbolTable
70
2
0
APPID
5
12
100
AcDbSymbolTableRecord
100
AcDbRegAppTableRecord
2
ACAD
70
0
0
ENDTAB
0
TABLE
2
DIMSTYLE
5
A
100
AcDbSymbolTable
70
1
0
ENDTAB
0
TABLE
2
BLOCK_RECORD
5
1
100
AcDbSymbolTable
70
1
0
BLOCK_RECORD
5
1F
100
AcDbSymbolTableRecord
100
AcDbBlockTableRecord
2
*MODEL_SPACE
0
BLOCK_RECORD
5
1B
100
AcDbSymbolTableRecord
100
AcDbBlockTableRecord
2
*PAPER_SPACE
0
ENDTAB
0
ENDSEC
0
SECTION
2
BLOCKS
0
BLOCK
5
20
100
AcDbEntity
100
AcDbBlockBegin
2
*MODEL_SPACE
0
ENDBLK
5
21
100
AcDbEntity
100
AcDbBlockEnd
0
BLOCK
5
1C
100
AcDbEntity
100
AcDbBlockBegin
2
*PAPER_SPACE
0
ENDBLK
5
1D
100
AcDbEntity
100
AcDbBlockEnd
0
ENDSEC
0
SECTION
2
ENTITIES
0
LWPOLYLINE
5
100
100
AcDbEntity
8
0
100
AcDbPolyline
90
4
70
1
43
0.0
10
-162.02827453606105
20
607.89631652831918
42
0.99999999999999989
10
-162.02827453606105
20
620.39631652831918
10
-174.52827453606105
20
620.39631652831906
42
0.99999999999999989
10
-174.52827453606105
20
607.89631652831906
0
LWPOLYLINE
5
101
100
AcDbEntity
8
0
100
AcDbPolyline
90
24
70
1
43
0.0
10
25.721725463938157
20
272.14631652831912
42
0.41421356237309503
10
26.7217254639381
20
273.14631652831912
10
26.721725463937815
20
710.14631652831918
42
0.41421356237309503
10
25.721725463937872
20
711.14631652831918
10
6.7217254639386681
20
711.14631652831929
42
-0.41421356237309503
10
5.7217254639387249
20
712.14631652831929
10
5.7217254639387249
20
755.14631652831918
42
0.41421356237309503
10
4.7217254639386397
20
756.14631652831918
10
-341.27827453606119
20
756.14631652831906
42
0.41421356237309503
10
-342.27827453606119
20
755.14631652831895
10
-342.27827453606125
20
712.14631652831918
42
-0.41421356237309503
10
-343.27827453606119
20
711.14631652831918
10
-362.2782745360621
20
711.14631652831918
42
0.41421356237309503
10
-363.2782745360621
20
710.14631652831906
10
-363.27827453606187
20
273.14631652831918
42
0.41421356237309503
10
-362.27827453606187
20
272.14631652831918
10
-344.27827453606028
20
272.14631652831929
42
-0.41421356237309503
10
-343.27827453606028
20
271.14631652831923
10
-343.27827453606034
20
250.14631652831918
42
0.41421356237309503
10
-342.27827453606034
20
249.14631652831915
10
5.7217254639397197
20
249.14631652831915
42
0.41421356237309503
10
6.7217254639396629
20
250.14631652831909
10
6.7217254639395918
20
271.14631652831912
42
-0.41421356237309503
10
7.721725463939606
20
272.14631652831912
0
CIRCLE
5
102
100
AcDbEntity
8
0
100
AcDbCircle
10
16.721725463939094
20
491.14631652831889
30
8.1713500543756368e-06
40
2.050000000000054
210
8.8470897273355908e-17
220
1.0261953283729543e-22
230
1
0
CIRCLE
5
103
100
AcDbEntity
8
0
100
AcDbCircle
10
-168.2782745360617
20
746.14631652831918
30
8.1713481314693581e-06
40
2.0499999999999829
210
8.8470897273355896e-17
220
1.0261953283729543e-22
230
1
0
CIRCLE
5
104
100
AcDbEntity
8
0
100
AcDbCircle
10
-353.27827453606091
20
491.14631652831929
30
8.1713512212200357e-06
40
2.0500000000000007
210
8.8470897273355883e-17
220
1.0261953283729543e-22
230
1
0
CIRCLE
5
105
100
AcDbEntity
8
0
100
AcDbCircle
10
-352.77827453606079
20
701.14631652831929
30
8.1713487742884894e-06
40
2.0999999999999375
210
-2.9467169445290603e-15
220
1.0261953252463984e-22
230
1
0
CIRCLE
5
106
100
AcDbEntity
8
0
100
AcDbCircle
10
16.721725463939805
20
282.14631652831906
30
8.1713526384197266e-06
40
2.0999999999999996
210
-3.0577392469915776e-15
220
1.0261953291907029e-22
230
1
0
CIRCLE
5
107
100
AcDbEntity
8
0
100
AcDbCircle
10
-4.2782745360604224
20
746.14631652831918
30
8.1713483451872904e-06
40
2.1000000000000125
210
-3.0669911055301113e-15
220
1.0261953252463984e-22
230
1
0
CIRCLE
5
108
100
AcDbEntity
8
0
100
AcDbCircle
10
16.221725463939265
20
704.14631652831929
30
8.1713487209977842e-06
40
2.0999999999999552
210
-3.0577392469915705e-15
220
1.0261953252463984e-22
230
1
0
CIRCLE
5
109
100
AcDbEntity
8
0
100
AcDbCircle
10
-332.27827453606028
20
746.14631652831929
30
8.1713483651713048e-06
40
2.1000000000000085
210
-2.9467169445290781e-15
220
1.0261953252463984e-22
230
1
0
CIRCLE
5
110
100
AcDbEntity
8
0
100
AcDbCircle
10
-353.27827453606017
20
282.14631652831929
30
8.1713526622895216e-06
40
2.1000000000000085
210
-2.9467169445290903e-15
220
1.0261953291907029e-22
230
1
0
ENDSEC
0
SECTION
2
OBJECTS
0
DICTIONARY
5
C
100
AcDbDictionary
3
ACAD_GROUP
350
D
3
ACAD_MLINESTYLE
350
17
0
DICTIONARY
5
D
100
AcDbDictionary
0
DICTIONARY
5
1A
330
C
100
AcDbDictionary
0
DICTIONARY
5
17
100
AcDbDictionary
0
ENDSEC
0
EOF
