0
SECTION
2
HEADER
9
$INSUNITS
70
4
9
$ACADVER
1
AC1014
9
$HANDSEED
5
FFFF
0
ENDSEC
0
SECTION
2
TABLES
0
TABLE
2
VPORT
5
8
100
AcDbSymbolTable
0
ENDTAB
0
TABLE
2
LTYPE
5
5
100
AcDbSymbolTable
0
LTYPE
5
14
100
AcDbSymbolTableRecord
100
AcDbLinetypeTableRecord
2
BYBLOCK
70
0
0
LTYPE
5
15
100
AcDbSymbolTableRecord
100
AcDbLinetypeTableRecord
2
BYLAYER
70
0
0
ENDTAB
0
TABLE
2
LAYER
5
2
100
AcDbSymbolTable
70
2
0
LAYER
5
50
100
AcDbSymbolTableRecord
100
AcDbLayerTableRecord
2
0
70
0
6
CONTINUOUS
0
ENDTAB
0
TABLE
2
STYLE
5
3
100
AcDbSymbolTable
70
1
0
STYLE
5
11
100
AcDbSymbolTableRecord
100
AcDbTextStyleTableRecord
2
STANDARD
70
0
0
ENDTAB
0
TABLE
2
VIEW
5
6
100
AcDbSymbolTable
70
0
0
ENDTAB
0
TABLE
2
UCS
5
7
100
AcDbSymbolTable
70
0
0
ENDTAB
0
TABLE
2
APPID
5
9
100
AcDbSymbolTable
70
2
0
APPID
5
12
100
AcDbSymbolTableRecord
100
AcDbRegAppTableRecord
2
ACAD
70
0
0
ENDTAB
0
TABLE
2
DIMSTYLE
5
A
100
AcDbSymbolTable
70
1
0
ENDTAB
0
TABLE
2
BLOCK_RECORD
5
1
100
AcDbSymbolTable
70
1
0
BLOCK_RECORD
5
1F
100
AcDbSymbolTableRecord
100
AcDbBlockTableRecord
2
*MODEL_SPACE
0
BLOCK_RECORD
5
1B
100
AcDbSymbolTableRecord
100
AcDbBlockTableRecord
2
*PAPER_SPACE
0
ENDTAB
0
ENDSEC
0
SECTION
2
BLOCKS
0
BLOCK
5
20
100
AcDbEntity
100
AcDbBlockBegin
2
*MODEL_SPACE
0
ENDBLK
5
21
100
AcDbEntity
100
AcDbBlockEnd
0
BLOCK
5
1C
100
AcDbEntity
100
AcDbBlockBegin
2
*PAPER_SPACE
0
ENDBLK
5
1D
100
AcDbEntity
100
AcDbBlockEnd
0
ENDSEC
0
SECTION
2
ENTITIES
0
LWPOLYLINE
5
100
100
AcDbEntity
8
0
100
AcDbPolyline
90
38
70
1
43
0.0
10
8.0000001043081781
20
134.13693963533262
10
26.18660160218397
20
134.13693963533265
10
26.186601602184467
20
203.82965135577197
42
0.4142135623730846
10
25.18660160218456
20
204.829651355772
10
6.1866016021845027
20
204.82965135577214
42
-0.41421356237309503
10
5.1866016021844885
20
205.82965135577214
10
5.1866016021847017
20
224.82965135577214
42
0.41421356237310542
10
4.1866016021846164
20
225.82965135577217
10
-341.81339839781526
20
225.82965135577498
42
0.41421356237311585
10
-342.81339839781538
20
224.82965135577498
10
-342.81339839781549
20
205.82965135577498
42
-0.41421356237309503
10
-343.81339839781555
20
204.82965135577498
10
-362.81339839781543
20
204.82965135577507
42
0.41421356237310542
10
-363.81339839781549
20
203.82965135577513
10
-363.81339839781833
20
-142.17034864422479
42
0.4142135623730846
10
-362.81339839781828
20
-143.17034864422484
10
-343.81339839781839
20
-143.17034864422499
42
-0.41421356237309503
10
-342.81339839781833
20
-144.17034864422499
10
-342.81339839781845
20
-163.17034864422499
42
0.41421356237309503
10
-341.8133983978185
20
-164.17034864422502
10
4.1866016021814545
20
-164.17034864422783
42
0.41421356237309503
10
5.1866016021815042
20
-163.17034864422783
10
5.1866016021816463
20
-144.17034864422783
42
-0.41421356237309503
10
6.1866016021816606
20
-143.17034864422783
10
25.186601602181717
20
-143.17034864422791
42
0.41421356237310542
10
26.186601602181767
20
-142.17034864422794
10
26.186601602182797
20
-5.1703486442280111
42
0.41421356237309764
10
25.186601602182854
20
-4.1703486442280013
10
6.1866016021827974
20
-4.1703486442278326
42
-0.41421356237309764
10
5.1866016021827832
20
-3.1703486442278095
10
5.1866016021833605
20
64.829651355772171
42
-0.41421356237309243
10
6.1866016021833659
20
65.829651355772171
10
25.186601602183423
20
65.829651355772029
42
0.41421356237308982
10
26.186601602183437
20
66.829651355772029
10
26.186601602183899
20
103.0000015348196
10
8.0000001043080715
20
103.00000153481957
42
-0.41421356237307944
10
7.0000001043081284
20
104.0000015348196
10
7.0000001043081461
20
133.13693963533265
42
-0.41421356237309503
0
ELLIPSE
5
101
100
AcDbEntity
8
0
100
AcDbEllipse
10
-42.496037524000144
20
32.204869264288689
30
1.6689298831806809e-06
11
-13.000033218113153
21
-2.0394932555916292e-10
31
0.0
40
0.99999744476705588
41
3.035608357563008
42
6.3891696031749783
0
ELLIPSE
5
102
100
AcDbEntity
8
0
100
AcDbEllipse
10
-42.496037524000187
20
29.454433447256442
30
1.6689298831806809e-06
11
-13.000033218113153
21
2.0416004642767767e-10
31
0.0
40
0.99999744476705588
41
6.1772010111841924
42
9.5307622567961658
0
CIRCLE
5
103
100
AcDbEntity
8
0
100
AcDbCircle
10
353.31339839781691
20
30.829651355775091
30
-1.6689298831806809e-06
40
2.1000000000000085
210
-2.4925596434177684e-41
220
6.3108872417680944e-30
230
-1
0
CIRCLE
5
104
100
AcDbEntity
8
0
100
AcDbCircle
10
24.813398397815369
20
215.3296513557724
30
-1.6689298831806809e-06
40
2.0749999999999957
210
-2.4925596434177684e-41
220
6.3108872417680944e-30
230
-1
0
CIRCLE
5
105
100
AcDbEntity
8
0
100
AcDbCircle
10
-15.686601602183643
20
95.8296513557721
30
-1.6689298121264073e-06
40
2.1000000000000085
210
-2.4925596434177684e-41
220
6.3108872417680944e-30
230
-1
0
CIRCLE
5
106
100
AcDbEntity
8
0
100
AcDbCircle
10
353.31339839781577
20
174.82965135577504
30
-1.6689298831806809e-06
40
2.1000000000000085
210
-2.4925596434177684e-41
220
6.3108872417680944e-30
230
-1
0
CIRCLE
5
107
100
AcDbEntity
8
0
100
AcDbCircle
10
168.81339839781538
20
215.32965135577356
30
-1.6689298831806809e-06
40
2.0749999999999957
210
-2.4925596434177684e-41
220
6.3108872417680944e-30
230
-1
0
CIRCLE
5
108
100
AcDbEntity
8
0
100
AcDbCircle
10
-15.686601602184282
20
174.82965135577206
30
-1.6689298121264073e-06
40
2.1000000000000085
210
-2.4925596434177684e-41
220
6.3108872417680944e-30
230
-1
0
CIRCLE
5
109
100
AcDbEntity
8
0
100
AcDbCircle
10
312.81339839781538
20
215.32965135577473
30
-1.6689298121264073e-06
40
2.0750000000000135
210
-2.4925596434177684e-41
220
6.3108872417680944e-30
230
-1
0
ELLIPSE
5
110
100
AcDbEntity
8
0
100
AcDbEllipse
10
-306.52053275096142
20
199.39278636489558
30
1.6689298831806809e-06
11
1.5500039606211775
21
2.4317033414431613e-11
31
0.0
40
0.99999744476705577
41
0
42
6.2831853071795862
0
ELLIPSE
5
111
100
AcDbEntity
8
0
100
AcDbEllipse
10
-306.2736773193958
20
168.39376947900303
30
1.6689298831806809e-06
11
1.5500039606211775
21
2.4317033414431613e-11
31
0.0
40
0.99999744476705577
41
0
42
6.2831853071795862
0
ELLIPSE
5
112
100
AcDbEntity
8
0
100
AcDbEllipse
10
-27.046819783020783
20
47.837912650818424
30
1.6689298831806809e-06
11
-1.5500039606211908
21
-2.4317034192473749e-11
31
0.0
40
0.99999744476705577
41
0
42
6.2831853071795862
0
ELLIPSE
5
113
100
AcDbEntity
8
0
100
AcDbEllipse
10
-337.51962860582341
20
199.14593156135811
30
1.6689298831806809e-06
11
1.5500039606212308
21
2.4317033414432444e-11
31
0.0
40
0.99999744476705577
41
0
42
6.2831853071795862
0
ELLIPSE
5
114
100
AcDbEntity
8
0
100
AcDbEllipse
10
-321.96975025278022
20
183.75974309844787
30
1.6689298831806809e-06
11
13.00003321811303
21
2.03949312508135e-10
31
0.0
40
0.99999744476705588
41
0
42
6.2831853071795862
0
ELLIPSE
5
115
100
AcDbEntity
8
0
100
AcDbEllipse
10
-58.045916117762118
20
47.591057846205587
30
1.6689298831806809e-06
11
-1.5500039606212508
21
-2.4317034192474696e-11
31
0.0
40
0.99999744476705577
41
0
42
6.2831853071795862
0
ELLIPSE
5
116
100
AcDbEntity
8
0
100
AcDbEllipse
10
-337.27277317425762
20
168.14691467546552
30
1.6689298831806809e-06
11
1.5500039606212308
21
2.4317033414432444e-11
31
0.0
40
0.99999744476705577
41
0
42
6.2831853071795862
0
ELLIPSE
5
117
100
AcDbEntity
8
0
100
AcDbEllipse
10
-337.27277317425978
20
-106.4876119639156
30
1.6689298831806809e-06
11
1.5500039606212308
21
-2.4342157825678434e-11
31
0.0
40
0.99999744476705577
41
0
42
6.2831853071795862
0
ELLIPSE
5
118
100
AcDbEntity
8
0
100
AcDbEllipse
10
-58.045916117762403
20
14.068244865339798
30
1.6689298831806809e-06
11
-1.5500039606212508
21
2.4342158603720686e-11
31
0.0
40
0.99999744476705577
41
0
42
6.2831853071795862
0
ELLIPSE
5
119
100
AcDbEntity
8
0
100
AcDbEllipse
10
-321.96975025278277
20
-122.10044038689821
30
1.6689298831806809e-06
11
13.00003321811303
21
-2.0416003337664982e-10
31
0.0
40
0.99999744476705588
41
0
42
6.2831853071795862
0
ELLIPSE
5
120
100
AcDbEntity
8
0
100
AcDbEllipse
10
-337.51962860582609
20
-137.4866288498082
30
1.6689298831806809e-06
11
1.5500039606212308
21
-2.4342157825678434e-11
31
0.0
40
0.99999744476705577
41
0
42
6.2831853071795862
0
ELLIPSE
5
121
100
AcDbEntity
8
0
100
AcDbEllipse
10
-27.046819783021068
20
13.821390060726454
30
1.6689298831806809e-06
11
-1.5500039606211908
21
2.4342158603719746e-11
31
0.0
40
0.99999744476705577
41
0
42
6.2831853071795862
0
ELLIPSE
5
122
100
AcDbEntity
8
0
100
AcDbEllipse
10
-306.27367731939808
20
-106.7344667674536
30
1.6689298831806809e-06
11
1.5500039606211775
21
-2.4342157825677604e-11
31
0.0
40
0.99999744476705577
41
0
42
6.2831853071795862
0
ELLIPSE
5
123
100
AcDbEntity
8
0
100
AcDbEllipse
10
-306.52053275096421
20
-137.73348365334621
30
1.6689298831806809e-06
11
1.5500039606211775
21
-2.4342157825677604e-11
31
0.0
40
0.99999744476705577
41
0
42
6.2831853071795862
0
CIRCLE
5
124
100
AcDbEntity
8
0
100
AcDbCircle
10
312.81339839781833
20
-153.67034864422524
30
-1.6689298121264073e-06
40
2.0750000000000135
210
-2.4925596434177684e-41
220
6.3108872417680944e-30
230
-1
0
CIRCLE
5
125
100
AcDbEntity
8
0
100
AcDbCircle
10
-15.686601602181938
20
-113.17034864422789
30
-1.6689298121264073e-06
40
2.1000000000000085
210
-2.4925596434177684e-41
220
6.3108872417680944e-30
230
-1
0
CIRCLE
5
126
100
AcDbEntity
8
0
100
AcDbCircle
10
168.81339839781839
20
-153.67034864422641
30
-1.6689298831806809e-06
40
2.0749999999999957
210
-2.4925596434177684e-41
220
6.3108872417680944e-30
230
-1
0
CIRCLE
5
127
100
AcDbEntity
8
0
100
AcDbCircle
10
353.31339839781805
20
-113.1703486442249
30
-1.6689298831806809e-06
40
2.1000000000000085
210
-2.4925596434177684e-41
220
6.3108872417680944e-30
230
-1
0
CIRCLE
5
128
100
AcDbEntity
8
0
100
AcDbCircle
10
-15.686601602182577
20
-34.170348644227907
30
-1.6689298121264073e-06
40
2.1000000000000085
210
-2.4925596434177684e-41
220
6.3108872417680944e-30
230
-1
0
CIRCLE
5
129
100
AcDbEntity
8
0
100
AcDbCircle
10
24.813398397818354
20
-153.67034864422757
30
-1.6689298831806809e-06
40
2.0749999999999957
210
-2.4925596434177684e-41
220
6.3108872417680944e-30
230
-1
0
ENDSEC
0
SECTION
2
OBJECTS
0
DICTIONARY
5
C
100
AcDbDictionary
3
ACAD_GROUP
350
D
3
ACAD_MLINESTYLE
350
17
0
DICTIONARY
5
D
100
AcDbDictionary
0
DICTIONARY
5
1A
330
C
100
AcDbDictionary
0
DICTIONARY
5
17
100
AcDbDictionary
0
ENDSEC
0
EOF
