0
SECTION
2
HEADER
9
$INSUNITS
70
4
9
$ACADVER
1
AC1014
9
$HANDSEED
5
FFFF
0
ENDSEC
0
SECTION
2
TABLES
0
TABLE
2
VPORT
5
8
100
AcDbSymbolTable
0
ENDTAB
0
TABLE
2
LTYPE
5
5
100
AcDbSymbolTable
0
LTYPE
5
14
100
AcDbSymbolTableRecord
100
AcDbLinetypeTableRecord
2
BYBLOCK
70
0
0
LTYPE
5
15
100
AcDbSymbolTableRecord
100
AcDbLinetypeTableRecord
2
BYLAYER
70
0
0
ENDTAB
0
TABLE
2
LAYER
5
2
100
AcDbSymbolTable
70
2
0
LAYER
5
50
100
AcDbSymbolTableRecord
100
AcDbLayerTableRecord
2
0
70
0
6
CONTINUOUS
0
ENDTAB
0
TABLE
2
STYLE
5
3
100
AcDbSymbolTable
70
1
0
STYLE
5
11
100
AcDbSymbolTableRecord
100
AcDbTextStyleTableRecord
2
STANDARD
70
0
0
ENDTAB
0
TABLE
2
VIEW
5
6
100
AcDbSymbolTable
70
0
0
ENDTAB
0
TABLE
2
UCS
5
7
100
AcDbSymbolTable
70
0
0
ENDTAB
0
TABLE
2
APPID
5
9
100
AcDbSymbolTable
70
2
0
APPID
5
12
100
AcDbSymbolTableRecord
100
AcDbRegAppTableRecord
2
ACAD
70
0
0
ENDTAB
0
TABLE
2
DIMSTYLE
5
A
100
AcDbSymbolTable
70
1
0
ENDTAB
0
TABLE
2
BLOCK_RECORD
5
1
100
AcDbSymbolTable
70
1
0
BLOCK_RECORD
5
1F
100
AcDbSymbolTableRecord
100
AcDbBlockTableRecord
2
*MODEL_SPACE
0
BLOCK_RECORD
5
1B
100
AcDbSymbolTableRecord
100
AcDbBlockTableRecord
2
*PAPER_SPACE
0
ENDTAB
0
ENDSEC
0
SECTION
2
BLOCKS
0
BLOCK
5
20
100
AcDbEntity
100
AcDbBlockBegin
2
*MODEL_SPACE
0
ENDBLK
5
21
100
AcDbEntity
100
AcDbBlockEnd
0
BLOCK
5
1C
100
AcDbEntity
100
AcDbBlockBegin
2
*PAPER_SPACE
0
ENDBLK
5
1D
100
AcDbEntity
100
AcDbBlockEnd
0
ENDSEC
0
SECTION
2
ENTITIES
0
LWPOLYLINE
5
100
100
AcDbEntity
8
0
100
AcDbPolyline
90
38
70
1
43
0.0
10
8.0000001043082847
20
134.13693963533265
10
26.18660160218429
20
134.13693963533251
10
26.186601602184822
20
203.82965135577251
42
0.41421356237309503
10
25.186601602184844
20
204.82965135577251
10
6.1866016021848225
20
204.82965135577263
42
-0.41421356237309503
10
5.1866016021848083
20
205.82965135577265
10
5.1866016021849859
20
224.82965135577268
42
0.41421356237309503
10
4.1866016021849717
20
225.82965135577268
10
-341.81339839781504
20
225.82965135577521
42
0.41421356237309503
10
-342.81339839781509
20
224.82965135577524
10
-342.81339839781515
20
205.82965135577521
42
-0.41421356237309503
10
-343.81339839781515
20
204.82965135577518
10
-362.81339839781526
20
204.82965135577535
42
0.41421356237309503
10
-363.81339839781515
20
203.82965135577535
10
-363.81339839781776
20
-142.17034864422465
42
0.41421356237309503
10
-362.81339839781776
20
-143.17034864422467
10
-343.81339839781776
20
-143.17034864422479
42
-0.41421356237309503
10
-342.81339839781771
20
-144.17034864422479
10
-342.81339839781793
20
-163.17034864422482
42
0.41421356237309503
10
-341.81339839781788
20
-164.17034864422482
10
4.1866016021821295
20
-164.17034864422735
42
0.41421356237309503
10
5.1866016021821437
20
-163.17034864422737
10
5.1866016021822503
20
-144.17034864422735
42
-0.41421356237309503
10
6.1866016021822645
20
-143.17034864422735
10
25.186601602182286
20
-143.17034864422752
42
0.41421356237309503
10
26.1866016021823
20
-142.17034864422749
10
26.186601602183295
20
-5.1703486442278956
42
0.41421356237309892
10
25.186601602183316
20
-4.1703486442278814
10
6.1866016021832948
20
-4.1703486442276505
42
-0.41421356237309764
10
5.1866016021832806
20
-3.1703486442276274
10
5.1866016021837957
20
64.829651355772285
42
-0.41421356237308982
10
6.1866016021837922
20
65.829651355772256
10
25.186601602183813
20
65.829651355772128
42
0.41421356237308982
10
26.186601602183828
20
66.829651355772214
10
26.186601602184076
20
103.00000153481972
10
8.0000001043080715
20
103.00000153481975
42
-0.41421356237309503
10
7.0000001043080573
20
104.00000153481976
10
7.0000001043082705
20
133.13693963533268
42
-0.4142135623730846
0
ELLIPSE
5
101
100
AcDbEntity
8
0
100
AcDbEllipse
10
-58.476285884812299
20
46.115782106013938
30
1.6689296700178602e-06
11
1.5500039606218525
21
4.4642739829737664e-10
31
0.0
40
0.99999744476662611
41
0
42
6.2831853071795862
0
ELLIPSE
5
102
100
AcDbEntity
8
0
100
AcDbEllipse
10
-58.546366482088374
20
15.11586144462048
30
1.6689296700178602e-06
11
1.5500039606218903
21
4.4642739718589891e-10
31
0.0
40
0.99999744476662611
41
0
42
6.2831853071795862
0
ELLIPSE
5
103
100
AcDbEntity
8
0
100
AcDbEllipse
10
-27.476286254484865
20
46.045701684810219
30
1.6689296700178602e-06
11
1.5500039606218525
21
4.4642739829737664e-10
31
0.0
40
0.99999744476662611
41
0
42
6.2831853071795862
0
ELLIPSE
5
104
100
AcDbEntity
8
0
100
AcDbEllipse
10
-27.546366851761004
20
15.045781023416643
30
1.6689296700178602e-06
11
1.5500039606218903
21
4.4642739718589891e-10
31
0.0
40
0.99999744476662611
41
0
42
6.2831853071795862
0
CIRCLE
5
105
100
AcDbEntity
8
0
100
AcDbCircle
10
43.01132686214018
20
30.829651355772718
30
-1.6689296700178602e-06
40
16.5
210
-6.7344501996910122e-30
220
1.2621774483536189e-29
230
-1
0
CIRCLE
5
106
100
AcDbEntity
8
0
100
AcDbCircle
10
24.813398397817803
20
-153.67034864422715
30
-1.6689296700178602e-06
40
2.0750000000000002
210
2.8025969286496341e-45
220
1.2621774483536189e-29
230
-1
0
CIRCLE
5
107
100
AcDbEntity
8
0
100
AcDbCircle
10
-15.686601602183075
20
-34.170348644227815
30
-1.6689296700178602e-06
40
2.1000000000000099
210
2.8025969286496341e-45
220
1.2621774483536189e-29
230
-1
0
CIRCLE
5
108
100
AcDbEntity
8
0
100
AcDbCircle
10
353.31339839781748
20
-113.1703486442247
30
-1.6689296700178602e-06
40
2.1000000000000099
210
2.8025969286496341e-45
220
1.2621774483536189e-29
230
-1
0
CIRCLE
5
109
100
AcDbEntity
8
0
100
AcDbCircle
10
168.81339839781822
20
-153.67034864422607
30
-1.6689296700178602e-06
40
2.0750000000000002
210
2.8025969286496341e-45
220
1.2621774483536189e-29
230
-1
0
CIRCLE
5
110
100
AcDbEntity
8
0
100
AcDbCircle
10
-15.686601602182471
20
-113.1703486442274
30
-1.6689296700178602e-06
40
2.1000000000000099
210
2.8025969286496341e-45
220
1.2621774483536189e-29
230
-1
0
CIRCLE
5
111
100
AcDbEntity
8
0
100
AcDbCircle
10
312.81339839781776
20
-153.67034864422499
30
-1.6689296700178602e-06
40
2.0750000000000099
210
2.8025969286496341e-45
220
1.2621774483536189e-29
230
-1
0
ELLIPSE
5
112
100
AcDbEntity
8
0
100
AcDbEllipse
10
-306.5205327509637
20
-137.73348365334607
30
1.6689296700178602e-06
11
1.5500039606211802
21
-2.4340953230617907e-11
31
0.0
40
0.99999744476705188
41
0
42
6.2831853071795862
0
ELLIPSE
5
113
100
AcDbEntity
8
0
100
AcDbEllipse
10
-306.27367731939751
20
-106.73446676745407
30
1.6689296700178602e-06
11
1.5500039606211802
21
-2.4340953230617907e-11
31
0.0
40
0.99999744476705188
41
0
42
6.2831853071795862
0
ELLIPSE
5
114
100
AcDbEntity
8
0
100
AcDbEllipse
10
-337.51962860582574
20
-137.48662884980885
30
1.6689296700178602e-06
11
1.5500039606212301
21
-2.4340953230618689e-11
31
0.0
40
0.99999744476705832
41
0
42
6.2831853071795862
0
ELLIPSE
5
115
100
AcDbEntity
8
0
100
AcDbEllipse
10
-321.96975025278266
20
-122.10044038689794
30
1.6689296700178602e-06
11
13.000033218113
21
-2.0414993032130956e-10
31
0.0
40
0.99999744476706021
41
0
42
6.2831853071795862
0
ELLIPSE
5
116
100
AcDbEntity
8
0
100
AcDbEllipse
10
-337.27277317425944
20
-106.48761196391582
30
1.6689296700178602e-06
11
1.5500039606212301
21
-2.4340953230618689e-11
31
0.0
40
0.99999744476705832
41
0
42
6.2831853071795862
0
ELLIPSE
5
117
100
AcDbEntity
8
0
100
AcDbEllipse
10
-337.27277317425745
20
168.14691467546515
30
1.6689296700178602e-06
11
1.5500039606212301
21
2.4318238009492179e-11
31
0.0
40
0.99999744476705832
41
0
42
6.2831853071795862
0
ELLIPSE
5
118
100
AcDbEntity
8
0
100
AcDbEllipse
10
-321.96975025278039
20
183.75974309844807
30
1.6689296700178602e-06
11
13.000033218113
21
2.0395941556347429e-10
31
0.0
40
0.99999744476706021
41
0
42
6.2831853071795862
0
ELLIPSE
5
119
100
AcDbEntity
8
0
100
AcDbEllipse
10
-337.51962860582324
20
199.1459315613582
30
1.6689296700178602e-06
11
1.5500039606212301
21
2.4318238009492179e-11
31
0.0
40
0.99999744476705832
41
0
42
6.2831853071795862
0
ELLIPSE
5
120
100
AcDbEntity
8
0
100
AcDbEllipse
10
-306.27367731939546
20
168.39376947900297
30
1.6689296700178602e-06
11
1.5500039606211802
21
2.4318238009491394e-11
31
0.0
40
0.99999744476705188
41
0
42
6.2831853071795862
0
ELLIPSE
5
121
100
AcDbEntity
8
0
100
AcDbEllipse
10
-306.52053275096125
20
199.39278636489598
30
1.6689296700178602e-06
11
1.5500039606211802
21
2.4318238009491394e-11
31
0.0
40
0.99999744476705188
41
0
42
6.2831853071795862
0
CIRCLE
5
122
100
AcDbEntity
8
0
100
AcDbCircle
10
312.81339839781509
20
215.32965135577498
30
-1.6689296700178602e-06
40
2.0750000000000099
210
2.8025969286496341e-45
220
1.2621774483536189e-29
230
-1
0
CIRCLE
5
123
100
AcDbEntity
8
0
100
AcDbCircle
10
-15.686601602184602
20
174.8296513557726
30
-1.6689296700178602e-06
40
2.1000000000000099
210
2.8025969286496341e-45
220
1.2621774483536189e-29
230
-1
0
CIRCLE
5
124
100
AcDbEntity
8
0
100
AcDbCircle
10
168.81339839781555
20
215.32965135577393
30
-1.6689296700178602e-06
40
2.0750000000000002
210
2.8025969286496341e-45
220
1.2621774483536189e-29
230
-1
0
CIRCLE
5
125
100
AcDbEntity
8
0
100
AcDbCircle
10
353.31339839781538
20
174.8296513557753
30
-1.6689296700178602e-06
40
2.1000000000000099
210
2.8025969286496341e-45
220
1.2621774483536189e-29
230
-1
0
CIRCLE
5
126
100
AcDbEntity
8
0
100
AcDbCircle
10
-15.686601602183998
20
95.829651355772285
30
-1.6689296700178602e-06
40
2.1000000000000099
210
2.8025969286496341e-45
220
1.2621774483536189e-29
230
-1
0
CIRCLE
5
127
100
AcDbEntity
8
0
100
AcDbCircle
10
24.813398397815103
20
215.32965135577285
30
-1.6689296700178602e-06
40
2.0750000000000002
210
2.8025969286496341e-45
220
1.2621774483536189e-29
230
-1
0
CIRCLE
5
128
100
AcDbEntity
8
0
100
AcDbCircle
10
353.31339839781651
20
30.829651355774949
30
-1.6689296700178602e-06
40
2.1000000000000099
210
2.8025969286496341e-45
220
1.2621774483536189e-29
230
-1
0
ENDSEC
0
SECTION
2
OBJECTS
0
DICTIONARY
5
C
100
AcDbDictionary
3
ACAD_GROUP
350
D
3
ACAD_MLINESTYLE
350
17
0
DICTIONARY
5
D
100
AcDbDictionary
0
DICTIONARY
5
1A
330
C
100
AcDbDictionary
0
DICTIONARY
5
17
100
AcDbDictionary
0
ENDSEC
0
EOF
