0
SECTION
2
HEADER
9
$INSUNITS
70
4
9
$ACADVER
1
AC1014
9
$HANDSEED
5
FFFF
0
ENDSEC
0
SECTION
2
TABLES
0
TABLE
2
VPORT
5
8
100
AcDbSymbolTable
0
ENDTAB
0
TABLE
2
LTYPE
5
5
100
AcDbSymbolTable
0
LTYPE
5
14
100
AcDbSymbolTableRecord
100
AcDbLinetypeTableRecord
2
BYBLOCK
70
0
0
LTYPE
5
15
100
AcDbSymbolTableRecord
100
AcDbLinetypeTableRecord
2
BYLAYER
70
0
0
ENDTAB
0
TABLE
2
LAYER
5
2
100
AcDbSymbolTable
70
2
0
LAYER
5
50
100
AcDbSymbolTableRecord
100
AcDbLayerTableRecord
2
0
70
0
6
CONTINUOUS
0
ENDTAB
0
TABLE
2
STYLE
5
3
100
AcDbSymbolTable
70
1
0
STYLE
5
11
100
AcDbSymbolTableRecord
100
AcDbTextStyleTableRecord
2
STANDARD
70
0
0
ENDTAB
0
TABLE
2
VIEW
5
6
100
AcDbSymbolTable
70
0
0
ENDTAB
0
TABLE
2
UCS
5
7
100
AcDbSymbolTable
70
0
0
ENDTAB
0
TABLE
2
APPID
5
9
100
AcDbSymbolTable
70
2
0
APPID
5
12
100
AcDbSymbolTableRecord
100
AcDbRegAppTableRecord
2
ACAD
70
0
0
ENDTAB
0
TABLE
2
DIMSTYLE
5
A
100
AcDbSymbolTable
70
1
0
ENDTAB
0
TABLE
2
BLOCK_RECORD
5
1
100
AcDbSymbolTable
70
1
0
BLOCK_RECORD
5
1F
100
AcDbSymbolTableRecord
100
AcDbBlockTableRecord
2
*MODEL_SPACE
0
BLOCK_RECORD
5
1B
100
AcDbSymbolTableRecord
100
AcDbBlockTableRecord
2
*PAPER_SPACE
0
ENDTAB
0
ENDSEC
0
SECTION
2
BLOCKS
0
BLOCK
5
20
100
AcDbEntity
100
AcDbBlockBegin
2
*MODEL_SPACE
0
ENDBLK
5
21
100
AcDbEntity
100
AcDbBlockEnd
0
BLOCK
5
1C
100
AcDbEntity
100
AcDbBlockBegin
2
*PAPER_SPACE
0
ENDBLK
5
1D
100
AcDbEntity
100
AcDbBlockEnd
0
ENDSEC
0
SECTION
2
ENTITIES
0
LWPOLYLINE
5
100
100
AcDbEntity
8
0
100
AcDbPolyline
90
4
70
1
43
0.0
10
166.28780227524771
20
-396.17480486526767
42
0.99999999999999989
10
176.28780227524771
20
-396.17480486526745
10
176.28780227524501
20
-296.17480486526733
42
0.99999999999999989
10
166.28780227524501
20
-296.17480486526767
0
LWPOLYLINE
5
101
100
AcDbEntity
8
0
100
AcDbPolyline
90
4
70
1
43
0.0
10
166.28780227524391
20
-252.7188959726534
42
0.99999999999999989
10
176.28780227524391
20
-252.71889597265303
10
176.28780227524274
20
-212.71889597265294
42
0.99999999999999989
10
166.28780227524277
20
-212.71889597265334
0
LWPOLYLINE
5
102
100
AcDbEntity
8
0
100
AcDbPolyline
90
4
70
1
43
0.0
10
244.81591741570304
20
-603.48207793033669
10
229.81608418787323
20
-603.48207793033657
42
0.99999999999999989
10
229.8160841878732
20
-613.48207793033725
10
244.81591741570298
20
-613.48207793033782
42
0.99999999999999989
0
CIRCLE
5
103
100
AcDbEntity
8
0
100
AcDbCircle
10
323.89506184723768
20
-382.74674416564778
30
-6.3560268159790212e-14
40
2.1000000000000094
210
-8.7117832977998809e-17
220
-2.2898349882893814e-16
230
1
0
CIRCLE
5
104
100
AcDbEntity
8
0
100
AcDbCircle
10
323.89506184723422
20
-255.22752971058483
30
-3.2612801348363973e-14
40
2.1000000000000094
210
-8.7117832977998809e-17
220
-2.2898349882893814e-16
230
1
0
CIRCLE
5
105
100
AcDbEntity
8
0
100
AcDbCircle
10
323.8950618472411
20
-510.22020327854602
30
-9.0066842872715824e-14
40
2.1000000000000094
210
-8.7117832977998809e-17
220
-2.2898349882893814e-16
230
1
0
CIRCLE
5
106
100
AcDbEntity
8
0
100
AcDbCircle
10
-30.623275668648986
20
-127.57102092534592
30
-3.4833247397614286e-14
40
2.1000000000000005
210
-8.7117832977998809e-17
220
-2.2898349882893814e-16
230
1
0
CIRCLE
5
107
100
AcDbEntity
8
0
100
AcDbCircle
10
153.72914881908056
20
-255.23009277336593
30
-4.6559978095217502e-14
40
2.0999999999999917
210
-8.7117832977998809e-17
220
-2.2898349882893814e-16
230
1
0
CIRCLE
5
108
100
AcDbEntity
8
0
100
AcDbCircle
10
-216.27085118091998
20
-510.23009277336598
30
-1.3801459974871477e-13
40
2.1000000000000094
210
-8.7117832977998809e-17
220
-2.2898349882893814e-16
230
1
0
CIRCLE
5
109
100
AcDbEntity
8
0
100
AcDbCircle
10
-216.27085118091884
20
-255.23009277336593
30
-8.0560558224362921e-14
40
2.1000000000000094
210
-8.7117832977998809e-17
220
-2.2898349882893814e-16
230
1
0
CIRCLE
5
110
100
AcDbEntity
8
0
100
AcDbCircle
10
153.7291488190792
20
-510.23009277336598
30
-1.0401401961956935e-13
40
2.1000000000000094
210
-8.7117832977998809e-17
220
-2.2898349882893814e-16
230
1
0
CIRCLE
5
111
100
AcDbEntity
8
0
100
AcDbCircle
10
153.72914881907991
20
-382.73009277336593
30
-7.7507444906643741e-14
40
2.1000000000000094
210
-8.7117832977998809e-17
220
-2.2898349882893814e-16
230
1
0
CIRCLE
5
112
100
AcDbEntity
8
0
100
AcDbCircle
10
-216.27085118091941
20
-382.73009277336587
30
-1.1150802503578916e-13
40
2.1000000000000449
210
-8.7117832977998809e-17
220
-2.2898349882893814e-16
230
1
0
LWPOLYLINE
5
113
100
AcDbEntity
8
0
100
AcDbPolyline
90
8
70
1
43
0.0
10
-226.10527566864596
20
-646.74702092534767
42
0.41421356237309503
10
-225.10527566864596
20
-647.74702092534767
10
332.89506184724485
20
-647.74702092534756
42
0.4142135623730534
10
333.8950618472449
20
-646.74702092534767
10
333.89506184723064
20
-118.74674416566182
42
0.41421356237311063
10
332.89506184723052
20
-117.74674416566185
10
-225.10527566864599
20
-117.74674416566192
42
0.41421356237308982
10
-226.10527566864604
20
-118.74674416566187
0
CIRCLE
5
114
100
AcDbEntity
8
0
100
AcDbCircle
10
323.89506184724462
20
-637.7467441656479
30
-1.2101430968414206e-13
40
2.1000000000000094
210
-8.7117832977998871e-17
220
-2.2898349882893814e-16
230
1
0
CIRCLE
5
115
100
AcDbEntity
8
0
100
AcDbCircle
10
323.89506184723081
20
-127.74674416564775
30
-6.1756155744774333e-15
40
2.1000000000000094
210
-8.7117832977998871e-17
220
-2.2898349882893814e-16
230
1
0
CIRCLE
5
116
100
AcDbEntity
8
0
100
AcDbCircle
10
186.33382709257802
20
-292.42882913534805
30
-5.6413207438765767e-14
40
2.1000000000000094
210
-8.7117832977998871e-17
220
-2.2898349882893814e-16
230
1
0
CIRCLE
5
117
100
AcDbEntity
8
0
100
AcDbCircle
10
291.33382709257495
20
-187.42882913534521
30
-1.7694179454963432e-14
40
2.1000000000000094
210
-8.7117832977998871e-17
220
-2.2898349882893814e-16
230
1
0
CIRCLE
5
118
100
AcDbEntity
8
0
100
AcDbCircle
10
238.83382709257654
20
-239.92882913534663
30
-3.70536934468646e-14
40
60.000000000000028
210
-8.7117832977998748e-17
220
-2.2898349882893804e-16
230
1
0
CIRCLE
5
119
100
AcDbEntity
8
0
100
AcDbCircle
10
186.33382709257521
20
-187.42882913534805
30
-2.8033131371785203e-14
40
2.1000000000000094
210
-8.7117832977998871e-17
220
-2.2898349882893814e-16
230
1
0
CIRCLE
5
120
100
AcDbEntity
8
0
100
AcDbCircle
10
291.33382709257796
20
-292.42882913534521
30
-4.6074255521943996e-14
40
2.1000000000000094
210
-8.7117832977998871e-17
220
-2.2898349882893814e-16
230
1
0
LWPOLYLINE
5
121
100
AcDbEntity
8
0
100
AcDbPolyline
90
4
70
1
43
0.0
10
176.28780227524868
20
-429.1748048652675
42
0.99999999999999989
10
166.28780227524868
20
-429.17480486526762
10
166.28780227525354
20
-608.64967951571703
42
0.99999999999999989
10
176.28780227525354
20
-608.64967951571668
0
LWPOLYLINE
5
122
100
AcDbEntity
8
0
100
AcDbPolyline
90
12
70
1
43
0.0
10
263.66260314478939
20
-581.77606218166591
10
263.66260314478887
20
-566.04714066725228
42
0.20831910583375204
10
262.86536300098214
20
-564.21667382184455
10
259.17215831497924
20
-560.78113457905135
42
0.18953936986973552
10
257.46939845878615
20
-560.11160142445897
10
217.16260314478882
20
-560.11160142445976
42
0.41421356237309503
10
216.16260314478893
20
-561.11160142445999
10
216.16260314478936
20
-586.71160142446001
42
0.4142135623730534
10
217.16260314478944
20
-587.7116014244599
10
257.46939845878683
20
-587.71160142445888
42
0.1895393698697293
10
259.17215831497992
20
-587.04206826986672
10
262.86536300098265
20
-583.60652902707352
42
0.20831910583374932
0
CIRCLE
5
123
100
AcDbEntity
8
0
100
AcDbCircle
10
238.96260314478951
20
-593.86160142445965
30
-1.1643463970756329e-13
40
1.8499999999999881
210
-8.7117832977998501e-17
220
-2.2898349882893804e-16
230
1
0
CIRCLE
5
124
100
AcDbEntity
8
0
100
AcDbCircle
10
238.96260314478872
20
-553.96160142445956
30
-1.0845491171806998e-13
40
1.8499999999999881
210
-8.7117832977998501e-17
220
-2.2898349882893804e-16
230
1
0
LWPOLYLINE
5
125
100
AcDbEntity
8
0
100
AcDbPolyline
90
4
70
1
43
0.0
10
-70.012423794066635
20
-613.47395627541027
42
0.99999999999999989
10
-70.012423794066635
20
-603.47395627541005
10
-90.012423794066635
20
-603.47395627541016
42
0.99999999999999989
10
-90.012423794066606
20
-613.47395627541027
0
LWPOLYLINE
5
126
100
AcDbEntity
8
0
100
AcDbPolyline
90
6
70
1
43
0.0
10
58.731934268677719
20
-191.70043277608019
10
58.731934268677712
20
-193.62415962687706
42
0.99999999999999989
10
78.731934268677691
20
-193.62415962687717
10
78.731934268677691
20
-192.00350420016497
42
-0.1852718484318302
10
80.015340855989322
20
-188.65881685980543
42
2.2150795431019463
10
57.515340855989344
20
-188.43151329174179
42
-0.18005229045704216
0
CIRCLE
5
127
100
AcDbEntity
8
0
100
AcDbCircle
10
-144.96324215802912
20
-178.62475483872566
30
-5.7176485768195562e-14
40
20.000000000000007
210
-8.7117832977998809e-17
220
-2.2898349882893814e-16
230
1
0
CIRCLE
5
128
100
AcDbEntity
8
0
100
AcDbCircle
10
-175.86429312654934
20
-145.91198899661262
30
-4.8641646266389671e-14
40
1.6000000000000023
210
-8.7117832977998809e-17
220
-2.2898349882893814e-16
230
1
0
CIRCLE
5
129
100
AcDbEntity
8
0
100
AcDbCircle
10
-114.06219118950892
20
-211.33752068083865
30
-6.1201044232461754e-14
40
1.6000000000000023
210
-8.7117832977998809e-17
220
-2.2898349882893814e-16
230
1
0
LWPOLYLINE
5
130
100
AcDbEntity
8
0
100
AcDbPolyline
90
6
70
1
43
0.0
10
-37.518250027675357
20
-285.79317283665534
10
-25.017881434970018
20
-285.7931728366554
42
0.99999999999999989
10
-25.017881434969947
20
-273.2931728366554
10
-31.22006845667287
20
-273.2931728366554
42
0.0038397253604245387
10
-31.316063005978158
20
-273.2931728366554
10
-37.518250027675286
20
-273.29317283665534
42
0.99999999999999989
0
LWPOLYLINE
5
131
100
AcDbEntity
8
0
100
AcDbPolyline
90
4
70
1
43
0.0
10
-198.12996737798068
20
-613.47395627541005
10
-168.12996737798071
20
-613.47395627541016
42
0.99999999999999989
10
-168.12996737798062
20
-603.47395627541016
10
-198.12996737798056
20
-603.47395627541005
42
0.99999999999999989
0
LWPOLYLINE
5
132
100
AcDbEntity
8
0
100
AcDbPolyline
90
4
70
1
43
0.0
10
105.55028586966996
20
-603.47395627541164
42
0.99999999999999989
10
105.55028586966992
20
-613.47395627541164
10
135.55028586966986
20
-613.47395627541175
42
0.99999999999999989
10
135.55028586966992
20
-603.47395627541175
0
CIRCLE
5
133
100
AcDbEntity
8
0
100
AcDbCircle
10
-26.264241899780867
20
-205.89938452577098
30
-5.0098813986210189e-14
40
2.100000000000001
210
-8.7117832977996319e-17
220
-2.2898349882893814e-16
230
1
0
CIRCLE
5
134
100
AcDbEntity
8
0
100
AcDbCircle
10
-36.21418186892771
20
-156.08663656178112
30
-3.9551695252271202e-14
40
2.1000000000000005
210
-8.7117832977996332e-17
220
-2.2898349882893814e-16
230
1
0
CIRCLE
5
135
100
AcDbEntity
8
0
100
AcDbCircle
10
-26.2642418997806
20
-156.08663656178916
30
-3.8996583739958623e-14
40
2.100000000000001
210
-8.7117832977996319e-17
220
-2.2898349882893814e-16
230
1
0
CIRCLE
5
136
100
AcDbEntity
8
0
100
AcDbCircle
10
-36.214181868928208
20
-205.89938452577081
30
-5.0653925498522767e-14
40
2.1000000000000005
210
-8.7117832977996332e-17
220
-2.2898349882893814e-16
230
1
0
CIRCLE
5
137
100
AcDbEntity
8
0
100
AcDbCircle
10
23.735758100222846
20
-205.8993845257715
30
-4.7323256424647298e-14
40
2.1000000000000005
210
-8.7117832977996332e-17
220
-2.2898349882893814e-16
230
1
0
CIRCLE
5
138
100
AcDbEntity
8
0
100
AcDbCircle
10
-86.214181868927682
20
-156.08663656178885
30
-4.6768144912334719e-14
40
2.1000000000000005
210
-8.7117832977996332e-17
220
-2.2898349882893814e-16
230
1
0
CIRCLE
5
139
100
AcDbEntity
8
0
100
AcDbCircle
10
-86.214181868927938
20
-205.89938452577064
30
-5.7870375158586285e-14
40
2.1000000000000005
210
-8.7117832977996332e-17
220
-2.2898349882893814e-16
230
1
0
CIRCLE
5
140
100
AcDbEntity
8
0
100
AcDbCircle
10
-30.623275668648979
20
-637.57102092534592
30
-1.4967194150727892e-13
40
2.100000000000025
210
-8.7117832977998809e-17
220
-2.2898349882893814e-16
230
1
0
CIRCLE
5
141
100
AcDbEntity
8
0
100
AcDbCircle
10
-216.28327566864607
20
-127.57102092534492
30
-5.4053983511437309e-14
40
2.1000000000000094
210
-8.7117832977998809e-17
220
-2.2898349882893814e-16
230
1
0
CIRCLE
5
142
100
AcDbEntity
8
0
100
AcDbCircle
10
-31.252569474687427
20
-307.6512729127129
30
-7.3274719625260332e-14
40
2.1000000000000014
210
-8.7117832977998809e-17
220
-2.2898349882893814e-16
230
1
0
CIRCLE
5
143
100
AcDbEntity
8
0
100
AcDbCircle
10
-216.28327566864874
20
-637.57102092534501
30
-1.6889267762110194e-13
40
2.1000000000000094
210
-8.7117832977998809e-17
220
-2.2898349882893814e-16
230
1
0
CIRCLE
5
144
100
AcDbEntity
8
0
100
AcDbCircle
10
153.7167243313508
20
-637.57102092534694
30
-1.3489209749195652e-13
40
2.0999999999999739
210
-8.7117832977998809e-17
220
-2.2898349882893814e-16
230
1
0
CIRCLE
5
145
100
AcDbEntity
8
0
100
AcDbCircle
10
153.7167243313535
20
-127.57102092534687
30
-2.005340338229189e-14
40
2.1000000000000094
210
-8.7117832977998809e-17
220
-2.2898349882893814e-16
230
1
0
CIRCLE
5
146
100
AcDbEntity
8
0
100
AcDbCircle
10
23.73575810022281
20
-156.08663656178942
30
-3.6221026178395732e-14
40
2.1000000000000005
210
-8.7117832977996332e-17
220
-2.2898349882893814e-16
230
1
0
LWPOLYLINE
5
147
100
AcDbEntity
8
0
100
AcDbPolyline
90
8
70
1
43
0.0
10
-38.667784476031756
20
-161.17477854228912
42
2.6949367333763692
10
-38.378372987263504
20
-200.31261399003964
42
-0.220355116245424
10
-35.327370169258771
20
-198.89938452577096
10
-27.194418075338479
20
-198.89938452577104
42
-0.22035511624541704
10
-24.143415257333857
20
-200.31261399003981
42
2.6949367333769376
10
-23.854003768570848
20
-161.17477854229554
42
-0.21648145949015285
10
-26.866418388077093
20
-162.54317101832757
10
-35.655369856532786
20
-162.54317101832038
42
-0.216481459489654
0
ENDSEC
0
SECTION
2
OBJECTS
0
DICTIONARY
5
C
100
AcDbDictionary
3
ACAD_GROUP
350
D
3
ACAD_MLINESTYLE
350
17
0
DICTIONARY
5
D
100
AcDbDictionary
0
DICTIONARY
5
1A
330
C
100
AcDbDictionary
0
DICTIONARY
5
17
100
AcDbDictionary
0
ENDSEC
0
EOF
